<?xml version="1.0" encoding="UTF-8" standalone="no"?>
<svg
   xmlns:dc="http://purl.org/dc/elements/1.1/"
   xmlns:cc="http://creativecommons.org/ns#"
   xmlns:rdf="http://www.w3.org/1999/02/22-rdf-syntax-ns#"
   xmlns:svg="http://www.w3.org/2000/svg"
   xmlns="http://www.w3.org/2000/svg"
   xmlns:sodipodi="http://sodipodi.sourceforge.net/DTD/sodipodi-0.dtd"
   xmlns:inkscape="http://www.inkscape.org/namespaces/inkscape"
   width="385.64594mm"
   height="78.42305mm"
   viewBox="0 0 385.64594 78.42305"
   version="1.1"
   id="svg8"
   inkscape:version="1.0.2-2 (e86c870879, 2021-01-15)"
   sodipodi:docname="Homestew-alt-logo.svg">
  <defs
     id="defs2" />
  <sodipodi:namedview
     id="base"
     pagecolor="#ffffff"
     bordercolor="#666666"
     borderopacity="1.0"
     inkscape:pageopacity="0.0"
     inkscape:pageshadow="2"
     inkscape:zoom="0.35"
     inkscape:cx="986.27827"
     inkscape:cy="-131.2127"
     inkscape:document-units="mm"
     inkscape:current-layer="layer1"
     inkscape:document-rotation="0"
     showgrid="false"
     fit-margin-top="0"
     fit-margin-left="0"
     fit-margin-right="0"
     fit-margin-bottom="0"
     inkscape:window-width="1920"
     inkscape:window-height="1001"
     inkscape:window-x="-9"
     inkscape:window-y="-9"
     inkscape:window-maximized="1" />
  <metadata
     id="metadata5">
    <rdf:RDF>
      <cc:Work
         rdf:about="">
        <dc:format>image/svg+xml</dc:format>
        <dc:type
           rdf:resource="http://purl.org/dc/dcmitype/StillImage" />
        <dc:title></dc:title>
      </cc:Work>
    </rdf:RDF>
  </metadata>
  <g
     inkscape:label="Layer 1"
     inkscape:groupmode="layer"
     id="layer1"
     transform="translate(155.11946,-130.70804)">
    <g
       id="g24"
       transform="translate(5.2916671,8.3154714)">
      <path
         style="fill:#e7e7e8;stroke-width:0.75"
         d="m -160.37043,199.43155 c -0.0379,-3.74896 -0.0564,-52.58884 -0.0241,-63.78427 l 0.0374,-12.97176 5.0625,0.22176 5.0625,0.22177 0.19748,25.3125 0.19747,25.3125 h 9.73005 9.73005 l 0.19747,-25.3125 0.19748,-25.3125 4.94471,-0.21908 4.94471,-0.21909 0.49279,10.27517 c 0.70294,14.65709 0.58881,65.7254 -0.14949,66.88938 -0.43007,0.67805 -2.08804,0.90721 -5.42602,0.75 l -4.8067,-0.22638 v -8.06344 -8.06344 l -9.9375,7.5e-4 -9.9375,0.001 v 7.06366 c 0,3.88501 -0.20485,7.59751 -0.45524,8.25 -0.34943,0.9106 -1.56968,1.18634 -5.25,1.18634 -4.06138,0 -4.79679,-0.20075 -4.80804,-1.3125 z m 63.11123,-0.52903 c -3.20524,-1.53013 -11.70966,-8.65847 -10.32992,-8.65847 0.18582,0 -0.30471,-1.69112 -1.09008,-3.75805 -1.2796,-3.36762 -1.42795,-5.92473 -1.42795,-24.61387 0,-24.05657 0.37712,-26.28918 5.40545,-32.00168 4.03137,-4.57987 9.311643,-7.11067 14.84455,-7.11489 8.844502,-0.007 14.570617,3.44964 18.595418,11.22453 l 2.481119,4.79288 -0.225765,23.67304 c -0.21606,22.65458 -0.296032,23.8043 -1.858957,26.7242 -1.838213,3.43419 -6.41598,7.8497 -10.128533,9.76954 -1.361977,0.70431 -4.672762,1.4166 -7.357305,1.58288 -4.08423,0.25298 -5.538337,-0.0115 -8.908027,-1.62011 z m 12.584603,-10.40157 c 0.994147,-0.48505 2.512897,-1.83401 3.375,-2.9977 1.48434,-2.00361 1.579957,-3.19659 1.803345,-22.5 0.260407,-22.50164 -0.07043,-24.98814 -3.664838,-27.54761 -4.536135,-3.23001 -10.22358,-2.55277 -14.17431,1.68784 -1.459432,1.56652 -1.52175,2.56205 -1.52175,24.30945 v 22.67603 l 1.937183,2.30222 c 3.064162,3.64154 7.490452,4.38969 12.24537,2.06977 z m 25.90071,11.27978 c -0.21852,-0.56946 -0.29853,-14.84505 -0.177788,-31.72353 l 0.219525,-30.68815 2.25,-4.06717 c 2.255888,-4.0778 6.455317,-7.83005 10.3125,-9.21436 1.134375,-0.40711 2.0625,-1.00373 2.0625,-1.32581 0,-0.86685 8.8851,-0.0874 12.54507,1.1005 1.74354,0.56591 4.344165,1.92444 5.77917,3.01897 l 2.609093,1.99006 2.656815,-2.02645 c 8.471887,-6.46183 20.4861295,-5.26088 27.8731345,2.78622 5.1705525,5.63259 5.1617175,5.56414 5.1617175,39.98804 v 30.75 l -5.0625,0.22177 -5.0625,0.22177 v -28.81552 c 0,-15.84854 -0.214995,-29.89049 -0.477765,-31.20434 -0.6416925,-3.20846 -4.209675,-6.62518 -7.5784575,-7.25716 -3.62655,-0.68034 -8.2392075,0.98457 -10.2508345,3.69998 -1.514505,2.04436 -1.580723,3.15633 -1.942943,32.625 l -0.375,30.5085 -5.0625,0.22177 -5.0625,0.22176 v -29.68914 c 0,-27.82758 -0.09056,-29.86666 -1.444327,-32.52026 -1.853183,-3.63253 -6.221355,-5.77639 -10.235295,-5.02336 -2.969371,0.55705 -6.617235,2.88165 -7.596413,4.84081 -0.32943,0.65913 -0.767715,14.86717 -0.973965,31.57342 l -0.375,30.375 -4.697205,0.22354 c -3.461857,0.16475 -4.801702,-0.0488 -5.094532,-0.81186 z M 22.64285,161.76024 v -39.01619 h 14.19603 14.196038 l 0.513862,4.11286 c 0.810195,6.48454 0.953265,6.38714 -9.382395,6.38714 H 33.14285 v 20.25 20.25 h 9.375 9.375 v 5.25 5.25 h -9.375 -9.375 v 2.625 2.625 h 9.407857 9.407858 l -0.220358,5.4375 -0.220357,5.4375 -14.4375,0.20369 -14.4375,0.2037 z m 38.08764,38.57145 c -0.2268,-0.2268 0.846548,-2.84514 2.38521,-5.81854 5.000918,-9.66402 4.77387,-19.20459 -0.851227,-35.7691 -2.896635,-8.52985 -3.186473,-10.05734 -3.21513,-16.94398 -0.03052,-7.33671 0.05797,-7.74523 2.883772,-13.3125 l 2.915257,-5.74352 h 5.522243 c 3.03723,0 5.522235,0.22347 5.522235,0.49661 0,0.27313 -0.84009,1.93011 -1.866863,3.68217 -2.222182,3.79186 -4.135184,10.7046 -4.12788,14.9163 0.006,3.51842 2.525431,14.53833 4.102185,17.94357 2.213573,4.78053 4.407781,15.08328 4.331086,20.33635 -0.08303,5.68687 -1.923435,11.95949 -5.098635,17.37757 l -1.903126,3.24743 h -5.093385 c -2.801362,0 -5.278942,-0.18556 -5.505742,-0.41236 z m 33.16236,-33.27052 v -33.7514 l -5.4375,-0.22036 -5.4375,-0.22036 -0.221963,-5.07094 -0.221954,-5.07094 30.596957,0.19594 30.59696,0.19594 v 4.875 4.875 l -19.67979,0.19993 -19.67978,0.19995 -0.19522,33.55005 -0.19521,33.55007 -5.0625,0.22177 -5.0625,0.22177 z m 19.67878,4.26094 0.19622,-29.45306 14.79424,-0.20329 14.79426,-0.2033 0.4426,1.76345 c 0.24342,0.9699 0.33601,3.25514 0.20574,5.0783 l -0.23684,3.31484 -9.5625,0.20991 -9.5625,0.2099 v 4.45519 4.45519 l 9.5625,0.2099 9.5625,0.20991 v 4.875 4.875 l -9.5625,0.20991 -9.5625,0.2099 v 9.03425 9.03423 l 3.1875,-0.1262 c 1.75312,-0.0694 6.15541,-0.0949 9.78286,-0.0566 l 6.59536,0.0695 -0.22036,5.4375 -0.22036,5.4375 -15.19622,0.20306 -15.19622,0.20306 0.19622,-29.45306 z m 52.61959,27.62549 c -4.75591,-2.21451 -8.99777,-6.38179 -11.08133,-10.88651 -1.54087,-3.3314 -1.59204,-4.43045 -1.59204,-34.19204 v -30.75 h 5.25 5.25 l 0.375,30.5085 c 0.36253,29.49425 0.42725,30.57886 1.94663,32.625 4.60344,6.19938 15.60111,3.81528 17.10582,-3.70823 0.24615,-1.23077 0.44755,-15.18933 0.44755,-31.01902 v -28.78125 h 5.16869 c 4.91168,0 5.19251,0.0949 5.6476,1.90808 0.26339,1.04945 0.4464,14.74337 0.40669,30.43092 -0.0786,31.05135 -0.14316,30.54066 4.2216,33.40055 2.67561,1.75314 8.10087,1.63575 10.64664,-0.23036 4.61062,-3.37971 4.65633,-3.73371 4.65762,-36.07169 l 10e-4,-29.4375 h 5.25 5.25 l 0.0499,7.6875 c 0.1784,27.48645 -0.22554,52.34249 -0.89148,54.85585 -1.66959,6.30133 -5.54137,10.59552 -12.18925,13.51908 -7.12575,3.13373 -12.64733,2.48167 -19.40417,-2.29149 l -3.56,-2.51485 -3.39515,2.59157 c -5.9614,4.55044 -13.02216,5.4008 -19.56148,2.35589 z"
         id="path56" />
      <path
         style="fill:#d9d9da;stroke-width:0.75"
         d="m -160.35715,161.70978 v -39.03426 l 5.0625,0.22176 5.0625,0.22177 v 25.31268 25.31268 l 10.28385,-1.8e-4 10.28385,-1.8e-4 -0.0225,-14.8125 c -0.0124,-8.14688 5.3e-4,-19.62188 0.0286,-25.5 l 0.0512,-10.6875 h 4.88175 4.88175 l -0.19425,38.8125 -0.19425,38.8125 -4.6875,0.22329 -4.6875,0.22328 -0.11492,-3.97328 c -0.0632,-2.18531 -0.0292,-5.91391 0.0757,-8.28579 l 0.19061,-4.3125 -10.38818,-10e-4 -10.38818,-0.001 0.24008,7.17398 c 0.15994,4.77957 -0.0584,7.53368 -0.65433,8.25168 -0.59194,0.71288 -2.38517,1.07734 -5.30258,1.07734 h -4.40817 z m 64.619348,37.60197 c -4.997088,-1.72573 -10.840938,-7.27355 -12.679938,-12.03762 -1.14767,-2.97312 -1.31441,-6.25934 -1.31441,-25.90508 0,-21.89535 0.0464,-22.60078 1.72591,-26.25 3.60565,-7.83416 10.475308,-12.39956 18.52409,-12.31061 7.977225,0.0881 14.297692,3.76847 18,10.48113 l 2.25,4.07948 0.228368,22.74593 c 0.199259,19.84652 0.06517,23.23733 -1.052078,26.60099 -1.77363,5.3399 -7.53687,11.01033 -12.949912,12.74136 -5.07123,1.62173 -7.7016,1.59166 -12.73203,-0.14558 z m 10.824134,-10.60085 c 5.377095,-2.60301 5.556931,-3.49203 5.553713,-27.4552 -0.0023,-19.39275 -0.107512,-21.05839 -1.466835,-23.28774 -2.78439,-4.56655 -8.53011,-5.98698 -13.54206,-3.3478 -4.976573,2.62054 -5.235825,3.96707 -5.237137,27.20048 -0.0015,20.27468 0.03397,20.75414 1.701285,23.25 1.766602,2.64444 5.85555,5.17022 8.373262,5.17225 0.797888,6.4e-4 2.875883,-0.68876 4.617772,-1.53199 z m 26.132551,11.051 c -0.222495,-0.57983 -0.302505,-14.85542 -0.177788,-31.72354 0.252585,-34.16337 -0.01305,-32.36184 5.706682,-38.7068 6.893258,-7.6468 18.682876,-8.86617 26.538593,-2.74481 1.522687,1.18652 3.009577,2.1573 3.304207,2.1573 0.29463,0 1.659038,-0.85682 3.032026,-1.90405 8.345152,-6.36516 20.4709495,-5.21154 27.5306245,2.61919 5.5099055,6.11169 5.3646225,5.03425 5.3646225,39.78486 v 31.125 h -4.875 -4.875 l -0.375,-30.375 c -0.3525225,-28.55462 -0.4628475,-30.50473 -1.8408,-32.53982 -2.779755,-4.10538 -9.2986725,-5.41524 -13.673835,-2.74751 -4.378372,2.66969 -4.328047,2.29466 -4.735365,35.28733 l -0.375,30.375 h -4.875 -4.875 l -0.375,-30.40939 c -0.417862,-33.88542 -0.346095,-33.43328 -5.659245,-35.65326 -4.80822,-2.00899 -10.352887,-0.64782 -12.84492,3.15333 -1.253902,1.9126 -1.402822,4.68494 -1.745835,32.50014 l -0.375,30.40918 -4.697205,0.22354 c -3.499777,0.16656 -4.800345,-0.0452 -5.101762,-0.83069 z m 81.939997,0.49818 c -0.283815,-0.28382 -0.51603,-17.84103 -0.51603,-39.01603 v -38.5 h 14.19603 14.196038 l 0.513862,4.11286 c 0.810195,6.48454 0.953265,6.38714 -9.382395,6.38714 H 33.14285 v 20.22692 20.22691 l 9.1875,0.21059 9.1875,0.21058 v 4.875 4.875 l -9.1875,0.21058 -9.1875,0.21059 v 2.60191 2.60192 h 9.407857 9.407858 l -0.220358,5.4375 -0.220357,5.4375 -13.92147,0.20353 c -7.65681,0.11194 -14.153685,-0.0286 -14.4375,-0.3125 z m 37.53588,0.0359 c -0.246457,-0.24645 0.51171,-2.01832 1.6848,-3.9375 5.973353,-9.77235 6.068678,-19.54647 0.359543,-36.8644 -3.210285,-9.73799 -3.584955,-11.58074 -3.583523,-17.625 0.0015,-7.08031 1.486433,-12.30962 4.82715,-17.00123 1.411313,-1.98201 1.859303,-2.12377 6.711187,-2.12377 2.859413,0 5.198933,0.22347 5.198933,0.4966 0,0.27314 -0.811035,1.88055 -1.802302,3.57201 -5.349046,9.12746 -5.339535,17.11568 0.03997,33.55665 3.316778,10.13682 3.518161,11.22013 3.531938,18.99974 0.01553,8.76574 -0.73257,11.81886 -4.45044,18.16292 l -1.882403,3.2121 h -5.093385 c -2.801362,0 -5.295022,-0.20164 -5.541472,-0.4481 z m 33.698093,-0.0519 C 94.11785,199.96905 93.89285,184.79633 93.89285,166.5269 v -33.21713 l -5.4375,-0.22036 -5.4375,-0.22036 -0.221767,-5.0625 -0.221768,-5.0625 h 30.394985 30.39498 l 0.34538,1.6875 c 0.18996,0.92813 0.28077,3.20625 0.20179,5.0625 l -0.1436,3.375 -19.875,0.19917 -19.875,0.19917 0.20315,32.70512 c 0.14723,23.70149 -0.0329,32.98956 -0.65433,33.73833 -0.88158,1.06224 -8.218348,1.48868 -9.173817,0.53321 z m 19.342257,-0.43987 c -0.19837,-0.51692 -0.27214,-13.76379 -0.16396,-29.4375 l 0.1967,-28.49761 14.15281,-0.20438 c 9.80402,-0.14158 14.47074,0.0595 15.1875,0.65433 1.11265,0.92342 1.42127,7.15551 0.43149,8.7132 -0.39246,0.61765 -3.60447,0.98169 -9.92601,1.125 l -9.34579,0.21185 v 4.125 4.125 l 9.34579,0.21185 c 6.32154,0.14331 9.53355,0.50735 9.92601,1.125 0.69258,1.08996 0.79152,6.67473 0.14796,8.35181 -0.38263,0.99712 -2.00141,1.18634 -10.1488,1.18634 h -9.69356 l 0.21129,8.8125 0.21131,8.8125 9.34579,0.21185 c 6.32154,0.14331 9.53355,0.50735 9.92601,1.125 0.91707,1.44327 0.69732,8.39402 -0.2968,9.38815 -1.31084,1.31084 -29.00378,1.27343 -29.50774,-0.0399 z m 53.65774,-0.52651 c -5.02161,-1.72552 -11.18997,-7.87244 -12.59039,-12.5466 -0.64808,-2.16312 -0.90961,-11.79822 -0.90961,-33.51152 V 122.7441 h 4.875 4.875 l 0.1007,15.9375 c 0.0554,8.76563 0.0253,21.84375 -0.0668,29.0625 -0.17515,13.72152 0.22555,16.19394 3.12637,19.29073 4.08593,4.36194 11.90095,3.74709 15.26316,-1.20086 l 1.82659,-2.68807 V 152.945 122.7441 h 5.2256 5.22561 l 0.21189,30.32095 c 0.20462,29.27847 0.26514,30.39372 1.7603,32.4375 0.85162,1.1641 2.80693,2.74198 4.34512,3.5064 3.70797,1.84271 7.28729,1.14134 10.85446,-2.12694 l 2.75202,-2.52143 0.21163,-30.80824 0.21164,-30.80824 h 5.26392 5.26391 l -0.22555,31.3125 -0.22555,31.3125 -2.22479,4.01666 c -1.22363,2.20917 -3.37047,4.96104 -4.77075,6.11528 -3.13306,2.58253 -9.88867,5.24306 -13.31316,5.24306 -3.28802,0 -9.44538,-2.34836 -12.73381,-4.85657 l -2.57888,-1.96701 -2.8143,2.22096 c -3.2066,2.53054 -8.85161,4.6142 -12.40302,4.57813 -1.32621,-0.0134 -4.26754,-0.66232 -6.53629,-1.44191 z"
         id="path54" />
      <path
         style="fill:#c5c5c6;stroke-width:0.75"
         d="m -159.82442,200.27677 c -0.29301,-0.29299 -0.53273,-17.85772 -0.53273,-39.03272 v -38.5 h 4.875 4.875 l 0.0234,6.1875 c 0.0129,3.40313 0.003,14.87812 -0.0227,25.5 l -0.0461,19.3125 h 10.52271 10.52271 v -25.5 -25.5 h 4.88175 4.88175 l -0.19425,38.8125 -0.19425,38.8125 h -4.5 -4.5 l -0.21287,-8.0625 -0.21284,-8.0625 h -10.44926 -10.44925 l -0.21288,8.0625 -0.21287,8.0625 -4.15477,0.22022 c -2.28513,0.12113 -4.39451,-0.0195 -4.6875,-0.3125 z m 65.909238,-0.34343 c -6.054143,-1.47778 -12.889528,-7.71905 -14.559948,-13.29442 -0.59223,-1.97666 -0.88202,-10.44432 -0.88202,-25.77213 v -22.82822 l 1.9412,-3.89549 c 7.551213,-15.15331 28.30423,-15.02504 36.559847,0.22597 1.568941,2.89837 1.623953,3.81307 1.623953,27 v 24 l -1.855155,3.63201 c -4.20123,8.22512 -14.234227,13.02994 -22.827877,10.93228 z m 9.070792,-11.14683 c 5.3778,-2.4416 5.48724,-2.99313 5.48724,-27.65407 0,-20.8561 -0.05992,-21.76231 -1.566225,-23.67723 -4.572217,-5.81264 -13.51983,-5.54612 -17.214135,0.51275 -1.360155,2.23073 -1.464232,3.89654 -1.466835,23.47768 -0.003,20.66589 0.03037,21.12624 1.699643,23.625 1.787782,2.67613 5.880915,5.1817 8.422552,5.15577 0.825,-0.008 2.911995,-0.65637 4.63776,-1.4399 z m 26.67474,11.47755 c -1.499152,-0.63166 -1.331872,-57.91977 0.184027,-63.02435 1.459568,-4.9149 6.341093,-10.44727 11.224898,-12.72147 6.931425,-3.2277 17.2503,-1.64299 21.669653,3.32789 l 1.391077,1.56468 3.670665,-2.52496 c 5.029013,-3.45935 8.289075,-4.39799 13.752075,-3.95947 7.39458,0.59357 13.1506425,4.49542 16.78077,11.37515 l 2.014335,3.81752 0.232688,30.91187 0.232687,30.91187 -1.792845,0.44997 c -0.98607,0.24749 -3.2845275,0.3434 -5.1076875,0.21313 L 2.76785,200.36905 2.39285,169.95966 C 2.05532,142.58878 1.886,139.34919 0.698285,137.53777 c -3.306675,-5.04312 -11.44008,-5.75467 -15.81261,-1.38336 l -2.367825,2.36716 -0.211612,30.728 -0.21162,30.72801 -1.723545,0.43258 c -0.947948,0.23792 -3.215221,0.326 -5.03838,0.19573 l -3.314843,-0.23684 -0.375,-30.40918 c -0.33753,-27.37057 -0.506858,-30.61029 -1.694565,-32.42189 -3.30639,-5.0432 -11.439877,-5.75495 -15.81261,-1.38373 l -2.367825,2.367 -0.375,30.9239 -0.375,30.9239 -4.125,0.14501 c -2.26875,0.0798 -4.546875,-0.0328 -5.0625,-0.25 z m 81.312503,-0.02 C 22.86785,199.96905 22.64285,182.41905 22.64285,161.24405 v -38.5 h 14.25 14.25 l 0.128288,2.8125 c 0.07057,1.54688 0.177637,3.4875 0.237952,4.3125 0.23646,3.23438 -0.15714,3.375 -9.446482,3.375 H 33.14285 v 20.22692 20.22691 l 9.1875,0.21059 9.1875,0.21058 0.236842,3.31484 c 0.490838,6.86967 0.574958,6.81016 -9.62613,6.81016 H 33.14285 v 2.60192 2.60191 l 9.1875,0.21059 9.1875,0.21058 0.234218,3.7003 c 0.480435,7.59 1.312432,7.1747 -14.37351,7.1747 -7.554638,0 -13.96071,-0.225 -14.235705,-0.5 z m 37.746637,-0.0625 c -0.0015,-0.30938 1.263772,-3.06379 2.8125,-6.12092 l 2.81586,-5.55841 -0.03315,-9.44159 c -0.03187,-9.08024 -0.15378,-9.79598 -3.184725,-18.70178 -5.480865,-16.10437 -5.631203,-23.41129 -0.67362,-32.7398 l 2.391502,-4.5 5.51145,-0.22185 c 3.031298,-0.12202 5.393798,0.0467 5.25,0.375 -0.143797,0.32826 -1.387905,2.84095 -2.764687,5.58375 -2.004878,3.99406 -2.576332,6.15913 -2.870385,10.875 -0.386873,6.2044 0.60252,10.89582 5.433278,25.7631 1.675649,5.15701 2.080027,7.80792 2.116537,13.875 0.05107,8.48856 -1.2285,13.32402 -4.848187,18.32085 -2.196023,3.03151 -2.248508,3.05415 -7.082708,3.05415 -2.678662,0 -4.871812,-0.25313 -4.873657,-0.5625 z m 33.536085,0.0952 c -0.293002,-0.293 -0.532725,-15.49523 -0.532725,-33.78273 v -33.25 h -5.169757 c -5.935801,0 -6.080243,-0.1529 -6.080243,-6.43634 v -4.06366 h 30.40927 30.40926 l -0.22176,5.0625 -0.22177,5.0625 -19.67979,0.19993 -19.67978,0.19995 -0.19522,33.55005 -0.19521,33.55007 -4.154775,0.22022 c -2.28513,0.12113 -4.394505,-0.0195 -4.6875,-0.3125 z M 114.30879,199.86 c -0.68893,-0.68894 -0.91594,-7.93884 -0.91594,-29.25166 v -28.33572 l 1.6875,-0.41542 c 0.92813,-0.22849 7.59375,-0.31929 14.8125,-0.20179 l 13.125,0.21364 0.22177,5.0625 0.22177,5.0625 h -9.78427 -9.78427 v 4.5 4.5 h 9.75 9.75 v 5.25 5.25 h -9.75 -9.75 v 9 9 h 9.78286 9.78286 l -0.22036,5.4375 -0.22036,5.4375 -13.89656,0.20344 c -10.17611,0.14897 -14.14178,-0.0418 -14.8125,-0.7125 z m 54.43841,-0.13648 c -1.93635,-0.53698 -4.1301,-1.43755 -4.875,-2.00127 -3.99892,-3.0263 -6.5992,-5.9963 -8.18887,-9.35319 l -1.77582,-3.75 -0.007,-30.9375 -0.007,-30.93751 h 4.875 4.875 v 29.66224 c 0,32.16668 0.005,32.21337 4.1861,35.50182 4.3849,3.44917 11.30017,2.44315 14.34898,-2.08747 l 1.71492,-2.54842 v -30.26408 -30.26409 h 5.25 5.25 v 29.66224 c 0,32.16668 0.005,32.21337 4.1861,35.50182 4.4246,3.48039 11.61173,2.23766 14.5495,-2.51576 1.45333,-2.35156 1.5144,-3.66396 1.5144,-32.54932 v -30.09898 h 5.28844 5.28844 l -0.22594,30.9375 c -0.21689,29.69936 -0.28965,31.07525 -1.81798,34.37954 -5.52783,11.95132 -19.57663,15.85229 -30.36465,8.43144 l -3.8137,-2.62336 -1.62415,1.5258 c -4.19691,3.9428 -12.80416,5.94305 -18.62611,4.32854 z"
         id="path52" />
      <path
         style="fill:#bebec0;stroke-width:0.75"
         d="m -126.04465,200.19277 -3.5625,-0.2809 v -7.83391 -7.83391 h -10.5 -10.5 v 7.875 7.875 h -4.875 -4.875 v -38.625 -38.625 h 4.875 4.875 v 25.5 25.5 h 10.5 10.5 v -25.5 -25.5 h 4.875 4.875 v 38.54476 c 0,34.45591 -0.12585,38.59305 -1.18634,39 -0.65249,0.25038 -1.24311,0.39441 -1.3125,0.32005 -0.0694,-0.0743 -1.72928,-0.26159 -3.68866,-0.41609 z m 100.5,1.3e-4 -2.8125,-0.2894 -0.003,-29.76723 c -0.003,-28.20067 -0.07985,-29.89358 -1.466835,-32.16831 -3.311903,-5.43171 -11.492977,-6.35683 -16.037535,-1.81355 l -2.367825,2.36716 -0.211717,30.76995 -0.211718,30.76996 -5.038282,-0.22122 -5.038088,-0.22121 v -30.375 c 0,-30.12421 0.01425,-30.40596 1.727708,-34.125 2.091667,-4.53996 4.664347,-7.3537 9.147292,-10.00441 2.90367,-1.7169 4.212923,-1.99413 9.375,-1.98511 6.449955,0.0113 9.40227,1.057 13.3125,4.71546 l 2.0625,1.9297 2.0625,-1.9297 c 3.135675,-2.93377 6.73662,-4.47497 11.455305,-4.90284 8.47845,-0.7688 16.08006,3.65317 19.998982,11.63371 l 2.108213,4.29319 v 30.375 30.375 l -5.0625,0.22177 -5.0625,0.22177 -0.003,-29.84677 c -0.003,-28.27957 -0.079673,-29.97285 -1.466835,-32.24786 -1.9049025,-3.12447 -5.106675,-4.72391 -9.4561575,-4.72391 -3.0662105,0 -3.8617045,0.36123 -6.4122455,2.91176 l -2.911762,2.91177 v 30.46323 c 0,29.53029 -0.04406,30.46324 -1.438657,30.46324 -0.791265,0 -1.88814,0.10986 -2.4375,0.24413 -0.549368,0.13427 -2.264468,0.1139 -3.811343,-0.0453 z m 49.5,0.032 c -1.228567,-0.31907 -1.3125,-2.80738 -1.3125,-38.91087 v -38.57001 h 14.25 14.25 v 5.25 5.25 h -9.1875 -9.1875 v 20.25 20.25 h 9.1875 9.1875 v 5.25 5.25 h -9.1875 -9.1875 v 2.625 2.625 h 9.1875 9.1875 v 5.25 5.25 H 39.204193 c -6.566266,0 -12.38814,0.12863 -12.9375,0.28586 -0.549368,0.15721 -1.589468,0.13247 -2.311343,-0.055 z m 37.276575,-0.28898 c -0.167183,-0.27052 0.94962,-2.93519 2.481787,-5.92148 2.6169,-5.10051 2.800966,-5.91354 3.036503,-13.41252 0.21864,-6.96078 -0.003,-8.79911 -1.733543,-14.35788 -5.326094,-17.11137 -5.695515,-18.86101 -5.467897,-25.89679 0.194333,-6.00688 0.51558,-7.36235 2.844075,-12 l 2.625,-5.22821 5.51145,-0.22185 c 3.031297,-0.12201 5.393797,0.0467 5.25,0.375 -0.143798,0.32827 -1.4427,2.95344 -2.88645,5.83373 -2.518425,5.02425 -2.622817,5.55712 -2.57121,13.125 0.04927,7.22307 0.320865,8.67583 3.221632,17.23105 4.158143,12.26363 5.168228,18.74646 3.990758,25.61295 -0.912502,5.3213 -4.686825,13.94592 -6.388867,14.59905 -1.524983,0.58519 -9.581888,0.79808 -9.913238,0.26195 z m 55.535925,0.13573 -3,-0.45261 -0.19673,-28.03703 c -0.14074,-20.05862 0.0453,-28.32864 0.65372,-29.06176 0.67391,-0.81202 3.75046,-0.98596 14.82173,-0.83797 l 13.97128,0.18674 0.22177,5.0625 0.22177,5.0625 h -9.78427 -9.78427 v 4.5 4.5 h 9.78427 9.78427 l -0.22177,5.0625 -0.22177,5.0625 -9.5625,0.20991 -9.5625,0.2099 v 8.9776 8.97759 h 9.75 9.75 v 5.25 5.25 h -10.81366 c -5.94751,0 -11.26314,0.1193 -11.8125,0.26511 -0.54936,0.14581 -2.34884,0.0614 -3.99884,-0.1875 z m -214.4823,-1.58671 c -4.29311,-2.19644 -7.81377,-5.81133 -9.85222,-10.1159 -1.74857,-3.69244 -1.77594,-4.10746 -1.78315,-27.04024 l -0.008,-23.29024 1.9412,-3.89549 c 3.7802,-7.58588 11.492048,-11.95345 19.779398,-11.20198 5.40024,0.48967 9.389339,2.52338 13.325407,6.79351 5.025383,5.4519 5.45466,7.96923 5.449808,31.95807 -0.0023,11.75802 -0.334591,21.86598 -0.770198,23.43435 -1.227547,4.41969 -5.28135,9.75174 -9.290632,12.22017 -3.191985,1.96522 -4.50792,2.29829 -9.75,2.46771 -4.882995,0.15781 -6.639218,-0.1005 -9.042285,-1.32996 z m 12.894997,-9.49337 c 5.32674,-2.5277 5.456355,-3.19004 5.459498,-27.89827 l 0.003,-22.02573 -2.911763,-2.91177 c -2.58615,-2.58615 -3.320017,-2.91144 -6.5625,-2.90895 -4.3692,0.003 -7.942695,1.94419 -9.646665,5.23932 -1.027005,1.986 -1.163047,5.33488 -0.973912,23.97393 l 0.21984,21.66546 1.875,2.02986 c 3.661582,3.96401 8.062822,4.95961 12.537697,2.83615 z M 93.89285,166.61905 v -33.375 h -4.78317 c -5.864115,0 -6.628815,-0.74122 -6.320633,-6.12661 l 0.228803,-3.99839 30.22196,-0.19603 30.22197,-0.19605 -0.22197,5.07105 -0.22196,5.07103 -19.6875,0.19995 -19.6875,0.19996 v 33.36254 33.36255 h -4.875 -4.875 z m 71.18,31.51043 c -4.01815,-2.09335 -7.80423,-6.15059 -9.76219,-10.46139 -1.27389,-2.80471 -1.38619,-5.52818 -1.40134,-33.98654 l -0.0165,-30.9375 h 4.875 4.875 l 0.003,29.8125 c 0.003,28.22719 0.0805,29.93995 1.4642,32.20925 4.05261,6.64647 13.44393,7.10118 17.26377,0.83589 1.45184,-2.3813 1.51374,-3.71485 1.51642,-32.67014 l 0.003,-30.1875 h 5.22586 5.22587 l 0.21163,30.69029 0.21164,30.69028 1.875,2.03138 c 2.06578,2.23806 5.82186,4.08805 8.30006,4.08805 2.70009,0 6.80369,-2.38468 8.28568,-4.81497 1.31647,-2.15887 1.40884,-4.28533 1.41145,-32.49753 l 0.003,-30.1875 h 5.28844 5.28844 l -0.22594,30.9375 c -0.21689,29.69936 -0.28965,31.07525 -1.81798,34.37954 -5.72785,12.38376 -22.28126,16.0779 -31.89233,7.11724 l -1.98435,-1.85008 -1.39065,1.5642 c -4.50931,5.07211 -16.1467,6.72175 -22.83563,3.23703 z"
         id="path50" />
      <path
         style="fill:#b8b8b9;stroke-width:0.75"
         d="m -160.35715,161.36905 v -38.625 h 4.875 4.875 v 25.5 25.5 h 10.5 10.5 v -25.5 -25.5 h 4.875 4.875 v 38.625 38.625 h -4.875 -4.875 v -7.875 -7.875 h -10.5 -10.5 v 7.875 7.875 h -4.875 -4.875 z m 63.911295,37.71916 c -3.745155,-1.2559 -9.167455,-6.46079 -11.137105,-10.69059 -1.72658,-3.7078 -1.75968,-4.21479 -1.76686,-27.06882 l -0.008,-23.29023 1.9412,-3.89549 c 3.7802,-7.58588 11.492048,-11.95345 19.779398,-11.20198 5.50479,0.49915 9.586627,2.62673 13.441537,7.00614 4.946678,5.61972 5.338493,7.95175 5.333678,31.74543 -0.0023,11.75802 -0.334591,21.86598 -0.770198,23.43436 -1.227885,4.4209 -5.281267,9.75175 -9.291757,12.22016 -3.161506,1.94587 -4.506705,2.29305 -9.375,2.41953 -3.12612,0.0812 -6.792525,-0.22412 -8.147565,-0.67851 z m 11.626402,-10.09663 c 5.32674,-2.5277 5.456355,-3.19004 5.459498,-27.89827 l 0.003,-22.02573 -3.001778,-3.00178 c -2.952465,-2.95246 -3.076275,-2.99639 -7.536045,-2.6738 -3.875625,0.28034 -4.883085,0.67665 -6.935722,2.72838 l -2.401455,2.40041 -0.218445,22.34615 c -0.215618,22.05779 -0.197123,22.37325 1.433482,24.44623 3.705203,4.71039 8.315205,5.99528 13.19766,3.67841 z m 26.434478,5.93997 c -0.0153,-2.78437 -0.03008,-16.60933 -0.03285,-30.72212 -0.0045,-24.7207 0.0549,-25.7989 1.632338,-29.46576 5.249849,-12.20359 22.031909,-15.8655 31.61583,-6.89868 l 2.0625,1.92969 2.0625,-1.92969 c 3.135675,-2.93377 6.73662,-4.47497 11.4553045,-4.90284 8.3439375,-0.7566 16.0896,3.65907 19.8303975,11.30499 l 1.939628,3.96445 0.0083,27.70373 c 0.0045,15.23705 -0.0038,29.1381 -0.0189,30.89123 l -0.02725,3.1875 h -4.875 -4.875 v -29.66224 c 0,-32.42641 0.006,-32.3793 -4.41696,-35.52863 -1.5440475,-1.09945 -3.3423525,-1.55913 -6.099555,-1.55913 -3.541867,0 -4.18407,0.27412 -6.821723,2.91176 l -2.911762,2.91177 v 30.46323 30.46324 h -5.25 -5.25 l -0.003,-29.8125 c -0.003,-28.24559 -0.07975,-29.9387 -1.466835,-32.21359 -2.1087,-3.45839 -5.460487,-4.96951 -10.045545,-4.52895 -3.136477,0.30138 -4.182428,0.8155 -6.250793,3.07247 l -2.483827,2.71054 v 30.38601 30.38602 h -4.875 -4.875 z m 81.027825,-33.5625 v -38.625 h 14.25 14.25 v 5.25 5.25 h -9.1875 -9.1875 v 20.25 20.25 h 9.1875 9.1875 v 5.25 5.25 h -9.1875 -9.1875 v 2.625 2.625 h 9.1875 9.1875 v 5.25 5.25 h -14.25 -14.25 z M 61.0064,199.4659 c 0.143798,-0.32827 1.439783,-2.94633 2.879963,-5.81791 2.412217,-4.80971 2.638065,-5.84378 2.866552,-13.125 0.215678,-6.87267 -0.01087,-8.73571 -1.736243,-14.27894 -5.326094,-17.11137 -5.695515,-18.86101 -5.467897,-25.89679 0.194333,-6.00688 0.51558,-7.36235 2.844075,-12 l 2.625,-5.22821 5.51145,-0.22185 c 3.031297,-0.12202 5.378648,0.0467 5.21634,0.375 -5.824582,11.77988 -5.479972,10.57908 -5.444573,18.97185 0.03068,7.26829 0.280395,8.59647 3.241538,17.23973 5.675738,16.56691 5.837692,25.84339 0.622132,35.63527 l -2.396887,4.5 -5.51145,0.22185 c -3.031297,0.12202 -5.393797,-0.0467 -5.25,-0.375 z m 32.88645,-32.81258 v -33.34073 l -5.0625,-0.22177 -5.0625,-0.22177 -0.221767,-5.0625 -0.221768,-5.0625 h 30.068535 30.06853 l -0.22176,5.0625 -0.22177,5.0625 -19.6875,0.19995 -19.6875,0.19996 v 33.36254 33.36255 h -4.875 -4.875 z m 20,32.84073 c -0.7145,-0.7145 -0.62151,-56.33638 0.0949,-56.77917 0.58151,-0.35939 14.25936,-0.65935 24.34257,-0.53385 l 5.0625,0.063 v 4.875 4.875 h -9.75 -9.75 v 4.5 4.5 h 9.78427 9.78427 l -0.22177,5.0625 -0.22177,5.0625 -9.5625,0.20991 -9.5625,0.2099 v 8.9776 8.97759 h 9.75 9.75 v 5.25 5.25 h -14.5 c -7.975,0 -14.725,-0.225 -15,-0.5 z m 51.625,-1.11756 c -3.9958,-2.06618 -6.83582,-4.79204 -9.25441,-8.88244 l -1.99559,-3.375 -0.21816,-31.6875 -0.21816,-31.6875 h 4.88152 4.88153 l 0.21163,30.80824 0.21164,30.80824 2.75202,2.52143 c 4.99763,4.57888 11.93442,4.08957 15.42355,-1.08796 1.69617,-2.51693 1.69943,-2.5799 1.69943,-32.78586 v -30.26409 h 5.22586 5.22587 l 0.21163,30.69029 0.21164,30.69028 1.875,2.00597 c 2.39121,2.55825 5.38253,4.11346 7.91191,4.11346 3.05262,0 7.1117,-2.25326 8.67383,-4.81497 1.31648,-2.15887 1.40884,-4.28533 1.41146,-32.49753 l 0.003,-30.1875 h 5.28844 5.28844 l -0.22594,30.9375 c -0.21689,29.69936 -0.28965,31.07525 -1.81798,34.37954 -5.72785,12.38376 -22.28126,16.0779 -31.89233,7.11724 -1.95006,-1.81811 -2.00689,-1.82517 -3.28863,-0.40886 -0.71736,0.79266 -3.01254,2.29247 -5.1004,3.33289 -4.98557,2.48442 -12.86182,2.60867 -17.3766,0.27413 z"
         id="path48" />
      <path
         style="fill:#a6a6a7;stroke-width:0.75"
         d="m -160.35715,161.36905 v -38.625 h 4.875 4.875 v 25.5 25.5 h 10.5 10.5 v -25.5 -25.5 h 4.875 4.875 v 38.625 38.625 h -4.875 -4.875 v -7.875 -7.875 h -10.5 -10.5 v 7.875 7.875 h -4.875 -4.875 z m 63,37.0661 c -4.53066,-2.04848 -8.06112,-5.52935 -10.20952,-10.0661 -1.74468,-3.68423 -1.77595,-4.14562 -1.78315,-26.3039 -0.008,-25.80926 0.30648,-27.6773 5.54731,-32.91108 4.653385,-4.64712 8.057635,-6.03945 14.69536,-6.01039 6.835155,0.0299 10.371533,1.64516 14.923208,6.81614 5.115817,5.81187 5.465977,8.0695 5.190157,33.46362 l -0.238365,21.94561 -2.21172,3.99266 c -2.528693,4.56488 -6.365932,7.90294 -10.93983,9.51671 -4.488015,1.58346 -10.911457,1.3933 -14.97345,-0.44327 z m 12.382665,-9.27096 c 1.421467,-0.59394 3.26562,-2.19706 4.098112,-3.5625 1.427251,-2.34099 1.513778,-3.7394 1.516418,-24.50838 l 0.0028,-22.02573 -2.911762,-2.91177 c -2.693056,-2.69305 -3.229058,-2.91176 -7.136018,-2.91176 -3.763537,0 -4.529782,0.2799 -7.025737,2.5664 l -2.801483,2.56641 -0.218445,22.41811 c -0.215647,22.13193 -0.197347,22.44493 1.433483,24.5182 3.627585,4.61173 8.077432,5.92561 13.042627,3.85102 z m 26.617335,-20.14788 v -30.97774 l 1.941203,-3.89549 c 5.837835,-11.715 20.382652,-14.94522 30.555885,-6.78605 l 2.872087,2.30348 2.002913,-1.87261 c 3.161092,-2.95544 6.814477,-4.46149 11.791927,-4.86103 8.2227675,-0.66005 16.354755,4.29764 19.918178,12.14314 1.27389,2.80471 1.386187,5.52818 1.401337,33.98654 l 0.01647,30.9375 h -4.875 -4.875 v -29.66224 c 0,-32.19341 -0.00225,-32.21064 -4.21116,-35.52153 -1.469295,-1.15575 -3.06882,-1.56623 -6.1032225,-1.56623 -3.7766695,0 -4.3495955,0.23751 -7.0238555,2.91176 l -2.911762,2.91177 v 30.46323 30.46324 h -5.25 -5.25 v -29.66224 c 0,-32.19341 -0.0023,-32.21064 -4.21116,-35.52153 -1.469295,-1.15575 -3.06882,-1.56623 -6.103223,-1.56623 -3.776669,0 -4.349595,0.23751 -7.023855,2.91176 l -2.911762,2.91177 v 30.46323 30.46324 h -4.875 -4.875 z m 81,-7.64726 v -38.625 h 14.25 14.25 v 5.16027 5.16028 l -3.9375,-0.0257 c -2.165625,-0.0141 -6.389347,0.0263 -9.386048,0.0897 l -5.448539,0.11537 0.04733,20.25 0.04733,20.25 h 9.338715 9.338715 v 5.25 5.25 h -9.375 -9.375 v 2.625 2.625 h 9.375 9.375 v 5.25 5.25 h -14.25 -14.25 v -38.625 z M 61.0064,199.4659 c 0.143798,-0.32827 1.363673,-2.79173 2.71083,-5.47435 4.66368,-9.28686 4.71147,-18.86139 0.158902,-31.83515 -3.78945,-10.79906 -4.659787,-15.27058 -4.332742,-22.26035 0.259013,-5.53574 0.67728,-7.219 2.888662,-11.625 l 2.585798,-5.152 5.51145,-0.22185 c 3.031297,-0.12202 5.378648,0.0467 5.21634,0.375 -5.830267,11.79137 -5.481067,10.57103 -5.428657,18.97185 0.04523,7.25423 0.319702,8.7027 3.48156,18.375 1.887832,5.775 3.659265,12.525 3.936502,15 0.708878,6.32832 -0.708022,14.05714 -3.568447,19.46499 l -2.398748,4.53501 -5.51145,0.22185 c -3.031297,0.12202 -5.393797,-0.0467 -5.25,-0.375 z m 32.88645,-32.81258 v -33.34073 l -5.0625,-0.22177 -5.0625,-0.22177 -0.221767,-5.0625 -0.221768,-5.0625 h 30.068535 30.06853 l -0.22176,5.0625 c -0.22119,5.0492 -0.22768,5.06277 -2.47177,5.16638 -1.2375,0.0571 -10.09688,0.14151 -19.6875,0.1875 l -17.4375,0.0836 v 33.375 33.375 h -4.875 -4.875 z m 20.25,4.46573 v -28.875 h 14.625 14.625 v 4.875 4.875 h -9.75 -9.75 v 4.5 4.5 h 9.78427 9.78427 l -0.22177,5.0625 -0.22177,5.0625 -9.5625,0.20991 -9.5625,0.2099 v 8.9776 8.97759 h 9.75 9.75 v 5.25 5.25 h -14.625 -14.625 z m 51.36954,27.11152 c -3.87275,-1.80345 -7.60041,-5.44321 -9.91802,-9.68415 -1.19884,-2.19373 -1.34752,-5.47733 -1.54468,-34.11487 l -0.21816,-31.6875 h 4.88152 4.88153 l 0.21163,30.80824 0.21164,30.80824 2.77586,2.54328 c 1.52672,1.3988 3.63831,2.75973 4.69243,3.0243 3.04542,0.76435 7.02246,-0.33532 9.62737,-2.662 l 2.40434,-2.14754 0.375,-30.99976 0.375,-30.99976 5.0625,-0.22177 5.0625,-0.22176 v 29.85846 c 0,27.48531 0.10892,30.06157 1.37045,32.41383 3.51977,6.56299 13.52781,6.93994 17.36033,0.65388 1.45191,-2.38143 1.51373,-3.71475 1.51642,-32.70441 l 0.003,-30.22176 5.0625,0.22176 5.0625,0.22177 v 30.75 c 0,34.33271 0.14003,33.30399 -5.36463,39.40986 -7.1452,7.9256 -19.49959,9.05909 -27.17075,2.49286 -2.85394,-2.44286 -2.91956,-2.45875 -4.22046,-1.02127 -4.66595,5.15581 -15.35185,6.80862 -22.49963,3.48007 z"
         id="path46" />
      <path
         style="fill:#909092;stroke-width:0.75"
         d="m -160.35715,161.36905 v -38.625 h 4.86515 4.86516 l 0.19734,25.6875 0.19735,25.6875 h 10.125 10.125 l 0.19735,-25.6875 0.19735,-25.6875 h 4.86515 4.86515 v 38.625 38.625 h -4.875 -4.875 v -7.875 -7.875 h -10.5 -10.5 v 7.875 7.875 h -4.875 -4.875 z m 63.375,37.26398 c -4.27566,-2.00536 -7.59066,-5.01335 -9.95221,-9.03053 l -2.04779,-3.48345 -0.23071,-22.875 c -0.15399,-15.26705 0.0483,-23.87276 0.6083,-25.875 2.91882,-10.43654 15.100265,-16.95338 25.335238,-13.55386 4.804282,1.59572 9.968947,6.11424 12.259889,10.72607 1.754551,3.53202 1.777283,3.87521 1.777283,26.82779 0,22.11705 -0.07758,23.41773 -1.59204,26.69204 -1.92831,4.16906 -5.779088,8.15585 -9.73041,10.07409 -4.241228,2.059 -12.56139,2.31114 -16.42755,0.49785 z m 11.898165,-9.42309 c 1.361242,-0.56877 3.206647,-1.96428 4.10091,-3.10115 1.584203,-2.01398 1.625925,-2.63314 1.625925,-24.12813 0,-23.6122 -0.247612,-25.36219 -3.862305,-27.29671 -5.405625,-2.89301 -10.414237,-2.1911 -14.069182,1.97166 l -2.318513,2.64063 v 21.82288 c 0,20.53645 0.0887,21.9664 1.504673,24.25749 2.686455,4.34677 8.026424,5.91914 13.018492,3.83333 z m 26.726835,-20.19363 v -30.97774 l 1.933313,-3.87966 c 5.611837,-11.26149 20.121854,-14.74661 30.000825,-7.20582 l 3.315862,2.53105 3.315863,-2.53105 c 10.558057,-8.05915 26.374837,-3.27718 30.818505,9.31751 0.916875,2.5987 1.115632,8.55672 1.115632,33.44275 v 30.2807 H 7.291985 2.44112 L 2.229485,169.29261 2.01785,138.59116 -0.1964275,136.28064 c -4.8371925,-5.04743 -12.3664495,-4.38434 -16.3826395,1.44279 -1.152323,1.67191 -1.278083,4.8302 -1.278083,32.09677 v 30.24239 l -5.0625,-0.22177 -5.0625,-0.22177 -0.375,-30.514 -0.375,-30.514 -2.207362,-2.30325 c -4.845728,-5.0562 -12.36945,-4.39717 -16.389555,1.43563 -1.152263,1.67183 -1.278083,4.82822 -1.278083,32.0625 v 30.20812 h -4.875 -4.875 z m 81,-7.64726 v -38.625 h 14.25 14.25 v 4.85192 4.85191 l -9.1875,0.21059 -9.1875,0.21058 v 20.625 20.625 l 9.1875,0.21058 9.1875,0.21059 v 4.85191 4.85192 h -9.375 -9.375 v 2.625 2.625 h 9.375 9.375 v 5.25 5.25 h -14.25 -14.25 z m 38.368935,38.09685 c 0.14676,-0.32827 1.354718,-2.68357 2.68434,-5.23402 4.99134,-9.57421 4.811873,-18.04646 -0.735825,-34.73783 -2.877457,-8.65742 -3.11889,-10.00648 -3.154207,-17.625 -0.0369,-7.964 0.05272,-8.432 2.586757,-13.5 l 2.625,-5.25 5.51145,-0.22185 c 3.031297,-0.12202 5.378648,0.0467 5.21634,0.375 -5.833995,11.79892 -5.48181,10.56574 -5.41815,18.97185 0.05393,7.11771 0.36021,8.79736 3.185213,17.4666 5.550097,17.03184 5.71566,25.16419 0.713227,35.0334 l -2.471002,4.875 -5.504985,0.22185 c -3.02775,0.12202 -5.384918,-0.0467 -5.238158,-0.375 z M 93.89285,166.70652 v -33.28753 l -1.6875,-0.45222 c -0.928125,-0.24873 -3.290625,-0.45685 -5.25,-0.46248 l -3.5625,-0.0102 v -4.875 -4.875 h 30 30 v 4.86255 4.86254 l -19.6875,0.19996 -19.6875,0.19995 -0.19522,33.5625 -0.19522,33.5625 H 98.760125 93.89285 Z m 20.25,4.41253 v -28.875 h 14.625 14.625 v 4.875 4.875 h -9.75 -9.75 v 4.5 4.5 h 9.78427 9.78427 l -0.22177,5.0625 -0.22177,5.0625 -9.375,0.12001 -9.375,0.12003 -0.21059,9.06747 -0.21058,9.06749 h 9.77308 9.77309 v 5.25 5.25 h -14.625 -14.625 z m 51.14903,26.9338 c -2.14251,-1.06766 -5.05921,-3.30076 -6.48154,-4.96244 -4.81211,-5.62186 -4.91749,-6.4813 -4.91749,-40.10496 v -30.2414 h 4.875 4.875 v 30.09898 c 0,28.86841 0.0618,30.19898 1.51182,32.54515 4.19396,6.78596 14.44818,6.11036 18.17452,-1.19744 1.18242,-2.31889 1.31144,-5.46544 1.3125,-32.00919 l 10e-4,-29.4375 h 4.875 4.875 v 30.09898 c 0,28.86841 0.0618,30.19898 1.51182,32.54515 3.82386,6.18713 13.50376,6.30715 17.21896,0.21351 1.45183,-2.3813 1.51373,-3.71485 1.51642,-32.67014 l 0.003,-30.1875 h 4.875 4.875 v 30.47548 c 0,21.18904 -0.26876,31.37255 -0.88202,33.41939 -1.22638,4.09331 -6.21556,9.486 -10.71441,11.58094 -6.94707,3.23498 -17.24975,1.64266 -21.692,-3.35259 l -1.41343,-1.58939 -2.83133,2.24246 c -6.16892,4.88587 -14.80924,5.90043 -21.56778,2.53251 z"
         id="path44" />
      <path
         style="fill:#7d7d80;stroke-width:0.75"
         d="m -160.35715,161.36905 v -38.625 h 4.875 4.875 v 25.875 25.875 h 10.5 10.5 v -25.875 -25.875 h 4.875 4.875 v 38.625 38.625 h -4.875 -4.875 v -7.875 -7.875 h -10.5 -10.5 v 7.875 7.875 h -4.875 -4.875 z m 64.310978,37.55494 c -5.910498,-2.10925 -10.774698,-7.36158 -12.553278,-13.55494 -0.58896,-2.05084 -0.78579,-10.11869 -0.62211,-25.5 0.22777,-21.40612 0.31836,-22.64585 1.86336,-25.5 1.92798,-3.56164 6.40206,-7.96925 9.85387,-9.70748 9.065415,-4.56504 21.086835,-0.16503 26.239665,9.60409 l 2.032515,3.85339 v 22.875 c 0,25.75907 -0.14244,26.64524 -5.161717,32.11304 -5.664068,6.1702 -14.220751,8.46896 -21.652305,5.8169 z M -83.78056,188.5416 c 4.898168,-3.27219 5.170943,-4.65084 5.172248,-26.1413 6.37e-4,-10.57031 -0.217508,-20.31211 -0.484778,-21.64844 -0.696165,-3.48083 -4.74405,-7.24587 -8.466322,-7.87475 -2.325203,-0.39283 -3.812348,-0.14673 -6.253125,1.03483 -5.743208,2.78024 -5.794988,3.02678 -5.791808,27.57283 0.003,20.36854 0.09126,21.77937 1.514768,24.11419 2.805645,4.6018 9.702337,6.0201 14.309017,2.94264 z m 25.42341,-19.28585 c 0,-33.60259 -0.0363,-33.2842 4.43421,-38.92863 1.213005,-1.53154 4.002165,-3.77762 6.198128,-4.99128 7.072619,-3.90888 16.825635,-2.71433 22.850475,2.79872 1.606462,1.47 1.61067,1.46906 5.003362,-1.12065 10.044015,-7.66676 24.009015,-4.29931 29.741115,7.17162 l 2.27271,4.5481 v 30.63021 30.63021 h -4.875 -4.875 v -30.3489 -30.34891 l -2.319555,-2.64183 c -3.291795,-3.74913 -7.1240025,-4.7676 -11.56191,-3.07275 -6.145072,2.34682 -5.94426,1.22339 -6.368535,35.62821 l -0.375,30.40918 h -4.875 -4.875 l -0.375,-30.62079 -0.375,-30.62078 -2.75202,-2.52138 c -3.745912,-3.43199 -7.121122,-3.98085 -11.486032,-1.86783 -1.876808,0.90854 -3.828525,2.3784 -4.33716,3.26634 -0.673013,1.1749 -1.026885,9.8842 -1.299788,31.98944 l -0.375,30.375 -4.6875,0.22329 -4.6875,0.22328 z m 81,-7.8867 v -38.625 h 14.25 14.25 v 4.85192 4.85191 l -9.1875,0.21059 -9.1875,0.21058 v 20.625 20.625 l 9.1875,0.21058 9.1875,0.21059 v 4.85191 4.85192 h -9.375 -9.375 v 2.625 2.625 h 9.375 9.375 v 5.25 5.25 h -14.25 -14.25 z m 38.25,38.21114 c 0,-0.26377 0.657533,-1.40301 1.461188,-2.53164 5.339932,-7.49923 6.401714,-19.9549 2.689867,-31.5545 -5.849603,-18.28014 -6.721245,-24.6154 -4.444215,-32.30138 0.663765,-2.24049 2.045835,-5.508 3.071265,-7.26112 l 1.864425,-3.1875 h 5.178735 c 2.848305,0 5.178735,0.17599 5.178735,0.39108 0,0.21509 -0.819502,1.64947 -1.82112,3.1875 -5.383777,8.26705 -5.539627,18.70841 -0.50346,33.73014 5.37645,16.03672 5.534573,24.85698 0.62193,34.69128 l -2.435272,4.875 -5.431035,0.22036 c -2.987078,0.12119 -5.431043,0.005 -5.431043,-0.25922 z m 33,-33.33614 v -33.75 h -5.25 -5.25 v -4.875 -4.875 h 30 30 v 4.875 4.875 h -19.875 -19.875 v 33.75 33.75 h -4.875 -4.875 z m 20.25,4.875 v -28.875 h 14.625 14.625 v 4.875 4.875 h -9.75 -9.75 v 4.47759 4.4776 l 9.5625,0.2099 9.5625,0.20991 0.2227,4.66483 0.2227,4.66483 -9.5977,0.21017 -9.5977,0.21017 -0.21059,9.1875 -0.21058,9.1875 h 9.77308 9.77309 v 5.25 5.25 h -14.625 -14.625 z m 52.78901,27.66213 c -4.26645,-1.51311 -8.57526,-5.40588 -10.79529,-9.75295 l -1.86872,-3.65918 -0.21848,-31.3125 -0.21847,-31.3125 h 4.90597 4.90598 v 30.09898 c 0,28.86841 0.0618,30.19898 1.51182,32.54515 3.11992,5.04813 11.33551,6.37762 15.48114,2.50524 4.03041,-3.76478 4.00704,-3.55778 4.00704,-35.48713 v -29.66224 h 4.875 4.875 l 0.003,30.1875 c 0.002,28.2122 0.095,30.33866 1.41145,32.49753 2.74336,4.49879 9.56502,6.1177 14.1075,3.34797 5.2105,-3.17705 5.07932,-2.29444 5.32271,-35.8112 l 0.21926,-30.2218 h 4.46805 4.46803 l -0.008,30.9375 c -0.007,30.83181 -0.0133,30.95031 -1.75731,34.6875 -2.13266,4.57003 -6.56834,8.70977 -11.24687,10.49652 -6.31548,2.4119 -16.22153,0.45947 -20.24575,-3.99035 l -1.38226,-1.52844 -3.49274,2.46653 c -1.921,1.35659 -4.63998,2.85223 -6.04216,3.32363 -3.41823,1.14921 -9.50243,0.98629 -13.28657,-0.35576 z"
         id="path42" />
      <path
         style="fill:#77777a;stroke-width:0.75"
         d="m -160.35715,161.36905 v -38.625 h 4.875 4.875 v 25.875 25.875 h 10.5 10.5 v -25.875 -25.875 h 4.875 4.875 v 38.625 38.625 h -4.875 -4.875 v -7.875 -7.875 h -10.5 -10.5 v 7.875 7.875 h -4.875 -4.875 z m 63.790177,37.37489 c -4.653867,-1.70689 -10.012067,-7.27285 -11.598027,-12.04773 -1.10904,-3.339 -1.24434,-6.77869 -1.04552,-26.58123 0.25972,-25.8687 0.25413,-25.84267 6.85748,-31.92942 10.085877,-9.29684 25.491822,-5.72831 31.55201,7.30849 1.483777,3.19192 1.56888,4.61585 1.56888,26.25 0,25.53497 -0.01147,25.60279 -5.313465,31.47148 -1.558815,1.72543 -4.207238,3.83827 -5.885378,4.69521 -4.062307,2.07441 -11.67942,2.46772 -16.13598,0.8332 z M -83.78056,188.5416 c 4.930133,-3.29354 5.170942,-4.55337 5.172247,-27.0592 0.0015,-22.13834 -0.27057,-23.72756 -4.584179,-26.79911 -3.319433,-2.36365 -6.7911,-2.62491 -10.57023,-0.79546 -5.80065,2.80804 -5.845928,3.02226 -5.833373,27.59694 0.0081,15.79862 0.263903,22.13398 0.948428,23.48677 2.53398,5.00781 10.02297,6.80616 14.867107,3.57006 z m 25.48047,-19.07426 c 0.03997,-21.43455 0.320738,-31.31348 0.9375,-32.98633 1.655002,-4.48891 5.368553,-8.80617 9.501908,-11.04662 7.190355,-3.89748 17.02347,-2.75396 22.953495,2.66931 1.562175,1.42867 1.606657,1.41905 5.47647,-1.18514 6.352125,-4.27466 10.523167,-4.99953 17.2586695,-2.9993 4.58838,1.3626 9.85164,5.81407 12.3156155,10.41608 1.580212,2.9514 1.630207,3.88326 1.842757,34.34621 l 0.218475,31.3125 H 7.2449075 2.285015 l 0.1183425,-12.9375 c 0.0651,-7.11563 0.089348,-20.82408 0.053925,-30.46324 L 2.39285,139.06758 -0.4567075,136.21802 c -3.737445,-3.73744 -7.04712,-4.3928 -11.7278925,-2.32227 -2.792955,1.23546 -3.767745,2.188 -4.93158,4.81903 -1.347638,3.04656 -1.45038,5.21694 -1.44819,30.59174 0.0015,15.02189 -0.0078,28.08801 -0.02017,29.03582 -0.02145,1.63572 -0.260753,1.71194 -4.710067,1.5 l -4.687538,-0.22329 -0.375,-30.375 c -0.31221,-25.28903 -0.56337,-30.66101 -1.5,-32.08315 -1.251383,-1.90003 -6.429113,-4.67587 -8.67429,-4.65038 -2.477272,0.0281 -7.655355,2.76944 -8.7027,4.60727 -0.76704,1.34597 -1.084792,8.7809 -1.37301,32.12626 l -0.375,30.375 -4.6875,0.22329 -4.6875,0.22328 0.05707,-30.59828 z m 80.94294,-8.09829 v -38.625 h 14.25 14.25 v 4.85192 4.85191 l -9.1875,0.21059 -9.1875,0.21058 v 20.625 20.625 l 9.1875,0.21058 9.1875,0.21059 v 4.85191 4.85192 h -9.375 -9.375 v 2.625 2.625 h 9.375 9.375 v 5.25 5.25 h -14.25 -14.25 z m 40.89675,33.59532 c 5.11008,-9.85258 5.129032,-18.98966 0.0708,-34.13286 -5.238037,-15.68152 -5.43972,-23.03531 -0.894262,-32.60675 l 2.602777,-5.48071 h 5.267797 5.267805 L 73.06118,128.094 c -2.769945,5.30517 -2.792925,5.42289 -2.745293,14.0625 0.04507,8.1701 0.24009,9.27744 3.1326,17.78531 5.379473,15.82287 5.561888,25.14488 0.680918,34.79691 l -2.467958,4.88033 -5.382269,0.22032 -5.382278,0.22031 z m 30.35325,-28.72032 v -33.75 h -5.25 -5.25 v -4.8836 -4.88361 l 29.8125,0.19611 29.8125,0.1961 0.22329,4.6875 0.22328,4.6875 h -19.91078 -19.91079 v 33.75 33.75 h -4.875 -4.875 z m 20.25,4.875 v -28.875 h 14.625 14.625 v 4.875 4.875 h -9.75 -9.75 v 4.47759 4.4776 l 9.5625,0.2099 9.5625,0.20991 0.2227,4.66483 0.2227,4.66483 -9.5977,0.21017 -9.5977,0.21017 -0.21059,9.1875 -0.21058,9.1875 h 9.77308 9.77309 v 5.25 5.25 h -14.625 -14.625 z m 52.69439,27.67629 c -3.83848,-1.41404 -9.05745,-6.32232 -11.0863,-10.42629 -1.39415,-2.82008 -1.49619,-4.87788 -1.70157,-34.3125 l -0.21847,-31.3125 h 4.90597 4.90598 l 0.003,30.1875 c 0.003,28.95529 0.0646,30.28884 1.51642,32.67014 2.96003,4.85502 11.39256,6.10392 15.47373,2.29172 4.03057,-3.7651 4.00685,-3.55477 4.00685,-35.52291 v -29.69802 l 4.6875,0.22328 4.6875,0.22329 0.375,30.375 c 0.28574,23.14435 0.60956,30.78625 1.36036,32.10263 2.59502,4.54982 9.85233,6.02721 14.46623,2.94492 5.15856,-3.44614 5.17094,-3.53322 5.17225,-36.36005 l 10e-4,-29.4375 h 4.5 4.5 l -0.0165,30.9375 c -0.0151,28.32085 -0.13214,31.19123 -1.38403,33.9375 -3.1952,7.00925 -9.27752,11.51381 -16.41171,12.15449 -5.55391,0.49877 -9.78756,-0.68003 -14.00546,-3.89962 l -3.37816,-2.57862 -2.08959,1.74386 c -5.43295,4.53403 -13.89975,6.10298 -20.27019,3.75618 z"
         id="path40" />
      <path
         style="fill:#636366;stroke-width:0.75"
         d="m -160.35715,161.36905 v -38.625 h 4.875 4.875 v 25.875 25.875 h 10.5 10.5 v -25.91079 -25.91078 l 4.6875,0.22328 4.6875,0.22329 v 38.25 38.25 l -4.6875,0.22329 -4.6875,0.22328 v -7.91078 -7.91079 h -10.5 -10.5 v 7.875 7.875 h -4.875 -4.875 z m 64.875,37.7436 c -6.89858,-2.6196 -11.72509,-7.89334 -13.14358,-14.36149 -0.56177,-2.56161 -0.76718,-11.28039 -0.60389,-25.63211 0.28147,-24.73798 0.31399,-24.88432 6.87658,-30.93349 11.30927,-10.42453 29.53472,-4.03463 32.75648,11.48451 0.57522,2.7708 0.76689,10.97501 0.573675,24.55503 -0.322755,22.68428 -0.457785,23.38416 -5.612647,29.08997 -1.509368,1.67068 -4.11732,3.73873 -5.79546,4.59567 -3.583815,1.83007 -11.691878,2.47753 -15.051158,1.20191 z m 11.70159,-10.57105 c 4.928445,-3.29242 5.170943,-4.55872 5.172248,-27.00914 0.0015,-22.1672 -0.265988,-23.77436 -4.449105,-26.75299 -3.477578,-2.47626 -7.39395,-2.77801 -11.15466,-0.85943 -5.302883,2.70532 -5.396513,3.18529 -5.384018,27.59927 0.0081,15.77099 0.264008,22.09964 0.948428,23.45223 2.53398,5.00781 10.02297,6.80615 14.867107,3.57006 z m 25.430738,-19.07426 c 0.0075,-30.49912 0.01305,-30.61045 1.76136,-34.34829 2.104312,-4.49888 7.377135,-9.54747 11.419417,-10.93378 6.619703,-2.27025 13.503653,-1.02129 19.624395,3.56049 l 2.4375,1.82463 2.4375,-1.82463 c 4.72263,-3.5352 7.48437,-4.52741 12.5625,-4.51334 2.7372825,0.008 6.0719775,0.52927 7.60467,1.1897 3.7152525,1.60085 8.65887,6.19992 10.637145,9.89577 1.591658,2.97357 1.638743,3.84741 1.85166,34.36366 l 0.218475,31.3125 H 7.3695725 2.5343375 l -0.054,-30.07191 C 2.4284375,141.02223 2.36675,139.75385 0.89777,137.37699 c -1.6845,-2.72556 -5.497365,-4.88294 -8.62992,-4.88294 -3.007268,0 -6.934665,2.12669 -8.827267,4.77997 -1.654253,2.31913 -1.675156,2.67847 -1.892198,32.53253 l -0.219458,30.1875 h -4.468042 -4.468035 l -0.0165,-29.0625 c -0.0153,-26.94625 -0.120397,-29.2914 -1.44363,-32.206 -1.01058,-2.22592 -2.310585,-3.59418 -4.45365,-4.6875 -3.65961,-1.86699 -6.136875,-1.94625 -9.59157,-0.30689 -5.194155,2.46478 -5.07834,1.71694 -5.49468,35.47871 l -0.375,30.40918 -4.6875,0.22329 -4.6875,0.22328 0.0075,-30.59828 z m 80.992672,-8.09829 v -38.625 h 14.25 14.25 v 4.875 4.875 h -9.375 -9.375 v 21 21 h 9.375 9.375 v 4.875 4.875 h -9.375 -9.375 v 2.625 2.625 h 9.375 9.375 v 5.25 5.25 h -14.25 -14.25 z m 40.958183,33.5943 c 5.270137,-10.31379 5.125537,-18.9287 -0.607725,-36.2064 -2.790353,-8.409 -3.120225,-10.16994 -3.1635,-16.8879 -0.04605,-7.14326 0.08338,-7.77647 2.720399,-13.3125 l 2.768708,-5.8125 h 5.267798 5.267804 l -2.793337,5.35484 c -2.767965,5.30622 -2.792947,5.43393 -2.750812,14.0625 0.0405,8.28699 0.203512,9.17868 3.375,18.45766 3.24558,9.49573 3.332482,9.99449 3.332482,19.125 0,9.26963 -0.03007,9.43401 -2.678198,14.625 l -2.678204,5.25 -5.33175,0.2193 -5.33175,0.21929 z m 30.291817,-28.7193 v -33.75 h -5.25 -5.25 v -4.8836 -4.88361 l 29.8125,0.19611 29.8125,0.1961 0.22329,4.6875 0.22328,4.6875 h -19.91078 -19.91079 v 33.75 33.75 h -4.875 -4.875 z m 20.25,4.875 v -28.875 h 14.66079 14.66078 l -0.22328,4.6875 -0.22329,4.6875 -9.5625,0.20991 -9.5625,0.2099 v 4.45519 4.45519 l 9.5625,0.2099 9.5625,0.20991 0.2227,4.66483 0.2227,4.66483 -9.5977,0.21017 -9.5977,0.21017 -0.21059,9.1875 -0.21058,9.1875 h 9.77308 9.77309 v 5.25 5.25 h -14.625 -14.625 z m 53.48695,27.9262 c -4.56276,-1.76966 -8.82548,-5.45111 -11.11195,-9.59672 l -2.25,-4.07948 -0.21859,-31.34909 -0.21859,-31.3491 4.71859,0.2241 4.71859,0.22409 0.375,30.375 c 0.40732,32.99267 0.35699,32.61764 4.73536,35.28733 4.93692,3.01025 11.84257,1.25145 14.6418,-3.72911 1.58797,-2.82541 1.62284,-3.52656 1.62284,-32.63362 v -29.74617 l 4.6875,0.22328 4.6875,0.22329 0.16585,29.80789 c 0.18307,32.89929 0.19087,32.95599 4.93306,35.84747 5.13005,3.12798 12.18381,0.98518 14.96243,-4.54531 1.18177,-2.35218 1.31145,-5.51844 1.3125,-32.04755 l 10e-4,-29.4375 h 4.5 4.5 v 30.97774 30.97774 l -1.9412,3.89549 c -5.83784,11.715 -20.38265,14.94522 -30.55589,6.78605 l -2.87208,-2.30348 -2.00292,1.87261 c -1.1016,1.02993 -3.18147,2.4683 -4.62193,3.19636 -3.24476,1.64002 -11.554,2.14564 -14.76903,0.89869 z"
         id="path38" />
      <path
         style="fill:#525255;stroke-width:0.75"
         d="m -160.35715,161.36905 v -38.69657 l 4.6875,0.22328 4.6875,0.22329 0.19735,25.6875 0.19735,25.6875 h 10.49015 10.49015 v -25.91079 -25.91078 l 4.6875,0.22328 4.6875,0.22329 v 38.25 38.25 l -4.6875,0.22329 -4.6875,0.22328 v -7.91078 -7.91079 h -10.47376 -10.47376 l -0.21374,7.6875 -0.21374,7.6875 -4.6875,0.22329 -4.6875,0.22328 z m 65.523532,37.8082 c -4.430527,-1.28406 -9.410162,-5.35817 -11.835422,-9.6832 l -2.31311,-4.125 -0.22892,-22.36927 c -0.26021,-25.42661 0.0115,-27.16749 5.15284,-33.00831 5.246388,-5.9602 12.591738,-8.25777 19.748613,-6.17721 5.558385,1.61587 10.064197,5.22242 12.607912,10.09164 l 2.094555,4.00943 -0.0075,23.35186 c -0.0075,22.94153 -0.03833,23.41848 -1.772947,27.14357 -4.037445,8.67048 -14.345693,13.40403 -23.446193,10.76649 z m 12.178493,-11.24538 c 3.955305,-3.69507 4.047975,-4.30314 4.047975,-26.56282 0,-22.37542 -0.155288,-23.36843 -4.145235,-26.50692 -4.318867,-3.39722 -10.21803,-2.95482 -14.240827,1.06798 l -2.613938,2.61394 v 22.68312 c 0,24.97028 -0.0678,24.57805 4.775033,27.62288 3.294277,2.07122 9.476002,1.6051 12.176992,-0.91818 z m 24.314445,-18.50032 c 0.01568,-29.10046 0.08941,-30.72395 1.54104,-33.9375 1.68414,-3.72827 5.980492,-8.55283 9.053415,-10.16648 6.484095,-3.40491 14.490825,-2.78942 20.87925,1.60505 l 3.759825,2.58631 3.741007,-2.57337 c 8.79738,-6.05153 19.300913,-4.8033 26.277758,3.12281 5.061495,5.75017 5.231235,7.06223 5.231235,40.4368 v 29.48888 h -4.5 -4.5 v -29.09108 c 0,-28.69344 -0.0231,-29.13607 -1.6875,-32.38201 -3.7429275,-7.29938 -13.226925,-7.97168 -18.13419,-1.28551 -1.501328,2.04557 -1.560653,3.13107 -1.772775,32.4375 l -0.219458,30.3211 h -4.468042 -4.468035 V 170.6699 c 0,-32.4117 -0.04485,-32.75051 -4.779967,-36.12812 -5.493301,-3.91841 -14.440725,-0.99995 -16.184543,5.27906 -0.473482,1.70488 -0.778762,14.00713 -0.781305,31.48571 l -0.0042,28.6875 h -4.5 -4.5 l 0.0165,-30.5625 z m 80.98353,-8.0625 v -38.625 h 14.25 14.25 v 4.875 4.875 h -9.375 -9.375 v 21 21 h 9.375 9.375 v 4.875 4.875 h -9.375 -9.375 v 2.625 2.625 h 9.375 9.375 v 5.25 5.25 h -14.25 -14.25 z m 41.51808,32.54389 3.10692,-6.08112 -0.0588,-8.35638 c -0.05415,-7.68739 -0.309127,-9.12427 -3.185183,-17.9479 -5.629522,-17.27114 -5.791169,-24.95749 -0.7248,-34.46298 l 2.302771,-4.32051 h 5.076645 5.076637 l -2.596282,5.0625 c -4.829873,9.41779 -4.68867,16.76734 0.632437,32.91714 3.013545,9.14625 3.17925,10.11108 3.202283,18.64536 0.02393,8.85375 -0.02077,9.09446 -2.75124,14.8125 l -2.775533,5.8125 H 66.260398 61.05401 Z m 29.73192,-27.66889 v -33.75 h -5.25 -5.25 v -4.8836 -4.88361 l 29.8125,0.19611 29.8125,0.1961 0.22329,4.6875 0.22328,4.6875 h -19.91078 -19.91079 v 33.75 33.75 h -4.875 -4.875 z m 20.25,4.875 v -28.875 h 14.625 14.625 v 3.68866 c 0,6.23305 0.28909,6.06134 -10.20524,6.06134 h -9.29476 v 4.5 4.5 h 9.29476 c 10.49433,0 10.20524,-0.17171 10.20524,6.06134 v 3.68866 h -9.75 -9.75 v 9.375 9.375 h 9.29476 c 10.32261,0 10.20524,-0.0604 10.20524,5.25 0,5.48002 0.66071,5.25 -15.08024,5.25 h -14.16976 z m 53.78819,27.7971 c -6.18545,-2.20672 -10.75263,-6.77049 -12.95524,-12.94559 -0.78987,-2.21444 -1.02446,-9.60382 -1.05003,-33.0748 l -0.0329,-30.22328 4.6875,0.22328 4.6875,0.22329 0.375,30.375 c 0.40732,32.99267 0.35699,32.61764 4.73536,35.28733 4.68645,2.85753 11.23625,1.51301 14.32219,-2.93999 l 1.94245,-2.80296 v -30.18298 -30.18297 l 4.6875,0.22328 4.6875,0.22329 0.0716,29.62558 c 0.0794,32.85211 0.0967,32.97646 5.02733,36.07434 3.34622,2.1024 9.50644,1.6555 12.22812,-0.8871 4.07729,-3.80901 4.048,-3.5519 4.048,-35.52558 v -29.66224 h 4.53066 4.53066 l -0.21816,31.6875 -0.21816,31.6875 -2.05258,3.49162 c -6.61198,11.24758 -21.72513,13.63951 -31.13997,4.92845 l -1.69255,-1.56603 -2.12687,2.03767 c -4.49234,4.30393 -13.04782,6.05559 -19.07484,3.90539 z"
         id="path36" />
      <path
         style="fill:#464649;stroke-width:0.75"
         d="m -160.35715,161.36905 v -38.69657 l 4.6875,0.22328 4.6875,0.22329 0.19735,25.6875 0.19735,25.6875 h 10.49015 10.49015 v -25.91079 -25.91078 l 4.6875,0.22328 4.6875,0.22329 0.2051,36.75 c 0.1128,20.2125 0.022,37.50937 -0.2018,38.4375 -0.36566,1.51655 -0.8613,1.6875 -4.89259,1.6875 h -4.48571 v -7.875 -7.875 h -10.47376 -10.47376 l -0.21374,7.6875 -0.21374,7.6875 -4.6875,0.22329 -4.6875,0.22328 z m 65.523532,37.8082 c -4.430527,-1.28406 -9.410162,-5.35817 -11.835422,-9.6832 l -2.31311,-4.125 -0.22939,-21.97647 c -0.26435,-25.3256 0.0911,-27.65017 5.09829,-33.3386 7.756233,-8.81154 20.547123,-9.21891 28.847305,-0.91872 5.523608,5.5236 5.624715,6.10197 5.634998,32.23379 0.009,22.85163 -0.02107,23.31496 -1.756478,27.04171 -4.037445,8.67048 -14.345692,13.40403 -23.446193,10.76649 z m 12.693008,-11.87837 3.15846,-2.94517 0.20271,-21.99233 c 0.19278,-20.91542 0.128842,-22.11202 -1.305645,-24.43668 -4.162305,-6.74521 -13.506262,-7.27251 -17.962935,-1.01369 -1.494292,2.09854 -1.558702,3.10488 -1.548892,24.19882 0.006,12.10507 0.198037,22.70852 0.427567,23.56322 0.708495,2.63827 6.099848,5.571 10.241363,5.571 3.186269,0 4.014179,-0.35925 6.787372,-2.94517 z m 23.78346,-17.61765 c 0,-28.94456 0.06982,-30.47643 1.546477,-33.9375 2.728876,-6.39603 8.243573,-10.97974 14.668553,-12.19222 6.281362,-1.18538 10.888395,0.22627 17.89029,5.4818 0.573465,0.43043 2.247548,-0.27302 4.75584,-1.99843 8.697705,-5.98296 19.6087125,-4.77338 26.366175,2.92294 4.957837,5.64667 4.873927,5.0072 5.130472,39.09873 l 0.2328,30.9375 H 7.6881575 3.14285 v -29.4492 c 0,-27.2216 -0.105045,-29.64688 -1.3887075,-32.0625 -4.2124875,-7.92714 -15.0591305,-7.91197 -19.0476305,0.0266 -1.181775,2.35217 -1.31145,5.51844 -1.3125,32.04755 l -0.0012,29.43752 h -4.5 -4.5 l -0.0015,-29.4375 c -0.0015,-32.88735 -0.0015,-32.89026 -5.248837,-36.42689 -4.975605,-3.35363 -12.31185,-1.21952 -15.186338,4.4177 -1.182427,2.31889 -1.311442,5.46544 -1.3125,32.00919 l -8.25e-4,29.4375 h -4.5 -4.5 z m 81.75,-8.31218 v -38.625 h 13.875 13.875 v 4.875 4.875 h -9.375 -9.375 v 21 21 h 9.375 9.375 v 4.875 4.875 h -9.375 -9.375 v 2.625 2.625 h 9.375 9.375 v 5.25 5.25 h -13.875 -13.875 z m 40.831275,32.50061 c 3.031762,-6.10031 3.04341,-6.15706 2.963092,-14.4375 -0.05993,-6.18071 -0.480607,-9.5636 -1.639927,-13.18811 -0.85761,-2.68125 -2.46207,-7.74375 -3.565478,-11.25 -3.588735,-11.40379 -2.47731,-23.6723 2.746073,-30.31276 1.332277,-1.69371 2.082675,-1.93724 5.9694,-1.93724 2.44506,0 4.445565,0.21171 4.445565,0.47047 0,0.25875 -1.03506,2.57296 -2.30013,5.14269 -4.478678,9.09748 -4.241573,17.01609 0.977227,32.63684 2.96916,8.8872 3.133838,9.84517 3.165015,18.41135 0.0327,8.98131 0.01553,9.07154 -2.820585,14.8125 l -2.853464,5.77615 H 66.24566 61.1804 Z M 93.89285,166.27984 v -33.78579 h -5.25 -5.25 v -4.875 -4.875 h 29.57446 c 33.31821,0 30.62007,-0.53788 30.0973,6 l -0.26987,3.375 -19.56823,0.19993 -19.56823,0.19995 -0.19522,33.55005 -0.19521,33.55007 -4.6875,0.22329 -4.6875,0.22328 z m 20.25,4.82302 v -28.8912 l 14.4375,0.2037 14.4375,0.20369 0.23969,2.92851 c 0.13183,1.61068 0.041,3.72005 -0.20179,4.6875 -0.43376,1.72823 -0.60579,1.75899 -9.83798,1.75899 h -9.39649 l 0.22328,4.6875 0.22329,4.6875 h 9.18953 9.18953 l 0.43422,2.31905 c 0.23881,1.27547 0.32228,3.30047 0.18547,4.5 l -0.24875,2.18095 -9.5625,0.20991 -9.5625,0.2099 v 9.3526 9.35259 h 9.29476 c 10.32261,0 10.20524,-0.0604 10.20524,5.25 0,5.48002 0.66071,5.25 -15.08024,5.25 H 114.14285 Z M 168.888,199.2933 c -3.66427,-1.11462 -6.48621,-2.97558 -9.54635,-6.29544 -5.27064,-5.71797 -5.4488,-7.05204 -5.4488,-40.80073 v -29.52465 l 4.6875,0.22328 4.6875,0.22329 0.375,30.85954 c 0.35865,29.51389 0.44033,30.93169 1.87323,32.51428 2.21938,2.45123 5.17911,3.75118 8.5407,3.75118 4.33493,0 6.47996,-1.05553 8.6576,-4.26021 l 1.92847,-2.83799 v -30.2009 -30.2009 h 4.5 4.5 l 0.004,28.6875 c 0.002,16.58052 0.31694,29.81333 0.74525,31.35514 0.40759,1.46719 1.75536,3.63938 2.99505,4.82708 1.82712,1.75049 3.07764,2.21903 6.60311,2.47404 3.88222,0.28081 4.60985,0.0952 6.7777,-1.72892 4.69822,-3.95355 4.62439,-3.37959 4.62439,-35.9526 v -29.66224 h 4.5 4.5 l -0.0571,30.5625 c -0.04,21.40714 -0.3208,31.27787 -0.9375,32.95054 -3.52546,9.56221 -14.29428,15.5404 -23.51391,13.05347 -1.72341,-0.46488 -4.87151,-2.01484 -6.99578,-3.44437 l -3.86231,-2.59914 -2.75422,2.20874 c -4.85856,3.89635 -11.98219,5.46068 -17.38407,3.8175 z"
         id="path34" />
      <path
         style="fill:#3c3c40;stroke-width:0.75"
         d="m -160.35761,161.59234 -4.5e-4,-38.47329 4.68795,0.10667 4.68796,0.10666 0.19735,25.58084 0.19735,25.58083 h 10.49015 10.49015 v -25.6875 -25.6875 h 4.5 4.5 v 38.4375 38.4375 h -4.47463 -4.47462 l -0.21288,-8.0625 -0.21287,-8.0625 h -10.125 -10.125 l -0.375,7.875 -0.375,7.875 -4.6875,0.22329 -4.6875,0.22328 z m 64.020288,36.84093 c -5.209858,-2.00362 -10.267508,-7.44341 -11.838278,-12.73276 -1.66789,-5.61642 -1.72439,-42.85626 -0.0734,-48.41559 3.26471,-10.9935 16.7029,-17.06027 27.03331,-12.2044 4.217895,1.98265 9.541283,7.81254 10.716983,11.73666 0.60291,2.01234 0.8916,10.26591 0.8916,25.49074 v 22.51485 l -2.100135,4.02012 c -3.48993,6.68048 -10.97577,11.22739 -18.29448,11.11208 -1.364213,-0.0215 -4.21521,-0.70626 -6.335558,-1.5217 z m 12.874297,-9.70104 c 4.732088,-2.9246 4.946265,-4.2196 4.700858,-28.42325 l -0.219983,-21.69644 -1.875,-2.0055 c -4.009597,-4.28868 -9.598095,-5.34327 -14.021752,-2.64599 -4.998953,3.04805 -5.077545,3.42854 -5.344678,25.87288 -0.16577,13.92789 0.0326,21.20887 0.633073,23.23269 0.81576,2.74956 3.184545,5.36931 5.933565,6.56221 2.473582,1.07339 7.75854,0.60855 10.193917,-0.8966 z m 25.105875,-19.44392 c 0,-16.88815 0.29391,-30.88738 0.65313,-31.10939 0.35922,-0.22201 0.84225,-1.34929 1.073408,-2.50506 0.590842,-2.9542 5.932845,-8.76009 9.768705,-10.617 2.26611,-1.097 4.69527,-1.56281 8.149957,-1.56281 5.629155,0 9.161378,1.24798 12.951877,4.57609 l 2.652923,2.3293 2.757953,-2.42151 c 3.840157,-3.37171 6.927165,-4.48388 12.445702,-4.48388 7.972875,0 13.8659175,3.7732 18.019695,11.53765 1.625145,3.03781 1.65165,3.58084 1.65165,33.83735 v 30.75 l -4.3125,0.22492 -4.3125,0.22494 -0.0015,-29.47494 C 3.1406,144.02923 3.0107075,140.86135 1.82885,138.509 c -3.85086,-7.66466 -14.424562,-7.99086 -18.940387,-0.5843 -1.420996,2.33061 -1.490475,3.83151 -1.493145,32.25685 l -0.0025,29.8125 h -4.5 -4.5 l -0.003,-29.8125 c -0.003,-28.42534 -0.07215,-29.92624 -1.493145,-32.25685 -4.515825,-7.40656 -15.089528,-7.08036 -18.940387,0.5843 -1.181776,2.35218 -1.311451,5.51844 -1.3125,32.04755 l -9.68e-4,29.4375 h -4.5 -4.5 z m 81.749138,-7.73176 -7.5e-4,-38.4375 13.875862,0.21953 13.875863,0.21952 v 4.46798 4.46797 h -9.375 -9.375 v 21 21 h 9.375 9.375 l 0.0015,4.6875 0.0015,4.6875 -7.617225,-0.2398 C 33.345335,183.30867 32.39285,183.587 32.39285,186.88334 v 2.61071 h 9.375 9.375 v 5.25 5.25 h -13.875 -13.875 l -7.5e-4,-38.4375 z m 39.231532,35.625 c 2.904465,-4.66925 4.38879,-9.27625 4.820213,-14.9608 0.486255,-6.40703 -0.500048,-11.99622 -4.010461,-22.7267 -4.825365,-14.74994 -4.94397,-22.69381 -0.470309,-31.5 l 2.09556,-4.125 5.042835,-0.375 c 2.773559,-0.20625 5.042535,-0.281 5.042159,-0.16611 -3.67e-4,0.11489 -1.000064,2.18869 -2.22156,4.60844 -4.685182,9.28131 -4.457662,17.84162 0.8853,33.30867 3.010313,8.7144 3.153128,9.52967 3.1812,18.16035 0.02918,8.97832 0.01103,9.07346 -2.82408,14.8125 l -2.853464,5.77615 h -5.21844 -5.21844 z m 31.26933,-30.90171 v -33.78579 h -5.25 -5.25 v -4.6875 -4.6875 h 29.625 29.625 v 4.6875 4.6875 h -19.49227 -19.49229 l -0.19521,33.5625 -0.19523,33.5625 -4.6875,0.22329 -4.6875,0.22328 z m 20.25,4.83921 v -28.875 h 14.25 14.25 v 4.85259 4.8526 l -9.5625,0.2099 -9.5625,0.20991 -0.23097,3.62077 c -0.35004,5.48728 0.13466,5.75423 10.4478,5.75423 h 8.90817 v 4.5 4.5 h -9.36071 c -11.03946,0 -10.32426,-0.77906 -9.98355,10.875 l 0.21926,7.5 9.5625,0.20991 9.5625,0.2099 v 5.2276 5.22759 h -14.25 -14.25 z m 52.92893,27.3617 c -4.47615,-1.74772 -8.86896,-5.87793 -11.12928,-10.46397 -1.63785,-3.32308 -1.67961,-4.07332 -1.90032,-34.14773 l -0.22568,-30.75 4.72568,0.10765 4.72567,0.10765 0.15562,17.14235 c 0.0856,9.42829 0.16997,23.13793 0.1875,30.46587 l 0.0319,13.32351 2.56737,2.80149 c 2.50643,2.73497 2.69475,2.80148 7.93263,2.80148 5.23789,0 5.42621,-0.0665 7.93263,-2.80148 l 2.56738,-2.80149 v -30.57351 -30.57352 h 4.5 4.5 l 0.004,28.5 c 0.002,16.45702 0.31732,29.62723 0.74525,31.16764 0.40759,1.46719 1.75536,3.63938 2.99505,4.82708 1.8386,1.76148 3.07188,2.21861 6.69202,2.48047 4.32553,0.31288 4.52041,0.24419 7.68826,-2.70999 l 3.24992,-3.03101 0.375,-30.6171 0.375,-30.61709 h 4.33705 4.33706 l -0.21206,31.125 c -0.19781,29.0342 -0.30963,31.32166 -1.6646,34.05255 -4.16552,8.39542 -14.2375,13.29152 -22.66571,11.01806 -1.71505,-0.46263 -4.84383,-2.02812 -6.95286,-3.47887 l -3.83459,-2.63775 -2.88096,2.3152 c -5.45756,4.38581 -12.66705,5.50246 -19.1594,2.96751 z"
         id="path32" />
      <path
         style="fill:#333337;stroke-width:0.75"
         d="m -160.35872,161.55655 -0.002,-38.4375 4.87658,0.2515 4.87658,0.25149 v 25.43601 25.436 h 10.5 10.5 l -0.001,-25.6875 -0.002,-25.6875 4.50136,0.25412 4.50137,0.25411 v 38.18339 38.18338 h -4.47463 -4.47463 l -0.21287,-8.0625 -0.21287,-8.0625 h -10.125 -10.125 l -0.18809,6.375 c -0.29326,9.93961 -0.18724,9.75 -5.4512,9.75 h -4.48552 l -0.002,-38.4375 z m 65.007753,37.26516 c -2.408175,-0.7692 -4.956333,-2.46006 -7.616873,-5.05427 -6.03673,-5.88623 -6.38931,-7.67406 -6.38931,-32.39839 0,-22.94233 0.44002,-25.74046 4.85988,-30.90406 9.549165,-11.15605 27.218738,-8.49003 33.331215,5.02906 1.42635,3.15469 1.527038,4.87082 1.542435,26.29024 l 0.0165,22.91524 -1.933312,3.87966 c -4.379505,8.78852 -14.59923,13.18472 -23.810505,10.24252 z m 12.019904,-10.0473 c 4.681471,-2.85445 4.811746,-3.65771 4.568303,-28.16837 l -0.21939,-22.08915 -2.758845,-2.75777 c -2.339152,-2.33823 -3.366007,-2.80651 -6.75,-3.07822 -3.284955,-0.26376 -4.455623,-0.008 -6.616155,1.44879 -5.00573,3.37388 -5.24752,4.60741 -5.24884,26.77734 -7.2e-4,12.22402 0.31357,20.82466 0.822205,22.5 1.246455,4.10558 5.238135,6.8377 9.984908,6.83421 2.461319,-0.001 4.66941,-0.52271 6.217814,-1.46683 z m 24.973913,-19.4861 c 0,-17.95527 0.287475,-30.88341 0.692295,-31.1336 0.380768,-0.23532 0.905138,-1.39692 1.165275,-2.58132 0.260138,-1.18439 1.672373,-3.55466 3.138293,-5.26726 6.941287,-8.10934 19.776052,-9.10658 27.696885,-2.15199 l 2.535045,2.2258 3.005422,-2.57253 c 5.594175,-4.7884 14.07618,-5.75654 20.8519275,-2.38005 4.396545,2.1909 7.190235,5.1603 9.4709775,10.06669 1.49136,3.20824 1.580558,4.79884 1.805235,32.19178 0.129998,15.84923 0.03923,29.60235 -0.201788,30.5625 -0.392032,1.56199 -0.870772,1.74572 -4.5488545,1.74572 H 3.14285 v -29.66224 c 0,-32.04363 0.038925,-31.70724 -4.1141625,-35.58776 -1.7079075,-1.59583 -2.72166,-1.875 -6.8087625,-1.875 -4.552522,0 -4.948882,0.14677 -7.627072,2.82434 l -2.825003,2.82433 -0.211635,30.73817 -0.211635,30.73816 h -4.475865 -4.475865 l -0.003,-29.8125 c -0.003,-28.42534 -0.07215,-29.92624 -1.493145,-32.25685 -2.372385,-3.89103 -5.682165,-5.56566 -10.322318,-5.22272 -2.854905,0.211 -4.485862,0.79178 -5.90916,2.10425 -3.944684,3.63771 -4.022377,4.33137 -4.022377,35.91373 v 29.27409 h -4.5 -4.5 z m 81.75,-7.54426 v -38.25 h 13.875 13.875 v 4.5 4.5 h -9.375 -9.375 v 21 21 h 9.375 9.375 l 7.5e-4,4.6875 7.5e-4,4.6875 h -9.18831 -9.18831 l -0.232778,2.8125 -0.232769,2.8125 h 9.420269 9.420278 v 5.25 5.25 h -13.875 -13.875 v -38.25 z m 39.36774,35.4375 c 4.271783,-6.25158 5.926537,-16.75858 4.069268,-25.83808 -0.447151,-2.18593 -2.177521,-8.19317 -3.845281,-13.34942 -4.512982,-13.95293 -4.333934,-22.6033 0.648113,-31.3125 l 1.823392,-3.1875 h 4.789051 4.789049 l -2.220555,4.3125 c -4.854082,9.42702 -4.62189,17.06594 1.019025,33.52544 2.935905,8.56661 3.099428,9.50558 3.141165,18.03706 0.04395,8.98489 0.03915,9.00976 -2.857829,14.8125 l -2.901863,5.8125 H 66.02645 60.838775 Z m 31.664985,2.34522 C 94.132573,199.23378 93.89285,184.03155 93.89285,165.74405 v -33.25 h -5.25 -5.25 l -2.7e-4,-4.6875 -2.63e-4,-4.6875 29.625263,0.20442 29.62527,0.20442 v 4.48308 4.48308 h -19.49227 -19.49229 l -0.19521,33.5625 -0.19523,33.5625 -4.154775,0.22022 c -2.28513,0.12113 -4.394505,-0.0195 -4.6875,-0.3125 z m 20.217275,-0.0327 c -0.275,-0.27502 -0.5,-13.26877 -0.5,-28.87502 v -28.375 h 14.25 14.25 l 10e-4,4.6875 0.001,4.6875 -8.21467,-0.23362 c -10.13679,-0.28827 -11.28833,0.19104 -11.28833,4.69867 0,5.77637 -0.20992,5.65995 10.20524,5.65995 h 9.29476 v 4.47759 4.4776 l -9.5625,0.2099 -9.5625,0.20991 v 9 9 l 9.5625,0.20991 9.5625,0.2099 v 5.2276 5.22759 h -13.75 c -7.5625,0 -13.975,-0.225 -14.25,-0.5 z m 53.43184,-0.66513 c -4.43228,-1.36536 -9.7696,-6.08264 -12.02956,-10.63208 -1.77006,-3.56325 -1.7782,-3.70272 -2.00377,-34.32779 l -0.22649,-30.75 4.53899,0.25412 4.53899,0.25411 0.004,28.24589 c 0.002,16.86247 0.3121,29.35449 0.76822,30.99668 0.4325,1.55717 1.92498,3.77013 3.4395,5.0999 2.44781,2.1492 3.0748,2.33617 7.36822,2.19718 5.00503,-0.16203 5.8836,-0.5715 8.49999,-3.96152 1.66365,-2.15556 1.66988,-2.2775 1.66852,-32.625 l -0.001,-30.46136 4.50137,0.25412 4.50136,0.25411 v 28.83248 c 0,31.62434 0.0533,32.0526 4.45556,35.75681 3.01285,2.53514 8.85682,2.82231 12.47947,0.61322 4.72567,-2.88183 4.81479,-3.5484 4.81479,-36.01161 v -29.32415 h 4.5313 4.5313 l -0.2188,30.9375 c -0.20397,28.84072 -0.31724,31.13591 -1.67135,33.86505 -4.16552,8.39542 -14.2375,13.29152 -22.66571,11.01806 -1.71505,-0.46263 -4.84383,-2.02812 -6.95286,-3.47887 l -3.83459,-2.63775 -2.88096,2.3152 c -3.13043,2.5157 -8.71635,4.51146 -12.39503,4.42857 -1.27507,-0.0287 -3.86772,-0.52953 -5.76146,-1.11289 z"
         id="path30" />
      <path
         style="fill:#2c2c30;stroke-width:0.75"
         d="m -159.78121,161.74388 -0.20094,-38.25017 4.3125,1.7e-4 4.3125,1.7e-4 0.12429,5.4375 c 0.0683,2.99063 0.15274,14.38125 0.1875,25.3125 l 0.0632,19.875 10.6875,0.2081 10.6875,0.20808 v -25.52058 -25.5206 h 4.5 4.5 v 38.28742 38.28744 l -4.3125,-0.22494 -4.3125,-0.22492 -0.21309,-8.08294 -0.21308,-8.08293 -10.66192,0.20793 -10.66193,0.20794 -0.21287,8.0625 -0.21287,8.0625 h -4.08619 -4.0862 z m 64.6059,37.12666 c -4.4604,-1.42794 -9.84383,-6.20451 -12.05653,-10.69743 -1.71807,-3.48859 -1.75031,-3.97637 -1.75031,-26.48122 v -22.92714 l 2.25,-4.39752 c 6.931605,-13.54746 25.33929,-14.46639 33.877215,-1.69118 3.12489,4.67574 3.4443,8.02785 3.127095,32.818 -0.243442,19.02597 -0.32889,20.02644 -2.000242,23.41999 -4.09281,8.31018 -14.62269,12.78153 -23.447228,9.9565 z m 10.365165,-9.34936 c 1.831433,-0.83137 3.811305,-2.48849 4.684695,-3.92103 1.423358,-2.33457 1.512855,-3.74411 1.515495,-23.8678 0.0023,-19.28377 -0.131947,-21.63797 -1.367647,-23.94205 -1.979588,-3.69116 -5.595165,-5.45673 -10.431705,-5.09405 -3.301013,0.24754 -3.996653,0.0755 -4.363043,-1.07885 -0.695482,-2.19127 -1.970302,-1.58738 -1.718407,0.81403 0.133117,1.26908 -0.293528,2.76524 -1.016273,3.56387 -0.68514,0.75707 -1.606702,2.32597 -2.04792,3.48645 -1.13823,2.99377 -1.08692,42.8289 0.0579,44.96806 1.681328,3.14158 6.812228,6.47091 10.014885,6.49841 0.825,0.007 2.9274,-0.63508 4.672005,-1.42704 z m 26.452995,-19.5436 v -30.01646 l 2.135355,-4.70944 c 5.46669,-12.05652 19.97931,-15.4716 30.361733,-7.14465 l 2.872087,2.30348 2.002913,-1.87261 c 3.04521,-2.84709 6.388942,-4.26574 11.2524595,-4.77408 8.4438375,-0.88256 16.2053925,3.64998 19.8861975,11.61298 1.54893,3.35092 1.623818,4.65844 1.85061,32.30904 0.129998,15.84922 0.03923,29.60235 -0.201787,30.5625 -0.392033,1.56198 -0.870773,1.74571 -4.5488555,1.74571 H 3.14285 v -29.57617 c 0,-17.38179 -0.2994975,-30.29208 -0.726405,-31.3125 -1.728375,-4.13135 -4.09461,-5.92543 -8.4013575,-6.36993 -5.0886445,-0.52519 -8.9164805,1.06461 -11.1104175,4.61448 -1.450013,2.34616 -1.51182,3.67674 -1.51182,32.54514 v 30.09898 h -4.5 -4.5 l -0.003,-29.8125 c -0.003,-28.42534 -0.07215,-29.92624 -1.493145,-32.25685 -4.069778,-6.67498 -13.842315,-7.25633 -18.37905,-1.09334 -1.433333,1.94712 -1.509405,3.39608 -1.711635,32.60019 l -0.211635,30.5625 h -4.475865 -4.475865 v -30.01647 z m 81.75,-8.23353 v -38.25 h 13.412528 c 13.275292,0 13.417154,0.0173 13.864755,1.6875 0.816532,3.04687 0.538552,7.3868 -0.464783,7.25651 -0.515625,-0.067 -4.734375,-0.0817 -9.375,-0.0328 l -8.4375,0.0888 v 21 21 l 9.1875,-10e-4 9.1875,-0.001 -0.254115,4.50136 -0.254115,4.50164 H 41.326235 32.39285 v 2.98571 c 0,3.7153 0.734408,3.95877 10.94691,3.62909 l 7.42809,-0.2398 v 5.0625 5.0625 h -13.6875 -13.6875 z m 38.25,37.82105 c 0,-0.23592 0.8172,-1.83904 1.815997,-3.5625 5.450243,-9.40453 5.516671,-19.68535 0.233498,-36.13355 -1.854938,-5.775 -3.598035,-12.3813 -3.873547,-14.68066 -0.638063,-5.32503 1.100107,-13.95224 3.707392,-18.40123 l 1.929893,-3.29311 h 4.875 4.875 l -1.822043,3.1875 c -5.519145,9.65523 -5.540603,17.18882 -0.09452,33.1875 3.409771,10.01672 3.577823,10.89698 3.651308,19.125 0.08227,9.21283 -0.583088,11.91722 -4.432088,18.01443 -1.854982,2.93849 -1.955527,2.98557 -6.375292,2.98557 -2.469833,0 -4.490595,-0.19303 -4.490595,-0.42895 z m 32.937,-0.13355 c -0.03465,-0.30938 -0.0261,-15.44846 0.01898,-33.64241 0.0714,-28.80068 -0.066,-33.20273 -1.062,-34.02933 -0.781942,-0.64897 -1.143975,-0.68301 -1.143975,-0.10759 0,0.52891 -1.67274,0.84183 -4.5,0.84183 h -4.5 v -4.5 -4.5 h 29.625005 29.625 v 4.48755 4.48754 l -19.6875,0.19996 -19.6875,0.19995 -0.14059,21.375 c -0.0773,11.75625 -0.1617,26.85938 -0.1875,33.5625 l -0.0469,12.1875 h -4.125005 c -2.26875,0 -4.15335,-0.25312 -4.188,-0.5625 z m 19.90503,-0.37797 c -0.19849,-0.51725 -0.27227,-13.42663 -0.16396,-28.6875 l 0.19693,-27.74703 14.0625,-0.16074 14.0625,-0.16073 10e-4,4.66073 0.001,4.66074 -7.99866,-0.23816 c -11.63545,-0.34646 -11.62318,-0.35222 -11.3522,5.32378 l 0.22286,4.66438 9.5625,0.20991 9.5625,0.2099 v 4.45519 4.45519 l -9.5625,0.2099 -9.5625,0.20991 -0.21042,9.16746 c -0.24964,10.87576 -1.04219,10.18939 11.33992,9.8207 l 7.99867,-0.23816 -10e-4,5.0625 -0.001,5.0625 h -13.89854 c -10.45036,0 -13.98808,-0.23333 -14.25943,-0.94047 z m 53.58981,-0.22466 c -4.43228,-1.36536 -9.7696,-6.08264 -12.02956,-10.63208 -1.76945,-3.56203 -1.77828,-3.71248 -2.00361,-34.14029 l -0.22634,-30.5625 h 4.51418 4.51416 l 0.21217,29.94597 c 0.20477,28.90255 0.26604,30.0181 1.7585,32.01616 2.76848,3.70634 5.27646,5.07633 9.29301,5.07633 4.47766,0 6.61911,-1.04046 8.85381,-4.30179 1.67384,-2.44281 1.68184,-2.59787 1.68184,-32.59558 v -30.14109 h 4.5 4.5 l 0.0165,29.0625 c 0.0152,26.7373 0.12836,29.30888 1.41494,32.14192 1.04033,2.29081 2.24917,3.49123 4.72032,4.6875 1.82703,0.88444 3.97467,1.60067 4.77256,1.59161 2.8342,-0.0322 7.79645,-2.89916 9.30741,-5.37743 1.44981,-2.37795 1.51281,-3.72047 1.5155,-32.2936 l 0.003,-29.8125 h 4.54576 4.54576 l -0.23326,30.5625 c -0.22277,29.18755 -0.30396,30.71434 -1.80463,33.9375 -5.36355,11.51986 -19.44212,15.26815 -29.24426,7.78601 -1.82729,-1.39481 -3.48526,-2.53601 -3.68437,-2.53601 -0.19911,0 -1.86869,1.15006 -3.71018,2.5557 -3.17047,2.42009 -8.79613,4.26369 -12.63924,4.14206 -0.90782,-0.0287 -3.2,-0.52953 -5.09374,-1.11289 z"
         id="path28" />
      <path
         style="fill:#2b2b2e;stroke-width:0.75"
         d="m -159.60715,198.28093 c 0,-1.08272 1.51793,-3.2122 4.125,-5.78688 l 4.125,-4.07376 v 5.78688 5.78688 h -4.125 c -3.79606,0 -4.125,-0.13661 -4.125,-1.71312 z m 30.29862,0.65952 c -0.22237,-0.57949 -0.29615,-2.11696 -0.16396,-3.41663 l 0.24034,-2.36303 3.34366,3.41664 3.34366,3.41662 h -3.1797 c -2.03877,0 -3.32477,-0.37805 -3.584,-1.0536 z m 3.61326,-2.90749 c -3.79802,-3.84578 -3.91188,-4.08592 -3.91188,-8.25 v -4.28891 h -4.26416 c -3.35381,0 -4.67363,-0.36026 -6.18213,-1.6875 l -1.91798,-1.6875 1.42338,1.6875 1.42338,1.6875 h -3.51764 c -3.24536,0 -3.45754,-0.11228 -2.74123,-1.45069 1.21038,-2.26162 0.92489,-2.49866 -0.91112,-0.7565 -0.92813,0.88068 -2.44687,1.89797 -3.375,2.26065 -0.92813,0.36268 -1.6875,1.10117 -1.6875,1.6411 0,0.53992 -1.85625,2.81487 -4.125,5.05544 l -4.125,4.07376 v -15.69876 -15.69876 l 4.08945,4.03865 c 2.2492,2.22126 4.18982,4.73753 4.3125,5.59172 0.12296,0.85615 0.89615,1.67538 1.72305,1.82565 0.825,0.14993 2.16919,0.82838 2.98708,1.50767 1.39761,1.16077 1.42593,1.15611 0.47066,-0.0774 -0.93535,-1.20784 -0.73642,-1.3125 2.49469,-1.3125 3.71656,0 4.0402,1.01716 0.72472,2.2777 -0.99118,0.37684 -1.79698,1.1154 -1.79067,1.64124 0.009,0.76932 0.13082,0.76798 0.62247,-0.007 0.33603,-0.5296 1.10644,-0.77278 1.71201,-0.5404 0.62383,0.23939 1.87349,-0.39972 2.88327,-1.4746 1.4739,-1.56898 2.47327,-1.89719 5.7765,-1.89719 h 3.99427 v -3.96097 c 0,-3.84642 0.13016,-4.08978 4.5,-8.41403 l 4.5,-4.45304 v 21.16401 c 0,11.64022 -0.26465,21.16403 -0.58812,21.16403 -0.32347,0 -2.34847,-1.78249 -4.5,-3.96109 z m 31.203533,2.95332 c -1.930268,-0.54091 -4.737721,-1.92022 -6.238773,-3.06513 -3.32806,-2.53844 -7.3063,-7.87714 -6.818,-9.14961 0.1964,-0.51182 -0.0251,-1.05799 -0.49233,-1.21372 -0.54895,-0.18298 -0.95822,-3.58273 -1.15701,-9.61095 l -0.3076,-9.32782 4.6039,4.5 c 4.50448,4.40282 4.60082,4.58098 4.4612,8.25 -0.14077,3.69928 1.443408,8.69917 2.774403,8.75642 0.376087,0.0162 2.00775,0.70484 3.625912,1.53036 2.0169,1.02895 3.820837,1.38309 5.736405,1.12616 2.523758,-0.33851 3.105398,-0.0577 6.007763,2.89951 l 3.213479,3.27428 -2.777639,1.16058 c -4.018583,1.67907 -8.614673,1.9956 -12.63171,0.86992 z m -6.626133,-9.80295 c -0.4857,-0.4857 -0.99286,-0.4857 -1.47856,0 -0.48572,0.48572 -0.23215,0.73929 0.73928,0.73929 0.97143,0 1.225,-0.25357 0.73928,-0.73929 z m -2.38413,-8.33412 c -0.23091,-0.23092 -0.65029,0.18533 -0.93193,0.92499 -0.40701,1.0689 -0.32087,1.15505 0.41985,0.41985 0.51256,-0.50875 0.743,-1.11393 0.51208,-1.34484 z m 45.644852,18.64484 c -0.275002,-0.275 -0.500002,-2.37459 -0.500002,-4.66575 0,-4.06123 0.10713,-4.27401 4.269615,-8.48039 2.348288,-2.37305 4.02801,-4.55624 3.732712,-4.85153 -0.295289,-0.29529 -2.216617,1.11757 -4.269607,3.13969 l -3.73272,3.6766 v -8.94362 -8.94362 l 3.75,3.69362 c 2.0625,2.03149 3.75,3.35612 3.75,2.94362 0,-0.4125 -1.706865,-2.42482 -3.793027,-4.47181 l -3.793028,-3.72181 0.13842,-14.625 c 0.09992,-10.55678 0.40329,-14.93794 1.090605,-15.75 0.523695,-0.61875 1.07139,-1.76812 1.2171,-2.55414 0.14571,-0.78603 0.872332,-1.51801 1.614712,-1.62661 1.660058,-0.24286 3.525218,-1.72563 3.525218,-2.80251 0,-0.43977 -0.695123,-0.0535 -1.544708,0.85847 -1.934812,2.07677 -3.476872,1.38477 -1.97034,-0.88418 0.590153,-0.88881 1.538093,-1.63137 2.106525,-1.65012 0.56844,-0.0187 0.951105,-0.43477 0.850365,-0.92447 -0.10074,-0.48971 1.164885,-1.5781 2.8125,-2.41865 3.520358,-1.79596 3.766718,-1.31201 0.934733,1.83617 -1.82802,2.03213 -1.746555,2.00214 0.72081,-0.2653 1.529962,-1.40598 2.570767,-2.89771 2.312895,-3.31495 -0.279593,-0.45239 0.02527,-0.56902 0.755167,-0.28892 0.673208,0.25833 1.396958,0.18987 1.60833,-0.15213 0.64746,-1.04762 6.947528,-0.82221 10.335413,0.36978 1.761817,0.61988 4.457362,2.13277 5.990092,3.36198 l 2.786783,2.23494 3.417855,-2.60892 c 1.879822,-1.43489 4.620495,-2.83452 6.09039,-3.11027 2.464567,-0.46236 2.957985,-0.22022 6.3405825,3.11151 2.017425,1.98709 3.8639475,3.41698 4.103385,3.17754 0.239445,-0.23944 -1.1871525,-2.02019 -3.1702125,-3.95722 l -3.605565,-3.52188 3.805065,0.38892 c 2.0927775,0.2139 5.0459775,0.98067 6.5626575,1.70393 l 2.7576075,1.315 -1.5070275,1.60416 c -0.8288625,0.88228 -1.2789375,1.83224 -1.0001625,2.11101 0.9193125,0.91932 -0.919905,0.5271 -2.019405,-0.43064 -0.591945,-0.51562 -0.321945,-0.072 0.6,0.98584 0.921945,1.05784 1.676265,2.15471 1.676265,2.4375 0,1.00695 -2.3046675,0.49438 -2.7271275,-0.60653 -0.2365275,-0.61638 -0.8071575,-0.88763 -1.2680625,-0.60277 -0.460905,0.28485 -2.11395,0.42579 -3.673425,0.31319 -7.382115,-0.53301 -11.831385,3.78798 -11.831385,11.49025 0,4.15284 -0.202837,4.6895 -2.763765,7.31213 -3.242925,3.32106 -2.771535,4.88041 0.521587,1.7254 l 2.242178,-2.14815 v 5.52105 5.52106 l -1.875,-1.76147 c -1.03125,-0.96881 -1.875,-1.42397 -1.875,-1.01147 0,0.4125 0.84375,1.54266 1.875,2.51147 l 1.875,1.76147 v 16.14073 16.14072 l -2.015317,2.10354 c -1.413975,1.47587 -2.756715,2.10354 -4.5,2.10354 h -2.484683 v -20.00344 c 0,-17.87422 0.137468,-20.15535 1.291455,-21.43049 1.019918,-1.127 1.059345,-1.37595 0.1875,-1.18405 -0.912097,0.20075 -1.14342,-1.2557 -1.331025,-8.38048 -0.254265,-9.65623 -1.074592,-11.92228 -5.361892,-14.81149 -2.976915,-2.00615 -7.620473,-2.22275 -10.911038,-0.50897 l -2.25,1.17183 2.239455,-2.48895 c 1.231695,-1.36893 0.30357,-0.64424 -2.0625,1.61042 -4.0782,3.88616 -5.75871,5.911 -3.054165,3.67995 1.12827,-0.93073 1.163978,-0.87202 0.372773,0.61303 -0.622298,1.16802 -0.88926,10.31985 -0.924338,31.6875 l -0.04931,30.04514 h -3.948457 c -2.171647,0 -4.173458,-0.225 -4.448453,-0.5 z m 3.10515,-58.39484 c -0.230917,-0.23092 -0.650287,0.18533 -0.931935,0.92499 -0.40701,1.0689 -0.320864,1.15505 0.41985,0.41985 0.512565,-0.50875 0.743003,-1.11393 0.512085,-1.34484 z m 1.644848,-3.35516 c 0,-0.4125 -0.14883,-0.75 -0.330735,-0.75 -0.181905,0 -0.539325,0.3375 -0.794265,0.75 -0.25494,0.4125 -0.10611,0.75 0.330735,0.75 0.436845,0 0.794265,-0.3375 0.794265,-0.75 z m 15.84567,-10.3125 c 0.932903,-1.18954 0.906375,-1.21607 -0.28317,-0.28317 -0.721875,0.56614 -1.3125,1.15676 -1.3125,1.3125 0,0.61728 0.615893,0.21998 1.59567,-1.02933 z m 0.65433,-2.4375 c 0,-0.4125 -0.35742,-0.75 -0.794265,-0.75 -0.436845,0 -0.585675,0.3375 -0.330735,0.75 0.25494,0.4125 0.61236,0.75 0.794265,0.75 0.181905,0 0.330735,-0.3375 0.330735,-0.75 z m 15.75,74.71683 c 0,-0.15574 0.50625,-0.70331 1.125,-1.21683 0.921383,-0.76468 1.125,-0.71343 1.125,0.28317 0,0.66926 -0.50625,1.21683 -1.125,1.21683 -0.61875,0 -1.125,-0.12743 -1.125,-0.28317 z m 24,-7.00586 v -7.28901 l 4.5,4.45304 c 4.35996,4.31446 5.14959,6.05951 4.044758,8.93866 -0.337253,0.87886 -1.503578,1.18634 -4.5000005,1.18634 H 3.14285 Z m 20.25,-13.64606 v -20.93508 l 4.5,4.68628 c 4.187228,4.36056 4.5,4.92947 4.5,8.18509 v 3.4988 h 3.619267 c 2.889293,0 3.973973,0.37757 5.377958,1.87205 2.063603,2.1966 3.137032,1.84815 1.131938,-0.36745 -1.348185,-1.48973 -1.318575,-1.5046 2.995837,-1.5046 4.176045,0 4.305727,0.0572 3.114607,1.37336 -1.40706,1.55478 -0.788632,2.80847 0.753886,1.5283 0.818122,-0.67898 1.006507,-0.16469 1.006507,2.74775 v 3.58307 l -1.627178,-1.42874 c -1.460789,-1.28265 -1.578232,-1.29453 -1.148535,-0.11624 0.390255,1.07015 0.05055,1.3125 -1.83966,1.3125 -1.917397,0 -2.165482,-0.18413 -1.434607,-1.06478 0.702225,-0.84613 0.642518,-1.02938 -0.29076,-0.8924 -0.645945,0.0948 -1.576027,0.57395 -2.06685,1.06477 -0.49083,0.49083 -2.84991,0.89241 -5.24241,0.89241 h -4.35 v 2.95574 c 0,1.62565 0.371535,3.18536 0.825637,3.46601 0.801811,0.49554 -7.985249,10.07825 -9.24147,10.07825 -0.321292,0 -0.584167,-9.42079 -0.584167,-20.93509 z m 24.75,0.40192 c 0,-0.15574 -0.590625,-0.74636 -1.3125,-1.3125 -1.189545,-0.9329 -1.216072,-0.90638 -0.28317,0.28317 0.979778,1.24931 1.59567,1.64661 1.59567,1.02933 z m -16.54683,15.70542 4.784835,-4.82774 7.193498,-0.23476 7.193497,-0.23475 v 5.0625 5.0625 H 38.789517 26.811185 Z m 30.04683,4.12201 c 0,-1.29934 1.320075,-1.53975 2.256855,-0.411 0.771277,0.92933 0.65967,1.11674 -0.665025,1.11674 -0.875505,0 -1.59183,-0.31758 -1.59183,-0.70574 z m 3.27672,-0.85088 -1.556617,-1.55662 1.89597,-4.63088 c 2.715585,-6.63276 3.074752,-15.44623 0.968835,-23.77401 l -1.586378,-6.27326 1.731758,-1.91681 c 3.104332,-3.43605 2.628045,-5.88259 -2.041373,-10.48587 -2.270137,-2.23798 -4.33035,-4.99252 -4.578247,-6.12119 -0.694433,-3.16173 1.014307,-10.97985 3.457687,-15.82014 l 2.203238,-4.3646 h 4.784505 4.784505 l -2.732805,5.4375 c -2.550345,5.07447 -2.730803,5.88815 -2.70297,12.1875 0.03802,8.60352 0.6651,13.5781 1.899052,15.06492 0.754433,0.90905 0.769725,1.30106 0.06765,1.73496 -0.658477,0.40697 -0.48894,0.93889 0.618735,1.94132 2.292862,2.07502 4.61415,10.39146 5.02662,18.0088 0.412313,7.61441 -0.940492,13.28432 -4.51836,18.9375 -2.326357,3.67573 -5.09271,4.25999 -7.72182,1.63088 z m 29.526863,-9.88088 c -0.360705,-9.95785 -0.253515,-11.62397 0.828555,-12.87892 0.683572,-0.79279 0.820987,-1.19474 0.305362,-0.89324 -0.740122,0.43277 -0.9375,-3.60068 -0.9375,-19.15795 v -19.70615 l 4.125,4.07376 4.125,4.07376 v 11.81459 c 0,10.9243 -0.0989,11.78049 -1.3125,11.36221 -1.20328,-0.41472 -1.2106,-0.36595 -0.0879,0.58604 1.19241,1.01107 2.40345,6.91032 1.58634,7.72743 -0.22473,0.22473 -0.33644,3.19913 -0.24826,6.60978 l 0.16035,6.20119 -2.64485,-2.55634 c -1.454672,-1.40598 -2.471702,-2.8365 -2.260083,-3.17891 0.21162,-0.34241 -0.139012,-0.42157 -0.779182,-0.17592 -1.720193,0.66011 -1.493827,1.15011 2.211045,4.78617 3.29143,3.23029 3.375,3.42917 3.375,8.03116 v 4.71884 h -4.016055 -4.016047 z m 20.172937,10.91402 c -0.28792,-0.28792 -0.48691,-10.37295 -0.44221,-22.41118 0.0805,-21.67045 0.0974,-21.89606 1.71098,-22.73047 1.62439,-0.84002 1.6241,-0.84134 -0.0904,-0.40292 -1.69756,0.43408 -1.71725,0.36276 -1.5,-5.43355 l 0.22015,-5.8734 7.875,-0.21193 7.875,-0.21193 -6.21086,6.25107 c -3.41597,3.4381 -6.04147,6.42046 -5.83445,6.62749 0.20703,0.20702 3.3905,-2.59497 7.07438,-6.22665 3.68388,-3.63168 7.07963,-6.60305 7.54612,-6.60305 0.46648,0 1.18429,0.75937 1.59513,1.6875 l 0.747,1.6875 -0.32595,-1.6875 c -0.30558,-1.5821 -0.0727,-1.6875 3.72885,-1.6875 h 4.05478 v 4.47759 4.4776 l -9.5625,0.2099 -9.5625,0.20991 v 4.875 4.875 l 9.5625,0.20991 9.5625,0.2099 v 4.4776 4.47759 h -5.83009 -5.8301 l -5.94242,-5.97748 c -3.26834,-3.28762 -6.11091,-5.80899 -6.31685,-5.60306 -0.20592,0.20593 2.13014,2.89579 5.19126,5.97748 l 5.56566,5.60306 h -3.16873 -3.16873 v 9.29476 c 0,10.06354 0.0605,10.20524 4.35218,10.20524 1.84679,0 1.65558,0.32681 -2.85218,4.875 -3.88589,3.92075 -5.28857,4.875 -7.16584,4.875 -1.28379,0 -2.56972,-0.23557 -2.85764,-0.52348 z m 1.23302,-42.25627 c -0.22003,-0.84136 -0.56763,-1.36217 -0.77244,-1.15734 -0.40576,0.40574 0.31094,2.68709 0.84415,2.68709 0.18058,0 0.14831,-0.68839 -0.0717,-1.52975 z m 10.29046,37.90475 4.83167,-4.875 h 5.83416 5.83417 v 4.875 4.875 h -10.66583 -10.66583 z m 44.72958,4.37748 c -1.21999,-0.34482 -1.03585,-0.76264 1.46471,-3.32344 3.60658,-3.69347 2.46515,-3.87739 -1.29241,-0.20824 -3.57446,3.49039 -5.42676,3.11058 -10.69917,-2.19377 -4.86593,-4.8954 -5.70271,-7.63049 -5.70271,-18.63966 v -8.56361 l 4.125,-4.07376 4.125,-4.07376 0.0165,11.59938 c 0.0198,13.93717 0.92425,16.89333 5.95365,19.45914 1.9964,1.01848 2.89063,1.89301 2.5374,2.48149 -0.34387,0.57291 -0.0803,0.53151 0.71318,-0.11201 0.72652,-0.58921 2.35055,-0.89329 3.84136,-0.71924 1.4205,0.16583 2.41773,0.0346 2.21607,-0.29174 -0.20169,-0.3263 0.32823,-0.59326 1.17758,-0.59326 0.84934,0 1.54426,-0.35742 1.54426,-0.79426 0,-0.43685 0.42187,-0.55149 0.9375,-0.25476 0.51562,0.29673 0.69543,0.27145 0.39956,-0.0562 -0.29586,-0.32763 0.12602,-1.43975 0.9375,-2.47139 0.81149,-1.03164 1.47544,-2.52738 1.47544,-3.32387 0,-0.79649 0.37117,-2.1417 0.82483,-2.98936 0.50702,-0.94739 0.5308,-1.35948 0.0617,-1.06957 -0.51,0.3152 -0.79258,-6.72069 -0.85194,-21.21295 -0.0695,-16.9771 0.11889,-21.75382 0.86798,-22.00352 0.60631,-0.20211 0.86994,-1.32727 0.71966,-3.07154 -0.24493,-2.84293 -0.008,-3.04284 2.46032,-2.0767 1.07361,0.42021 1.907,0.0606 3.1638,-1.36521 l 1.70625,-1.9357 0.0237,5.55374 c 0.0228,5.33617 -0.0301,5.50505 -1.34966,4.31087 -0.75535,-0.68359 -1.58765,-1.02859 -1.84957,-0.76668 -0.2619,0.26191 0.3561,1.13089 1.37337,1.93107 l 1.84956,1.45487 v 14.92203 c 0,12.47632 -0.17195,14.85604 -1.04913,14.51943 -0.57703,-0.22142 -1.24839,-0.0802 -1.49193,0.31386 -0.24354,0.39405 0.1442,0.67018 0.86163,0.61363 1.1359,-0.0895 1.30443,0.64832 1.30443,5.71092 0,3.19757 0.18533,5.81319 0.41184,5.8125 0.2265,-6.8e-4 0.83832,1.1782 1.35959,2.61974 1.33806,3.70034 6.55856,6.71669 10.67032,6.16519 3.72708,-0.49991 6.32681,-2.16564 8.21625,-5.26442 1.26396,-2.07295 1.46178,-3.81215 1.4642,-12.87328 l 0.003,-10.47651 4.57024,4.47651 4.57025,4.47653 -0.34193,6.375 c -0.42588,7.94039 -2.5089,13.10064 -6.9353,17.18074 -1.76926,1.63085 -4.61921,3.38534 -6.33323,3.89887 l -3.11641,0.9337 -8.05672,-8.03174 c -4.4312,-4.41746 -8.30418,-7.78429 -8.60662,-7.48185 -0.30244,0.30243 2.92065,4.05732 7.16242,8.34417 l 7.71208,7.79428 -3.375,-0.50817 c -4.2539,-0.64051 -8.98882,-2.84808 -11.23349,-5.23743 l -1.7325,-1.84416 -2.24216,1.88664 c -4.70364,3.95787 -12.28312,6.2769 -16.56227,5.06743 z m 14.14292,-9.24844 c 0.25719,-0.41614 -0.7339,-0.0477 -2.20244,0.81875 -1.46853,0.86646 -2.67006,1.71945 -2.67006,1.89555 0,0.53291 4.37022,-1.90159 4.8725,-2.7143 z m 1.1275,-2.25404 c 0,-0.4125 -0.3375,-0.75 -0.75,-0.75 -0.4125,0 -0.75,0.3375 -0.75,0.75 0,0.4125 0.3375,0.75 0.75,0.75 0.4125,0 0.75,-0.3375 0.75,-0.75 z m -267.617678,5.00983 c -2.993362,-3.05001 -3.051412,-3.19954 -1.595354,-4.10886 0.831075,-0.51902 2.173979,-2.03093 2.984234,-3.35981 1.278053,-2.09612 1.473563,-3.8028 1.475993,-12.88454 l 0.003,-10.46837 2.8125,-3.03064 2.8125,-3.03063 -2.8125,2.58364 -2.8125,2.58363 v -5.53744 -5.53744 l 2.242177,2.14814 c 1.233195,1.18147 2.40939,1.98092 2.613765,1.77655 0.204375,-0.20437 -0.804607,-1.5116 -2.242177,-2.90495 -2.407125,-2.33289 -2.61396,-2.88565 -2.61396,-6.98521 0,-7.70175 -4.52148,-12.20149 -11.687737,-11.63153 -1.971083,0.15677 -3.421733,-0.0759 -3.61509,-0.57973 -0.177615,-0.46287 1.439842,-2.58246 3.594352,-4.71021 l 3.917295,-3.86862 3.267915,1.15299 c 4.610985,1.62684 9.336923,5.75826 11.354565,9.92614 1.434375,2.96303 1.728458,4.81478 1.758105,11.07014 0.0336,7.0947 -0.0477,7.49977 -1.464405,7.29315 -1.193775,-0.17411 -1.27764,-0.0694 -0.410813,0.51301 0.599056,0.40248 1.335405,0.57962 1.636321,0.39364 0.876367,-0.54162 0.75969,26.09944 -0.132518,30.25969 -0.900225,4.19759 -4.34178,10.15572 -6.548295,11.33661 -1.189538,0.63663 -1.9551,0.23179 -4.537373,-2.39935 z M 7.49117,188.18155 3.26144,183.86905 3.181648,162.31448 C 3.137773,150.45947 2.892043,140.16572 2.6355955,139.43948 2.379148,138.71325 1.469683,137.2753 0.614563,136.24405 c -0.8551275,-1.03125 1.38891,0.9863 4.9867575,4.48344 l 6.5415295,6.35844 v 8.97552 c 0,8.72963 -0.0555,9.03344 -2.0253,11.08948 -1.9790095,2.06564 -1.992802,2.14371 -0.603577,3.41604 1.065075,0.97545 1.197517,1.00139 0.527947,0.10342 -0.7223095,-0.9687 -0.606517,-1.45862 0.603578,-2.55374 1.49094,-1.34928 1.497352,-1.29999 1.497352,11.51116 0,7.07644 -0.09494,12.86624 -0.210975,12.86624 -0.11604,0 -2.1143545,-1.94062 -4.440705,-4.3125 z m -112.53582,-18.74572 -4.3125,-4.36027 v -9.37202 -9.37203 l 5.625,-5.58746 c 3.09375,-3.0731 5.625,-6.00719 5.625,-6.52019 0,-0.53543 0.49653,-0.74219 1.165688,-0.48542 1.016317,0.39 0.98256,0.65127 -0.26343,2.03897 -2.64804,2.9492 -2.776373,3.80131 -3.152258,20.93017 l -0.375,17.08852 z m -50.625,-3.37358 -3.9375,-3.99037 v -6.7617 -6.76171 l 3,-2.92942 c 1.65,-1.61118 3,-3.26693 3,-3.67942 0,-0.41251 -1.35,0.56824 -3,2.17942 l -3,2.92942 v -11.77721 -11.77721 h 3.77354 c 2.36288,0 3.88285,0.35047 4.06594,0.9375 0.72083,2.31108 0.96232,16.45639 0.51908,30.40428 l -0.48356,15.21678 z m 375.35153,-1.15245 c -4.06947,-4.11236 -4.28903,-4.5263 -4.28903,-8.08597 0,-3.59067 0.19319,-3.9429 4.5,-8.20478 l 4.5,-4.45304 v 12.53901 c 0,6.89647 -0.0949,12.53903 -0.21097,12.53903 -0.11604,0 -2.14105,-1.95041 -4.5,-4.33425 z M 28.001645,161.41394 c -2.122335,-2.24405 -3.858795,-4.70246 -3.858795,-5.46312 0,-0.76065 1.85625,-3.2162 4.125,-5.45677 l 4.125,-4.07376 v 9.53688 c 0,5.24528 -0.11979,9.53688 -0.266205,9.53688 -0.146415,0 -2.002665,-1.83605 -4.125,-4.08011 z m 126.641205,-4.52733 v -8.0836 l 3.43201,3.16352 c 4.81172,4.43529 5.18031,3.07599 0.46155,-1.70212 l -3.89356,-3.94253 v -11.41392 -11.41391 h 4.15899 4.15898 l -0.16552,17.0625 -0.16552,17.0625 -3.99346,3.67558 -3.99347,3.67558 z m -284.25,-1.51756 v -8.94362 l 3.73272,3.6766 c 2.05299,2.02212 3.90089,3.50841 4.10644,3.30286 0.20555,-0.20555 -1.47417,-2.19868 -3.73271,-4.42916 l -4.10645,-4.05544 v -10.71312 -10.71312 h 4.52279 4.52279 l -0.0746,15.97707 c -0.041,8.7874 -0.31418,16.29677 -0.607,16.6875 -0.29282,0.39073 -2.29451,2.38524 -4.44819,4.43224 l -3.91576,3.72181 z m 193.30398,4.36891 c -0.44349,-0.7748 -2.524898,-7.50575 -3.069968,-9.92783 -0.342142,-1.52032 0.18507,-1.22567 3.304448,1.8468 2.04135,2.01066 3.71154,4.03146 3.71154,4.49069 0,1.15777 -3.510255,4.35163 -3.94602,3.59034 z M 23.39285,138.65808 v -15.16403 h 6.218843 6.218842 l 3.280395,3.34248 c 1.804222,1.83836 3.592575,3.14954 3.97413,2.91373 0.381547,-0.23582 -0.586605,-1.73993 -2.15145,-3.34248 l -2.845185,-2.91373 h 6.185093 c 4.528694,0 6.144607,0.25107 6.033922,0.9375 -0.08315,0.51563 0.09598,1.49962 0.398048,2.18665 0.302077,0.68703 0.43968,2.20145 0.30579,3.36538 -0.225113,1.95702 -0.519406,2.13603 -3.91146,2.37926 -3.290393,0.23594 -3.618368,0.12111 -3.185656,-1.11539 0.45486,-1.2998 0.424088,-1.30356 -0.539655,-0.0659 -0.79083,1.0156 -2.148495,1.3125 -6.001837,1.3125 l -4.97982,2e-5 v 6.21097 6.21099 l -4.5,4.45304 -4.5,4.45304 z m 192,-1.125 v -14.03903 h 4.54526 4.54527 l -0.16968,9.70909 -0.16967,9.70909 -4.37559,4.32993 -4.37559,4.32993 z M 6.56654,140.04312 C 0.853955,134.28642 0.03041,132.06574 2.6837,129.57311 l 1.6724925,-1.57123 2.355315,2.43359 c 1.29543,1.33847 2.8371225,3.61483 3.4259995,5.05858 1.01334,2.48444 2.387228,9.75 1.84368,9.75 -0.139462,0 -2.5760545,-2.34042 -5.414647,-5.20093 z m -115.51041,1.07593 c 0.75621,-4.46317 2.84657,-8.723 5.50461,-11.21756 l 2.36289,-2.21756 2.035748,2.03574 2.035747,2.03574 -6.223645,6.18183 -6.22365,6.18181 z m 207.733035,-2.59577 c -2.187862,-2.22572 -3.73749,-4.48659 -3.75,-5.47115 -0.0156,-1.228 -0.685582,-1.89335 -2.498468,-2.4812 -1.362434,-0.44179 -3.88872,-2.21481 -5.613967,-3.94007 l -3.136823,-3.13681 h 8.582625 8.582628 l -3.296875,3.35927 c -1.81329,1.8476 -3.05646,3.59971 -2.762603,3.89356 0.29385,0.29386 2.308418,-1.21782 4.47681,-3.35927 l 3.942528,-3.89356 13.10142,0.007 13.10141,0.007 4.125,4.04035 c 5.11364,5.0087 6.75305,4.64884 1.78762,-0.3924 l -3.60623,-3.66145 h 5.3958 5.39581 l -0.0828,3.67401 c -0.0455,2.02071 -0.30883,4.03977 -0.58511,4.48681 -0.33404,0.54048 -6.89754,0.88002 -19.59123,1.01348 l -19.08889,0.2007 -0.375,4.72372 -0.375,4.72372 z m 86.134405,-4.12949 c -0.23222,-0.60514 -0.27748,-1.53327 -0.10058,-2.0625 0.1769,-0.52923 0.49944,-0.0341 0.71675,1.10026 0.4243,2.21492 0.0743,2.76153 -0.61617,0.96224 z M 83.694335,131.44792 c -0.220793,-0.57537 -0.29457,-2.27977 -0.163958,-3.78755 l 0.237473,-2.74143 3.721807,3.78755 3.721808,3.78756 h -3.55785 c -2.351445,0 -3.69396,-0.35472 -3.95928,-1.04613 z m -180.035663,-1.76599 c -0.885044,-0.14942 -2.173357,-0.89509 -2.862907,-1.65703 -1.196795,-1.32244 -1.058275,-1.45849 3.04989,-2.99555 2.366993,-0.88561 5.10864,-1.50897 6.092543,-1.38525 1.702597,0.2141 1.633072,0.37176 -1.440713,3.26723 -2.177678,2.05135 -3.753773,2.95379 -4.838813,2.7706 z m 280.984178,-2.93788 v -3.25 h 4.5 c 3.8452,0 4.5,0.19785 4.5,1.35968 0,2.21234 -3.79642,5.20301 -6.5625,5.16968 -2.37048,-0.0286 -2.4375,-0.11872 -2.4375,-3.27936 z"
         id="path26" />
    </g>
  </g>
</svg>
