<?xml version="1.0" encoding="UTF-8" standalone="no"?>
<svg
   xmlns:dc="http://purl.org/dc/elements/1.1/"
   xmlns:cc="http://creativecommons.org/ns#"
   xmlns:rdf="http://www.w3.org/1999/02/22-rdf-syntax-ns#"
   xmlns:svg="http://www.w3.org/2000/svg"
   xmlns="http://www.w3.org/2000/svg"
   width="1700.198"
   height="684.97736"
   viewBox="0 0 449.84406 181.23359"
   version="1.1"
   id="svg8">
  <defs
     id="defs2" />
  <metadata
     id="metadata5">
    <rdf:RDF>
      <cc:Work
         rdf:about="">
        <dc:format>image/svg+xml</dc:format>
        <dc:type
           rdf:resource="http://purl.org/dc/dcmitype/StillImage" />
        <dc:title></dc:title>
      </cc:Work>
    </rdf:RDF>
  </metadata>
  <g
     id="layer1"
     transform="translate(188.59907,-89.488096)">
    <g
       id="g24"
       transform="translate(10.583333,24.190476)">
      <path
         style="fill:#d1d1d2;stroke-width:0.875"
         d="m -199.17856,200.88264 v -45.53998 l 5.90625,0.25873 5.90625,0.25873 0.23039,29.53125 0.23038,29.53125 11.58212,2.1e-4 11.58211,2.1e-4 v -29.53146 -29.53146 l 5.90625,-0.25873 5.90625,-0.25873 0.0627,18.19623 c 0.12146,35.23677 -0.18536,71.49928 -0.61079,72.18762 -0.23663,0.38286 -2.76199,0.69611 -5.61191,0.69611 -6.22158,0 -6.37119,-0.29488 -5.93868,-11.70511 l 0.28614,-7.54898 -11.8125,8e-5 -11.8125,9e-5 0.28009,8.36965 c 0.1866,5.57616 -0.0682,8.78929 -0.76339,9.62696 -0.69059,0.83211 -2.78269,1.25731 -6.18633,1.25731 h -5.14287 z m 74.49621,43.64686 c -5.58965,-2.14702 -10.95802,-7.23739 -13.55319,-12.85136 -1.7961,-3.8854 -1.88052,-5.2857 -1.88052,-31.19302 v -27.125 l 2.32812,-4.375 c 4.69445,-8.8218 12.18041,-13.55894 21.29688,-13.47671 9.29357,0.0838 16.677045,4.37935 21,12.21731 l 2.625,4.7594 0.266429,26.53691 c 0.314658,31.3401 0.05775,32.76986 -7.181353,39.96516 -7.213016,7.16938 -15.730086,9.06503 -24.901366,5.54231 z m 12.37564,-11.55661 c 1.54861,-0.65986 3.80002,-2.26597 5.00315,-3.56915 l 2.1875,-2.36941 0.2365,-25.52461 c 0.226,-24.3934 0.15729,-25.65296 -1.55042,-28.42101 -4.5281,-7.33963 -16.1474,-6.89507 -20.29505,0.77652 -1.47261,2.72375 -1.60984,5.19257 -1.51582,27.26997 0.0996,23.38037 0.17352,24.38013 2.00653,27.125 1.95186,2.92287 6.77704,5.90864 9.55262,5.91106 0.85764,7.5e-4 2.82639,-0.53852 4.37499,-1.19837 z m 31.641956,12.32586 c -0.25494,-0.66437 -0.348285,-17.31923 -0.207419,-37.01079 0.248964,-34.803 0.309024,-35.90058 2.150724,-39.30284 4.404636,-8.13691 12.887219,-13.50997 21.381072,-13.54329 5.860618,-0.023 9.563898,1.13432 14.61068,4.56592 l 3.761362,2.55757 3.159704,-2.41003 c 9.73686,-7.42666 23.793236,-6.06672 32.0588448,3.10166 6.4282225,7.1303 6.2587262,5.8733 6.2587262,46.41567 v 36.3125 h -5.6875 -5.6875 l -0.4375,-35.4375 c -0.4112763,-33.31373 -0.5399887,-35.58886 -2.1476,-37.96313 -4.283843,-6.32675 -15.290958,-6.32311 -19.440593,0.006 -1.462886,2.23137 -1.636626,5.46577 -2.036807,37.91684 l -0.4375,35.47737 h -5.6875 -5.6875 l -0.4375,-35.43721 c -0.411276,-33.31373 -0.539989,-35.58886 -2.1476,-37.96313 -4.283843,-6.32675 -15.290958,-6.32311 -19.440593,0.006 -1.462886,2.23137 -1.636626,5.46577 -2.036807,37.91684 l -0.4375,35.47737 -5.480073,0.26079 c -4.038833,0.19222 -5.601986,-0.0569 -5.943621,-0.94716 z m 95.588229,0.55924 C 14.592357,245.52686 14.32144,225.04346 14.32144,200.33928 v -44.91666 h 16.562035 16.562044 l 0.599506,4.79833 c 0.945227,7.5653 1.112142,7.45167 -10.946127,7.45167 H 26.57144 v 23.59807 23.59807 l 10.71875,0.24568 10.71875,0.24568 0.258729,5.90625 0.258728,5.90625 H 37.548919 26.57144 v 3.0625 3.0625 h 10.975834 10.975833 l -0.257083,6.34375 -0.257084,6.34375 -16.241715,0.23745 c -8.932945,0.1306 -16.512632,-0.0334 -16.84375,-0.36458 z m 43.781001,0.031 c -0.293492,-0.2935 0.42854,-2.05779 1.604523,-3.92067 4.395501,-6.96292 5.201945,-10.22759 5.167907,-20.92071 -0.03028,-9.50606 -0.236591,-10.65829 -3.73107,-20.83684 -6.663308,-19.40854 -6.858661,-27.63019 -0.934272,-39.31941 l 2.771702,-5.46875 h 6.431583 c 3.53738,0 6.431591,0.26072 6.431591,0.57938 0,0.31865 -0.985959,2.26178 -2.191018,4.31807 -1.205058,2.05628 -2.827615,6.22355 -3.605673,9.2606 -2.01117,7.85037 -1.112887,14.92155 3.787043,29.81132 3.889279,11.81862 4.102447,12.96954 4.091894,22.09313 -0.01181,10.2165 -0.902877,13.84074 -5.209881,21.19008 l -2.196136,3.74745 h -5.942283 c -3.268256,0 -6.182409,-0.24014 -6.47591,-0.53363 z M 97.44644,207.08595 v -39.33666 l -6.34375,-0.25709 -6.34375,-0.25708 -0.258956,-5.9161 -0.258948,-5.9161 35.696444,0.2286 35.69646,0.2286 v 5.6875 5.6875 l -23.1875,0.23236 -23.1875,0.23237 0.23701,38.15598 c 0.17176,27.65173 -0.0384,38.48782 -0.76338,39.36138 -0.64211,0.77368 -2.84235,1.20541 -6.14326,1.20541 h -5.14287 z m 23.14931,38.24016 c -0.23143,-0.60308 -0.31751,-16.05777 -0.1913,-34.34375 l 0.22949,-33.24724 17.25995,-0.23718 17.25996,-0.23717 0.51637,2.05736 c 0.284,1.13155 0.39202,3.79765 0.24004,5.92467 l -0.27632,3.86732 -11.375,0.4375 -11.375,0.4375 v 4.8125 4.8125 l 11.375,0.4375 11.375,0.4375 v 5.6875 5.6875 l -11.375,0.4375 -11.375,0.4375 v 10.0625 10.0625 l 11.375,0.4375 11.375,0.4375 0.26462,5.10507 c 0.15607,3.01097 -0.15707,5.61319 -0.76339,6.34375 -1.41339,1.70304 -33.88917,1.83671 -34.53942,0.14217 z m 64.34503,0.27896 c -6.81026,-2.07159 -14.61669,-9.46824 -16.44968,-15.58621 -0.97295,-3.24745 -1.18425,-15.18519 -1.07709,-60.85497 l 0.0324,-13.82123 5.90625,0.25873 5.90625,0.25873 0.4375,36.02413 0.4375,36.02413 2.13051,2.26695 c 5.74943,6.11764 16.38806,4.07984 19.39948,-3.71592 0.43038,-1.11414 0.78251,-17.5532 0.78251,-36.53125 v -34.50554 h 6.125 6.125 l 0.11948,27.34375 c 0.0657,15.03906 0.0639,30.28528 -0.004,33.88049 -0.15021,7.94081 0.93225,11.52913 4.34385,14.39981 5.47201,4.60439 13.03339,3.32417 17.18553,-2.9097 1.9742,-2.96399 1.9803,-3.08053 1.9803,-37.84375 l 2.1e-4,-34.8706 h 6.1694 6.16939 l -0.26314,36.53125 c -0.25731,35.72106 -0.30589,36.61113 -2.19008,40.13316 -3.20564,5.99217 -6.19157,8.86729 -12.11608,11.66649 -8.51365,4.02251 -14.86079,3.43112 -23.16702,-2.15856 l -4.48846,-3.02051 -3.21326,2.49238 c -6.03566,4.68162 -13.972,6.45748 -20.28141,4.53824 z M 2.07144,135.00556 c 0,-3.60786 -0.2320062,-3.95185 -4.7762925,-7.08162 -10.1784195,-7.01014 -16.9741425,-17.74333 -18.8766205,-29.81382 -1.399256,-8.877689 -0.557217,-12.97737 3.498443,-17.03303 4.187715,-4.187715 8.6099387,-5.158344 13.88513,-3.047634 3.76065375,1.50472 8.01934,5.698858 8.01934,7.897803 0,1.665107 0.2730175,1.601136 4.0207475,-0.942139 2.0614037,-1.398906 4.4411935,-2.1875 6.6013585,-2.1875 h 3.377894 v -4.171886 c 0,-7.566484 5.958741,-13.328114 13.784094,-13.328114 3.84566,0 8.168641,2.487914 11.026706,6.345973 2.603414,3.514306 2.528164,10.678167 -0.151629,14.435277 l -2.028337,2.84375 h 3.735506 c 3.599767,0 4.121442,-0.381544 14.356361,-10.5 5.841474,-5.775 11.077929,-10.5 11.636573,-10.5 1.501928,0 4.515726,3.283219 4.515726,4.919416 0,0.780675 -3.19557,4.693308 -7.101273,8.694735 l -7.101272,7.275328 3.820022,0.274015 3.820023,0.274006 -0.177844,5.122696 c -0.465159,13.398864 -8.716601,26.880554 -21.478406,35.092674 -2.023761,1.30227 -2.40625,2.1583 -2.40625,5.38526 v 3.83687 h -21 -21 z"
         id="path42" />
      <path
         style="fill:#c1ceb7;stroke-width:0.875"
         d="m -198.59522,245.83928 c -0.32084,-0.32082 -0.58334,-20.79582 -0.58334,-45.5 v -44.91666 h 5.6875 5.6875 v 29.75 29.75 h 12.25 12.25 v -29.75 -29.75 h 5.6875 5.6875 v 45.04583 45.04583 l -2.05215,0.51505 c -1.12869,0.28329 -3.58963,0.38923 -5.46875,0.23543 l -3.4166,-0.27964 -0.24835,-9.40625 -0.24835,-9.40625 h -12.2204 -12.2204 v 9.09388 c 0,7.48526 -0.24482,9.18784 -1.38407,9.625 -1.86293,0.71488 -8.67833,0.67705 -9.40759,-0.0522 z m 78.16666,-0.25332 c -7.69828,-1.69035 -13.93607,-6.62538 -17.19126,-13.60084 -2.00044,-4.2867 -2.04182,-4.92343 -2.05019,-31.54695 l -0.009,-27.17195 2.26474,-4.54473 c 7.5761,-15.20326 27.0048,-17.81384 38.597505,-5.18625 6.089449,6.63306 6.529897,9.41769 6.217872,39.31066 l -0.267417,25.63922 -2.363235,4.47977 c -4.861465,9.21546 -15.787355,14.6877 -25.199265,12.62107 z m 9.37731,-12.87455 c 6.21453,-2.94899 6.36575,-3.72172 6.36942,-32.54798 l 0.004,-25.69669 -3.39706,-3.39706 c -3.01717,-3.01718 -3.87335,-3.39669 -7.65625,-3.39379 -5.0974,0.004 -9.26648,2.26823 -11.25444,6.11255 -1.19817,2.31699 -1.35689,6.22403 -1.13623,27.96958 l 0.25648,25.27637 2.1875,2.36818 c 4.27184,4.62467 9.40662,5.7862 14.62731,3.30883 z m 30.941859,12.48206 c -0.748886,-0.90236 -0.951851,-10.49853 -0.763385,-36.09375 0.254301,-34.53648 0.276229,-34.90776 2.330072,-39.45104 2.40681,-5.32407 7.409693,-10.18109 13.062394,-12.68155 7.2576,-3.21038 17.962035,-1.2604 23.980705,4.36846 l 2.366464,2.21319 3.010297,-2.64308 c 4.675055,-4.10475 10.066184,-5.80319 16.723945,-5.26878 9.120834,0.73214 15.9058465,5.68659 20.077479,14.6607 1.7447763,3.7534 1.8427675,5.56713 2.0956688,38.79174 0.196105,25.76208 -0.00263,35.17759 -0.763385,36.09375 -0.5953413,0.71734 -2.6121813,1.23951 -4.7875013,1.23951 -7.0752412,0 -6.5269225,2.95054 -6.5269225,-35.12172 0,-37.69347 -0.120855,-38.62743 -5.416092,-41.85585 -1.831769,-1.11679 -4.428857,-1.76709 -7.065512,-1.76916 -3.529023,-0.003 -4.67089,0.45648 -7.4375,2.99127 l -3.268396,2.99454 -0.247669,35.69044 c -0.186357,26.85429 -0.511297,35.85797 -1.3125,36.36707 -1.271209,0.80774 -7.787027,0.92297 -9.743265,0.17229 -1.229803,-0.47191 -1.384433,-4.39727 -1.387338,-35.21875 -0.0035,-32.86032 -0.09325,-34.8352 -1.711308,-37.4889 -3.863878,-6.33699 -13.408465,-7.41631 -18.710457,-2.11583 l -2.762463,2.76168 -0.247669,35.60644 c -0.186331,26.7883 -0.511385,35.77402 -1.3125,36.28307 -1.83736,1.1675 -9.08859,0.79313 -10.183162,-0.52574 z m 95.524581,0.65981 c -0.854963,-0.35293 -1.09375,-10.27354 -1.09375,-45.44107 v -44.98959 h 16.625 16.625 v 6.125 6.125 h -10.5 -10.5 v 23.625 23.625 h 10.5 10.5 v 6.125 6.125 H 36.85269 26.13394 v 3.0625 3.0625 h 10.757084 10.757083 l -0.257083,6.34375 -0.257084,6.34375 -15.3125,0.15983 c -8.421875,0.0879 -15.804688,-0.0433 -16.40625,-0.29167 z m 44.040867,-0.18898 c -0.257766,-0.41707 0.998682,-3.61951 2.792108,-7.11652 l 3.260775,-6.35822 -0.03867,-11.03971 c -0.03769,-10.75277 -0.13853,-11.32403 -3.879269,-21.97723 -3.690592,-10.51039 -3.842842,-11.34753 -3.898816,-21.4375 -0.05758,-10.3817 -0.02374,-10.56408 3.00426,-16.1875 l 3.0625,-5.6875 6.430025,-0.25883 c 3.536514,-0.14235 6.292764,0.0545 6.125,0.4375 -0.167764,0.38298 -1.657268,3.39173 -3.31002,6.68612 -2.527578,5.03818 -3.056471,7.12336 -3.329025,13.125 -0.337243,7.42609 0.347261,10.57336 6.404536,29.44771 1.939867,6.04456 2.400624,9.15819 2.460212,16.625 0.06904,8.64725 -0.09622,9.54686 -2.809967,15.29887 -4.079783,8.64744 -4.726216,9.20113 -10.742235,9.20113 -2.784512,0 -5.273642,-0.34124 -5.531409,-0.75832 z m 38.611895,0.21316 C 97.726116,245.53563 97.44644,227.79971 97.44644,206.46428 v -38.79166 h -6.108331 c -6.942863,0 -7.386444,-0.51409 -6.855485,-7.94518 l 0.276316,-3.86732 35.25896,-0.22871 35.25895,-0.22871 -0.25895,5.91621 -0.25896,5.91621 -22.95976,0.23326 -22.95974,0.23326 -0.22776,39.14174 -0.22774,39.14174 -4.84724,0.25693 c -2.66598,0.14131 -5.12692,-0.0228 -5.468748,-0.36459 z m 23.197078,-0.48625 c -1.6461,-1.6461 -1.52948,-65.74681 0.12211,-67.11751 0.81243,-0.67425 6.30262,-0.91677 17.28125,-0.76339 l 16.09055,0.22481 0.25873,5.90625 0.25873,5.90625 h -11.41498 -11.41498 v 5.25 5.25 h 11.41498 11.41498 l -0.25873,5.90625 -0.25873,5.90625 -11.15625,0.24489 -11.15625,0.24489 v 10.47386 10.47386 h 11.41333 11.41334 l -0.25709,6.34375 -0.25708,6.34375 -16.21266,0.23734 c -11.87213,0.1738 -16.49874,-0.0487 -17.28125,-0.83125 z m 65.43141,0.16262 c -7.61614,-1.59241 -13.92673,-6.57323 -17.19126,-13.56871 -2.03467,-4.36006 -2.04168,-4.49831 -2.05019,-40.46875 l -0.009,-36.09375 h 5.6875 5.6875 l 0.004,34.78125 c 0.004,32.93173 0.0939,34.92994 1.70823,37.57746 4.72804,7.75422 15.68458,8.28471 20.14107,0.9752 1.69381,-2.77818 1.76602,-4.33398 1.76916,-38.11516 l 0.003,-35.21875 h 6.125 6.125 l 0.004,34.78125 c 0.004,32.93173 0.0939,34.92994 1.70823,37.57746 3.56272,5.84302 9.76045,7.71657 15.62666,4.72385 6.37624,-3.25303 6.28661,-2.6537 6.28661,-42.03911 v -35.04345 h 6.16984 6.16986 l -0.26361,36.09375 c -0.25304,34.64926 -0.33792,36.25446 -2.12097,40.10947 -2.40754,5.20516 -7.37701,10.12251 -12.46684,12.33608 -7.9938,3.4765 -18.75499,1.79006 -24.77148,-3.88207 l -2.34569,-2.21143 -1.89665,2.01889 c -3.87713,4.12701 -13.92041,6.95846 -20.09946,5.66652 z M 2.07144,135.07353 c 0,-3.59037 -0.2357775,-3.92745 -5.354335,-7.65487 -7.009363,-5.10436 -10.726328,-9.53925 -14.428479,-17.21532 -3.469664,-7.19404 -5.226217,-18.051287 -3.772335,-23.316792 1.916137,-6.939687 9.240482,-11.126142 16.135009,-9.222474 3.5694925,0.985582 9.17014,6.029354 9.17014,8.258346 0,1.684148 0.4912075,1.58634 3.6087363,-0.71855 1.8664712,-1.379945 3.8839937,-1.96875 6.7458217,-1.96875 h 4.082942 v -4.983528 c 0,-4.502679 0.29309,-5.285831 3.037668,-8.116718 8.547052,-8.81587 20.882032,-4.829764 23.104025,7.466156 0.424156,2.347179 0.05066,4.128119 -1.514057,7.21875 l -2.077118,4.10284 h 3.556918 c 3.371891,0 4.110295,-0.547085 14.195326,-10.51736 9.414239,-9.307112 10.87072,-10.431435 12.657164,-9.770582 1.110305,0.410725 2.351379,1.645988 2.757939,2.745032 0.642889,1.737899 -0.245096,3.004129 -6.815226,9.718266 l -7.554435,7.720012 4.263393,0.271066 4.263403,0.271066 -0.234351,4.8125 c -0.313539,6.43863 -3.079011,15.31347 -6.245882,20.044 -3.392331,5.06731 -10.207434,12.05859 -14.249655,14.61802 -2.788966,1.76591 -3.266768,2.55568 -3.5,5.78528 l -0.270112,3.7402 -20.78125,0.23459 -20.78125,0.23458 z M -18.330839,93.133557 c -0.279317,-0.698013 -0.486657,-0.490682 -0.52864,0.528649 -0.03797,0.92239 0.168814,1.439192 0.459568,1.148438 0.290754,-0.290754 0.321833,-1.04545 0.06904,-1.677087 z"
         id="path40" />
      <path
         style="fill:#a7b999;stroke-width:0.875"
         d="m -199.17856,200.48512 v -45.0625 h 5.6875 5.6875 v 29.75 29.75 h 12.25 12.25 v -29.75 -29.75 h 5.6875 5.6875 v 45.0625 45.0625 h -5.6875 -5.6875 v -9.1875 -9.1875 h -12.25 -12.25 v 9.1875 9.1875 h -5.6875 -5.6875 z m 73.5,43.28884 c -5.31718,-2.46495 -9.41755,-6.52322 -11.9111,-11.78884 -2.03546,-4.29826 -2.07195,-4.83655 -2.08035,-30.68788 -0.01,-29.26641 0.32419,-31.50663 5.61365,-37.68618 4.59513,-5.36837 10.16266,-7.75653 18.0028,-7.72221 7.96967,0.0349 12.10017,1.91941 17.397494,7.93749 5.771124,6.55635 6.228241,9.27705 6.222623,37.03634 -0.0026,13.71769 -0.390355,25.51031 -0.898563,27.34009 -1.432533,5.15771 -6.161479,11.37703 -10.840384,14.25685 -5.75915,3.5447 -15.42125,4.13519 -21.50617,1.31434 z m 14.44644,-10.86118 c 1.65838,-0.69292 3.80989,-2.56324 4.78113,-4.15625 1.66513,-2.73115 1.76608,-4.36263 1.76916,-28.5931 l 0.004,-25.69669 -3.50208,-3.50208 c -3.44454,-3.44454 -3.58898,-3.49578 -8.79205,-3.11943 -4.52156,0.32706 -5.69693,0.78943 -8.09167,3.18311 l -2.8017,2.80047 -0.25485,26.07051 c -0.25156,25.7341 -0.22998,26.10213 1.67239,28.5206 4.23218,5.38035 9.42367,6.91321 15.2164,4.49286 z m 31.05356,-23.50586 v -36.1407 l 2.264736,-4.54473 c 6.714514,-13.47428 23.167235,-17.41419 35.000639,-8.38155 l 4.056544,3.09643 2.307786,-2.15698 c 4.33846,-4.05495 7.983019,-5.36581 14.995295,-5.39342 7.659584,-0.0302 13.2755525,2.29645 17.6962012,7.3313 5.9508226,6.7776 5.8883125,6.28855 5.9095838,46.2366 l 0.019215,36.09375 h -5.6875 -5.6875 v -34.60595 c 0,-37.8308 0.007,-37.77585 -5.15312,-41.45007 -1.801389,-1.28269 -3.899411,-1.81898 -7.116148,-1.81898 -4.132178,0 -4.881415,0.3198 -7.958676,3.39706 l -3.397056,3.39706 v 35.54044 35.54044 h -6.125 -6.125 v -34.60595 c 0,-37.55898 -0.0026,-37.57908 -4.91302,-41.44179 -1.714178,-1.34837 -3.58029,-1.82726 -7.120426,-1.82726 -4.406115,0 -5.074528,0.2771 -8.194498,3.39706 l -3.397056,3.39706 v 35.54044 35.54044 h -5.6875 -5.6875 z m 94.5,-8.9218 v -45.0625 h 16.625 16.625 v 6.01037 6.01038 l -4.15625,-7.9e-4 c -2.285937,-4.3e-4 -7.191459,0.0512 -10.901153,0.11463 l -6.744902,0.11541 0.0018,23.625 0.0018,23.625 h 10.899709 10.899709 v 6.125 6.125 h -10.9375 -10.9375 v 3.0625 3.0625 h 10.9375 10.9375 v 6.125 6.125 h -16.625 -16.625 v -45.0625 z m 44.757475,44.44632 c 0.167764,-0.38297 1.604575,-3.28467 3.19291,-6.44822 5.507906,-10.97031 5.454426,-20.91282 -0.204409,-38.00343 -4.270638,-12.89805 -5.157547,-17.74091 -4.699161,-25.65926 0.334311,-5.77504 0.946059,-8.1149 3.399182,-13.00144 l 2.991503,-5.95897 6.430025,-0.25883 c 3.536514,-0.14235 6.275089,0.0545 6.08573,0.4375 -6.801979,13.75661 -6.394579,12.33287 -6.333434,22.13383 0.05276,8.46326 0.372987,10.15315 4.06182,21.4375 2.202472,6.7375 4.269143,14.6125 4.592587,17.5 0.827023,7.38304 -0.826027,16.39999 -4.163189,22.70915 l -2.798539,5.29085 -6.430025,0.25882 c -3.536514,0.14236 -6.292764,-0.0545 -6.125,-0.4375 z M 97.44644,206.6501 v -38.89752 l -5.90625,-0.25873 -5.90625,-0.25873 -0.258729,-5.90625 -0.258729,-5.90625 h 35.079958 35.07996 l -0.25873,5.90625 c -0.19652,4.48599 -0.57434,5.93458 -1.57123,6.02407 -0.72188,0.0648 -11.05781,0.16324 -22.96875,0.21875 l -21.65625,0.10093 v 38.9375 38.9375 h -5.6875 -5.6875 z m 23.56917,15.49127 c -0.0307,-12.87344 -0.0741,-25.17812 -0.0965,-27.34375 -0.0224,-2.16563 0.003,-6.79219 0.0558,-10.28125 l 0.0965,-6.34375 h 17.0625 17.0625 v 5.6875 5.6875 h -11.375 -11.375 v 5.25 5.25 h 11.41498 11.41498 l -0.25873,5.90625 -0.25873,5.90625 -11.15625,0.24489 -11.15625,0.24489 v 10.47386 10.47386 h 11.375 11.375 v 6.125 6.125 h -17.0625 -17.0625 z m 59.98696,21.34885 c -4.5182,-2.10402 -8.86715,-6.35041 -11.57102,-11.29816 -1.39865,-2.55936 -1.57211,-6.39023 -1.80213,-39.80069 l -0.25452,-36.96875 h 5.69511 5.69511 l 0.24691,35.94294 0.24691,35.94295 3.23851,2.96716 c 1.78117,1.63193 4.24469,3.21969 5.47449,3.52835 3.55311,0.89177 8.19293,-0.39123 11.23194,-3.10585 l 2.80506,-2.50563 0.24661,-36.38496 0.24661,-36.38496 h 6.09714 6.09714 v 34.64901 c 0,38.82057 -0.003,38.8019 6.05708,42.20768 1.85278,1.04132 4.43682,1.89331 5.74232,1.89331 3.61262,0 8.3423,-2.61103 10.17563,-5.61747 1.53597,-2.51881 1.64364,-5.00042 1.6467,-37.95376 l 0.004,-35.25873 5.90625,0.25873 5.90625,0.25873 v 35.875 c 0,40.05482 0.16337,38.85465 -6.25873,45.97817 -8.33607,9.24654 -22.74953,10.56893 -31.69921,2.90833 -3.32959,-2.85 -3.40616,-2.86854 -4.92387,-1.19148 -5.4436,6.01511 -17.91049,7.94339 -26.24956,4.06008 z M 2.6705,138.23002 c -0.3294813,-0.32949 -0.59906,-2.09937 -0.59906,-3.93306 0,-2.68523 -0.4682387,-3.62982 -2.40625,-4.8542 -13.461884,-8.50484 -21.160886,-21.75251 -21.200296,-36.479364 -0.02091,-7.80661 1.735991,-11.843177 6.147566,-14.124486 2.875871,-1.487176 8.4319987,-1.685959 11.7597813,-0.420735 2.6051112,0.990456 7.4491987,5.956641 7.4491987,7.636947 0,1.5442 0.5414675,1.416477 3.6087362,-0.851252 1.8664713,-1.379945 3.8839938,-1.96875 6.7458218,-1.96875 h 4.082942 v -4.97469 c 0,-4.32425 0.343219,-5.33939 2.625,-7.764015 6.64524,-7.061233 16.046896,-6.65105 21.21875,0.925759 2.57663,3.774785 2.683424,10.63006 0.22834,14.656696 l -1.733865,2.84375 h 3.720159 c 3.581156,0 4.09563,-0.377151 13.768387,-10.093335 8.846977,-8.886701 10.362048,-10.063506 12.673229,-9.84375 2.174436,0.206745 2.674665,0.684827 2.914363,2.785326 0.247625,2.169948 -0.759369,3.58995 -6.98068,9.84375 L 59.42258,88.92262 h 4.085287 c 2.246913,0 4.308588,0.361296 4.5815,0.802882 1.161082,1.87866 -1.440635,13.922448 -4.324241,20.017678 -3.20565,6.77598 -10.635485,15.44172 -16.361074,19.08265 -2.787216,1.7724 -3.266917,2.56652 -3.5,5.79409 l -0.270112,3.7402 -20.18219,0.23448 C 12.351552,138.72356 2.99999,138.55952 2.6705,138.23002 Z m 14.27594,-4.6824 c 0,-1.57051 -0.583336,-1.75 -5.6875,-1.75 -5.1041638,0 -5.6875,0.17949 -5.6875,1.75 0,1.57051 0.5833362,1.75 5.6875,1.75 5.104164,0 5.6875,-0.17949 5.6875,-1.75 z m -1.75,-5.61495 c 0,-0.20074 -0.726338,-2.07105 -1.614086,-4.15625 -2.111681,-4.96009 -4.5077728,-17.06026 -4.5228578,-22.84032 -0.023555,-9.01881 0.8387575,-8.51348 -14.5276074,-8.51348 -15.5312588,0 -14.5419488,-0.818633 -11.6530488,9.64259 2.783576,10.07981 7.9995563,17.22887 16.99341875,23.29127 3.79892625,2.56071 5.07221755,2.94114 9.84375005,2.94114 3.0142352,0 5.4804312,-0.16423 5.4804312,-0.36495 z"
         id="path38" />
      <path
         style="fill:#8f9888;stroke-width:0.875"
         d="m -199.17856,200.48512 v -45.0625 h 5.67601 5.67601 l 0.23024,29.96875 0.23024,29.96875 h 11.8125 11.8125 l 0.23024,-29.96875 0.23024,-29.96875 h 5.67601 5.67601 v 45.0625 45.0625 h -5.6875 -5.6875 v -9.1875 -9.1875 h -12.25 -12.25 v 9.1875 9.1875 h -5.6875 -5.6875 z m 73.05613,43.05143 c -4.5298,-2.15732 -8.88246,-6.42477 -11.57102,-11.34449 -1.36565,-2.49899 -1.57926,-5.96959 -1.81678,-29.51944 -0.17964,-17.81156 0.0564,-27.85156 0.70969,-30.1875 3.40529,-12.17596 17.61698,-19.77894 29.55778,-15.81284 5.60602,1.86201 11.701698,7.19515 14.334669,12.54144 2.006287,4.07383 2.042031,4.62114 2.042031,31.2714 0,25.80322 -0.09051,27.32068 -1.85738,31.14072 -3.960478,8.56266 -11.08353,13.23495 -20.89262,13.70428 -5.04205,0.24125 -6.89966,-0.0759 -10.50637,-1.79357 z m 16.95008,-11.75832 c 4.3273,-3.21188 4.4671,-4.18011 4.48089,-31.03319 0.0137,-26.65007 -0.21881,-28.37633 -4.17049,-30.96558 -5.93564,-3.88918 -12.30289,-3.1765 -16.73668,1.87331 l -2.70493,3.08074 v 25.46002 c 0,23.95919 0.10348,25.62747 1.75545,28.30041 3.48092,5.63224 12.03424,7.24896 17.37576,3.28429 z m 28.99379,-22.37131 v -36.1407 l 2.270441,-4.55618 c 6.741665,-13.52876 23.841038,-17.37051 35.543305,-7.98559 l 3.251247,2.60742 3.838073,-2.92968 c 12.457471,-9.509 30.8209478,-4.00618 36.04536275,10.8014 1.06968755,3.03183 1.30157125,9.98285 1.30157125,39.01654 v 35.32749 H -3.5879025 -9.247245 l -0.2469075,-35.81835 -0.2469075,-35.81835 -2.583324,-2.69561 c -5.643391,-5.88867 -14.427525,-5.11506 -19.11308,1.68326 -1.344306,1.95046 -1.491096,5.63291 -1.491096,37.40625 v 35.2428 h -6.096843 -6.096842 l -0.246908,-35.81835 -0.246907,-35.81835 -2.575256,-2.68719 c -5.653288,-5.89898 -14.431008,-5.13013 -19.121148,1.67484 -1.344306,1.95046 -1.491096,5.63291 -1.491096,37.40625 v 35.2428 h -5.6875 -5.6875 z m 94.5,-8.9218 v -45.0625 h 16.625 16.625 v 5.66057 5.66057 l -10.71875,0.24568 -10.71875,0.24568 v 24.0625 24.0625 l 10.71875,0.24568 10.71875,0.24568 v 5.66057 5.66057 h -10.9375 -10.9375 v 3.0625 3.0625 h 10.9375 10.9375 v 6.125 6.125 h -16.625 -16.625 z m 44.796745,44.44632 c 9.291214,-18.79094 9.57194,-24.62137 2.24539,-46.63382 -3.363561,-10.10575 -3.643789,-11.66944 -3.685019,-20.5625 -0.04305,-9.29134 0.06151,-9.83733 3.017884,-15.75 l 3.0625,-6.125 6.430025,-0.25883 c 3.536514,-0.14235 6.275089,0.0545 6.08573,0.4375 -6.801664,13.75597 -6.394517,12.33331 -6.334326,22.13383 0.05127,8.3501 0.387152,10.1844 3.685018,20.125 6.499903,19.59236 6.712029,29.49524 0.880338,41.09852 l -2.871785,5.71398 -6.430025,0.25882 c -3.536514,0.14236 -6.275089,-0.0545 -6.08573,-0.4375 z M 97.44644,206.71217 v -38.83545 l -1.96875,-0.5276 c -1.082812,-0.29018 -3.839063,-0.53299 -6.125,-0.53956 l -4.15625,-0.0119 v -5.6875 -5.6875 h 35 35 v 5.67297 5.67297 l -22.96875,0.23328 -22.96875,0.23328 -0.22776,39.15625 -0.22776,39.15625 h -5.67849 -5.67849 z m 23.625,5.14795 v -33.6875 h 17.0625 17.0625 v 5.6875 5.6875 h -11.375 -11.375 v 5.25 5.25 h 11.41498 11.41498 l -0.25873,5.90625 -0.25873,5.90625 -11.15625,0.24489 -11.15625,0.24489 v 10.47386 10.47386 h 11.375 11.375 v 6.125 6.125 h -17.0625 -17.0625 z m 59.67387,31.42276 c -2.49959,-1.24559 -5.90241,-3.85088 -7.5618,-5.78951 -5.61412,-6.55884 -5.73707,-7.56151 -5.73707,-46.78912 v -35.28163 h 5.6875 5.6875 v 35.47138 35.47139 l 3.43721,3.68486 c 3.23333,3.46629 3.72258,3.68487 8.24834,3.68487 5.60222,0 8.8875,-1.92912 11.28184,-6.62469 1.3795,-2.70537 1.53002,-6.37635 1.53125,-37.34406 l 0.001,-34.34375 h 5.6875 5.6875 v 35.11547 c 0,33.67981 0.0721,35.23215 1.76379,37.96934 4.46117,7.21832 15.75438,7.35835 20.08878,0.2491 1.6939,-2.77833 1.76603,-4.33387 1.76916,-38.15514 l 0.004,-35.25873 5.75096,0.25873 5.75096,0.25873 -0.0543,35.3055 c -0.0378,24.55943 -0.37031,36.36016 -1.09247,38.77053 -1.43906,4.80312 -7.24826,11.09172 -12.50928,13.54158 -8.09259,3.76841 -20.12514,1.9167 -25.28971,-3.89187 l -1.63137,-1.8348 -3.18113,2.55107 c -7.08027,5.67795 -17.45601,6.89942 -25.31976,2.98075 z M 2.6547762,138.21428 C 2.33394,137.89346 2.07144,136.17572 2.07144,134.3971 c 0,-2.9824 -0.4696825,-3.58312 -6.0402213,-7.7254 -6.7580797,-5.02537 -10.7308517,-10.09211 -14.5048837,-18.49908 -2.109993,-4.70019 -2.616688,-7.1707 -2.918843,-14.231595 l -0.365618,-8.544095 3.924646,-3.924655 c 3.58099,-3.58099 4.299872,-3.924655 8.2096875,-3.924655 5.6680137,0 9.8595525,2.339969 12.233725,6.829594 1.81223,3.42699 1.9577425,3.512985 3.3468575,1.978033 1.7771075,-1.963692 8.428227,-3.93309 10.771355,-3.18941 1.573014,0.499258 1.682817,0.198643 1.326176,-3.630698 -0.312419,-3.35454 0.01339,-4.76105 1.657889,-7.157063 3.412902,-4.972528 6.302205,-6.594665 11.609596,-6.517954 5.3396,0.07717 9.305739,2.315837 11.450338,6.46303 1.900596,3.675342 1.653688,10.131984 -0.522069,13.652442 L 40.42871,88.92262 h 3.745718 c 3.604597,0 4.132021,-0.381553 13.999553,-10.127547 8.850293,-8.741277 10.593048,-10.088707 12.731907,-9.84375 2.001798,0.229258 2.533667,0.771137 2.767414,2.819538 0.247626,2.169948 -0.759368,3.58995 -6.98068,9.84375 L 59.42258,88.92262 h 4.043314 c 2.428991,0 4.209756,0.436686 4.460181,1.09375 0.556587,1.460323 -0.675938,10.25301 -2.018293,14.39831 -3.006097,9.28304 -11.70386,20.5742 -18.787063,24.38875 -2.731549,1.47104 -3.049279,2.02193 -3.049279,5.28706 0,2.51649 -0.428488,3.80933 -1.384066,4.17601 -1.890823,0.72558 -39.303609,0.67678 -40.0325978,-0.0522 z M 29.19644,133.54762 c 0,-1.66358 -0.583336,-1.75 -11.8125,-1.75 -11.2291638,0 -11.8125,0.0865 -11.8125,1.75 0,1.66358 0.5833362,1.75 11.8125,1.75 11.229164,0 11.8125,-0.0864 11.8125,-1.75 z m 2.831237,-8.53125 c 1.229743,-3.1741 2.163499,-6.63756 4.114776,-15.26247 0.510947,-2.25842 0.928987,-7.08185 0.928987,-10.718747 V 92.42262 h -28 -28 v 2.142332 c 0,4.187812 4.454362,16.203318 7.54768,20.359658 3.5995837,4.83658 6.2228862,7.27372 11.6548775,10.82779 3.863685,2.52796 3.9802175,2.54522 17.1862425,2.54522 H 30.756425 Z M 63.32144,80.61012 c 4.552861,-4.571875 7.884187,-8.3125 7.402938,-8.3125 -0.48125,0 -4.600077,3.740625 -9.152938,8.3125 -4.552861,4.571875 -7.884188,8.3125 -7.402938,8.3125 0.48125,0 4.600077,-3.740625 9.152938,-8.3125 z"
         id="path36" />
      <path
         style="fill:#7d7c80;stroke-width:0.875"
         d="m -199.17856,200.48512 v -45.0625 h 5.6875 5.6875 v 30.1875 30.1875 h 12.25 12.25 v -30.1875 -30.1875 h 5.6875 5.6875 v 45.0625 45.0625 h -5.6875 -5.6875 v -9.1875 -9.1875 h -12.25 -12.25 v 9.1875 9.1875 h -5.6875 -5.6875 z m 75.02947,43.81409 c -6.89557,-2.46078 -12.57048,-8.58851 -14.64549,-15.81409 -0.68711,-2.39264 -0.91675,-11.80514 -0.7258,-29.75 0.26574,-24.97381 0.37143,-26.42016 2.17393,-29.75 2.2493,-4.15524 7.46906,-9.29746 11.49618,-11.32539 10.57632,-5.32589 24.60131,-0.19254 30.612943,11.20477 l 2.371267,4.49562 v 26.6875 c 0,30.05225 -0.16618,31.08612 -6.022004,37.46522 -6.608076,7.19856 -16.590876,9.88044 -25.261026,6.78637 z m 14.30989,-12.11278 c 5.71452,-3.81755 6.03276,-5.42598 6.03428,-30.49819 7.5e-4,-12.33203 -0.25375,-23.69745 -0.56557,-25.2565 -0.81219,-4.06097 -5.53472,-8.45353 -9.87738,-9.18721 -2.71273,-0.45831 -4.44774,-0.17119 -7.29531,1.2073 -6.70041,3.24361 -6.76082,3.53123 -6.75711,32.16829 0.004,23.7633 0.10647,25.40927 1.76723,28.13323 3.27325,5.36877 11.3194,7.02344 16.69386,3.43308 z m 29.66064,-22.50016 c 0,-39.20302 -0.04235,-38.83156 5.173245,-45.41673 1.415173,-1.78681 4.669193,-4.40723 7.231149,-5.82316 8.25139,-4.56036 19.629907,-3.16673 26.658887,3.26517 1.874207,1.715 1.879115,1.7139 5.837257,-1.30742 11.717238,-8.94397 27.988467,-5.06 34.65006075,8.27103 L 2.07144,174.07713 v 35.73525 35.73524 h -5.6875 -5.6875 v -35.40705 -35.40706 l -2.706147,-3.08213 c -3.840428,-4.374 -8.311337,-5.56221 -13.488895,-3.58489 -7.169252,2.73797 -6.93497,1.42729 -7.429958,41.56626 l -0.4375,35.47737 h -5.6875 -5.6875 l -0.4375,-35.72425 -0.4375,-35.72425 -3.21069,-2.94161 c -4.370231,-4.00398 -8.307976,-4.64433 -13.400371,-2.17914 -2.189609,1.05997 -4.466613,2.7748 -5.06002,3.81073 -0.785182,1.37073 -1.198033,11.53157 -1.516419,37.32102 l -0.4375,35.4375 -5.46875,0.26051 -5.46875,0.26049 z m 94.5,-9.20115 v -45.0625 h 16.625 16.625 v 5.66057 5.66057 l -10.71875,0.24568 -10.71875,0.24568 v 24.0625 24.0625 l 10.71875,0.24568 10.71875,0.24568 v 5.66057 5.66057 h -10.9375 -10.9375 v 3.0625 3.0625 h 10.9375 10.9375 v 6.125 6.125 h -16.625 -16.625 z m 44.625,44.57966 c 0,-0.30773 0.767121,-1.63684 1.704719,-2.95357 6.229921,-8.74911 7.468667,-23.28072 3.138178,-36.81359 -6.824536,-21.32683 -7.841452,-28.71796 -5.184917,-37.68494 0.774393,-2.6139 2.386807,-6.426 3.583143,-8.47131 l 2.175162,-3.71875 h 6.041858 c 3.323022,0 6.041857,0.20532 6.041857,0.45626 0,0.25094 -0.956086,1.92438 -2.12464,3.71875 -6.281074,9.6449 -6.462899,21.82648 -0.58737,39.35183 6.272525,18.7095 6.457001,28.99981 0.725585,40.47316 l -2.841151,5.6875 -6.336208,0.25708 c -3.484924,0.1414 -6.336216,0.005 -6.336216,-0.30242 z m 38.5,-38.89216 v -39.375 h -6.125 -6.125 v -5.6875 -5.6875 h 35 35 v 5.6875 5.6875 h -23.1875 -23.1875 v 39.375 39.375 h -5.6875 -5.6875 z m 23.625,5.6875 v -33.6875 h 17.0625 17.0625 v 5.6875 5.6875 h -11.375 -11.375 v 5.22385 5.22387 l 11.15625,0.24488 11.15625,0.2449 0.25981,5.4423 0.25983,5.44231 -11.19733,0.24519 -11.19731,0.2452 -0.24568,10.71875 -0.24569,10.71875 h 11.40194 11.40193 v 6.125 6.125 h -17.0625 -17.0625 z m 61.58718,32.27248 c -4.97752,-1.76529 -10.00447,-6.30686 -12.5945,-11.37843 l -2.18018,-4.26905 -0.25489,-36.53125 -0.25489,-36.53125 h 5.72364 5.72364 v 35.11547 c 0,33.67981 0.0721,35.23215 1.76379,37.96934 3.6399,5.8895 13.22477,7.44056 18.06133,2.92278 4.70214,-4.39224 4.67488,-4.15074 4.67488,-41.40164 v -34.60595 h 5.6875 5.6875 l 0.004,35.21875 c 0.003,32.91423 0.11081,35.3951 1.6467,37.91379 3.20058,5.24859 11.15918,7.13731 16.45874,3.90596 6.07892,-3.70655 5.92587,-2.67684 6.20983,-41.77974 l 0.25581,-35.25876 h 5.21271 5.21271 l -0.009,36.09375 c -0.009,35.97044 -0.0155,36.10869 -2.0502,40.46875 -2.4881,5.3317 -7.66305,10.1614 -13.12135,12.24594 -7.36806,2.81389 -18.92512,0.53604 -23.62003,-4.65541 l -1.61264,-1.78318 -4.07486,2.87762 c -2.24118,1.58269 -5.41331,3.3276 -7.04919,3.87757 -3.98794,1.34074 -11.08617,1.15067 -15.501,-0.41506 z M 2.6547762,138.21428 C 2.33394,137.89346 2.07144,136.01425 2.07144,134.03827 c 0,-3.22937 -0.3194712,-3.76473 -3.1590738,-5.29396 -5.9694774,-3.21479 -12.2973282,-10.44344 -16.1998202,-18.50598 -3.360078,-6.94191 -3.70496,-8.30354 -4.080973,-16.112181 l -0.410717,-8.529457 3.549998,-3.805786 c 3.46563,-3.715337 3.681466,-3.805786 9.081546,-3.805786 6.425825,0 9.3625,1.643582 11.905215,6.663055 1.5943288,3.147287 1.6122225,3.155031 3.5905888,1.553046 2.5396,-2.056442 7.7297062,-3.498066 10.2848722,-2.856761 1.836013,0.46081 1.944565,0.274094 1.485444,-2.555131 -1.77534,-10.940134 10.174098,-18.50156 20.502755,-12.973835 5.203949,2.785072 7.140753,12.47764 3.6288,18.1601 L 40.42871,88.92262 h 3.745718 c 3.603197,0 4.133333,-0.382848 13.933701,-10.0625 5.603386,-5.534375 10.80835,-10.0625 11.566581,-10.0625 2.780776,0 4.14673,1.105676 4.14673,3.356587 0,1.703529 -1.85395,4.157992 -7.19943,9.531384 l -7.19943,7.237029 h 3.647787 c 2.006288,0 3.9452,0.481215 4.308693,1.069364 1.663865,2.692182 -0.773789,14.336946 -4.569058,21.826546 -2.592765,5.11657 -11.403927,14.67708 -15.618487,16.94678 -2.808514,1.51248 -3.120075,2.04423 -3.120075,5.32518 0,2.51649 -0.428488,3.80933 -1.384066,4.17601 -1.890823,0.72558 -39.303609,0.67678 -40.0325978,-0.0522 z M 40.57144,133.54762 c 0,-1.69166 -0.583336,-1.75 -17.5,-1.75 -16.9166638,0 -17.5,0.0584 -17.5,1.75 0,1.69166 0.5833362,1.75 17.5,1.75 16.916664,0 17.5,-0.0584 17.5,-1.75 z m 5.559864,-8.1931 c 9.05443,-5.79204 15.960183,-16.25827 17.99686,-27.275672 0.518805,-2.806449 0.943276,-5.227189 0.943276,-5.37943 0,-0.152242 -18.9,-0.276798 -42,-0.276798 h -42 v 1.842453 c 0,2.677421 2.545498,12.079997 4.109928,15.181247 2.755768,5.46292 8.2996283,11.89005 13.1737808,15.27267 l 5.0287912,3.48996 19.073285,0.0444 19.073276,0.0444 4.600803,-2.94309 z M -11.92856,84.954338 c 0,-3.643789 -0.137559,-3.894669 -1.682144,-3.06803 -1.851797,0.991051 -5.317856,5.083758 -5.317856,6.279314 0,0.416352 1.575,0.756998 3.5,0.756998 h 3.5 z m 24.604746,2.529563 c 1.068716,-1.287711 0.96516,-1.369226 -0.986606,-0.77665 -3.0721162,0.932724 -4.2447125,2.215369 -2.025275,2.215369 0.999819,0 2.355168,-0.647421 3.011881,-1.438719 z m 50.410063,-6.63775 c 7.808281,-7.77581 9.445415,-9.880981 6.935022,-8.91765 -1.478487,0.56735 -16.699217,16.994119 -15.74643,16.994119 0.385674,0 4.350806,-3.634409 8.811408,-8.076469 z m -34.786465,4.957006 c -1.068244,-2.809695 -1.106149,-10.448121 -0.06974,-14.06174 0.703903,-2.454375 0.610715,-2.686941 -0.916606,-2.287538 -2.066488,0.5404 -5.762435,5.247077 -6.012116,7.656241 -0.411312,3.968685 0.153833,5.686564 2.712456,8.245195 3.420611,3.420611 5.498841,3.63776 4.286039,0.447842 z"
         id="path34" />
      <path
         style="fill:#6c6a6e;stroke-width:0.875"
         d="m -199.17856,200.48512 v -45.0625 h 5.6875 5.6875 v 30.1875 30.1875 h 12.25 12.25 v -30.22926 -30.22924 l 5.46875,0.26049 5.46875,0.26051 v 44.625 44.625 l -5.46875,0.26051 -5.46875,0.26049 v -9.22924 -9.22926 h -12.25 -12.25 v 9.1875 9.1875 h -5.6875 -5.6875 z m 74.42187,43.60404 c -2.16518,-0.79411 -5.7318,-3.26814 -8.04221,-5.57854 -6.64658,-6.64658 -7.02683,-8.91067 -6.70913,-39.94654 0.30364,-29.66154 0.31354,-29.70704 8.00093,-36.79304 13.19415,-12.16194 34.457175,-4.70706 38.215895,13.39861 0.66717,3.21371 0.902151,12.89671 0.695222,28.64753 -0.347987,26.48639 -0.483962,27.19732 -6.46912,33.82217 -1.818617,2.013 -4.908447,4.47798 -6.866277,5.47774 -4.73936,2.42014 -13.62599,2.87901 -18.82531,0.97207 z m 14.91748,-11.90273 c 5.74986,-3.84115 6.03277,-5.3185 6.03429,-31.51067 0.002,-25.81816 -0.3155,-27.74043 -5.14133,-31.17673 -4.07375,-2.90076 -8.06152,-3.24275 -12.53881,-1.07534 -6.76743,3.27606 -6.82025,3.52597 -6.8056,32.19643 0.009,18.43173 0.30788,25.82298 1.1065,27.40123 2.95631,5.84246 11.69346,7.94052 17.34495,4.16508 z m 29.669199,-22.2533 0.0088,-35.69801 2.071877,-4.375 c 4.306881,-9.09443 11.741494,-13.8864 21.536025,-13.88101 5.896371,0.004 11.401364,2.03954 15.399956,5.69643 1.822538,1.66679 1.874434,1.65557 6.389215,-1.38266 7.410813,-4.98711 12.277029,-5.83279 20.135115,-3.49919 5.3531105,1.58971 11.4935805,6.78309 14.368218,12.1521 1.8435812,3.4433 1.9019087,4.53048 2.1498837,40.07058 l 0.2548875,36.53125 h -5.67714 -5.67714 l -0.031675,-35.20898 c -0.035262,-39.1947 0.262745,-37.18913 -6.1774212,-41.57227 -3.551039,-2.41681 -6.917934,-2.49712 -11.285094,-0.26916 -6.830285,3.48456 -6.629743,2.2718 -6.917347,41.83166 l -0.256034,35.21875 h -5.212716 -5.212708 v -33.84875 c 0,-32.81873 -0.05705,-33.96666 -1.876096,-37.72423 -1.395643,-2.88301 -2.796141,-4.29332 -5.46875,-5.50704 -4.456471,-2.02383 -6.851023,-2.07435 -10.744694,-0.22669 -6.059847,2.87559 -5.92473,2.0031 -6.41046,41.39184 l -0.4375,35.47737 -5.46875,0.2605 -5.46875,0.2605 0.0088,-35.698 z m 94.491451,-9.44801 v -45.0625 h 16.625 16.625 v 5.6875 5.6875 H 36.620097 25.668755 l 0.232592,24.28125 0.232593,24.28125 10.71875,0.24568 10.71875,0.24568 v 5.66057 5.66057 h -10.9375 -10.9375 v 3.0625 3.0625 h 10.9375 10.9375 v 6.125 6.125 h -16.625 -16.625 z m 47.724162,39.19454 c 6.218354,-11.94569 6.065177,-21.99688 -0.643763,-42.24199 -3.241132,-9.78055 -3.63692,-11.88886 -3.698704,-19.70255 -0.06606,-8.35279 0.07779,-9.05783 3.168926,-15.53125 l 3.238122,-6.78125 h 6.145763 6.145773 l -3.258894,6.24161 c -3.227796,6.18207 -3.258491,6.3386 -3.217217,16.40625 0.0392,9.56127 0.259603,10.81388 3.713018,21.10214 6.196208,18.45941 6.40269,29.06681 0.782171,40.18115 l -2.910993,5.75635 -6.279315,0.25704 -6.279324,0.25703 z M 97.44644,206.17262 v -39.375 h -6.125 -6.125 v -5.69754 -5.69754 l 34.78125,0.22879 34.78125,0.22879 0.26051,5.46875 0.26049,5.46875 H 132.0507 108.82144 v 39.375 39.375 h -5.6875 -5.6875 z m 23.625,5.6875 v -33.6875 h 17.0625 17.0625 v 5.6875 5.6875 h -11.375 -11.375 v 5.22385 5.22387 l 11.15625,0.24488 11.15625,0.2449 0.25981,5.4423 0.25983,5.44231 -11.19733,0.24519 -11.19731,0.2452 -0.24568,10.71875 -0.24569,10.71875 h 11.40194 11.40193 v 6.125 6.125 h -17.0625 -17.0625 z m 62.40145,32.58056 c -5.32323,-2.0646 -10.2964,-6.35963 -12.96395,-11.19616 l -2.625,-4.7594 -0.25489,-36.53125 -0.25489,-36.53125 h 5.72364 5.72364 l 0.004,35.21875 c 0.004,33.38709 0.0921,35.36444 1.71131,38.02002 4.90992,8.05254 16.98553,7.12034 21.55605,-1.66407 0.99511,-1.91301 1.22914,-8.9584 1.22914,-37.0105 v -34.6477 l 5.46875,0.26049 5.46875,0.26051 0.4375,35.4375 c 0.33336,27.00174 0.71116,35.9173 1.58709,37.45307 3.02752,5.30812 11.49439,7.03174 16.87727,3.43574 6.01831,-4.0205 6.03276,-4.12209 6.03428,-42.42006 l 0.001,-34.34375 h 5.25 5.25 l -0.0192,36.09375 c -0.0176,33.041 -0.15417,36.38977 -1.61471,39.59375 -6.54897,14.36637 -23.4592,18.81147 -35.78146,9.40567 l -3.90653,-2.98192 -2.30779,2.15698 c -1.26929,1.18634 -3.68278,2.85196 -5.36332,3.70136 -3.78555,1.91336 -13.47967,2.50325 -17.23053,1.04847 z M 3.16519,138.21812 c -0.6307088,-0.25449 -1.09375,-1.99317 -1.09375,-4.10694 0,-3.28876 -0.3134862,-3.83442 -3.04927875,-5.30775 C -6.4810725,125.83975 -14.373704,116.68335 -17.779939,109.311 c -2.603195,-5.63428 -3.215082,-8.08522 -3.569256,-14.296945 -0.466629,-8.183971 0.350621,-10.875672 4.470515,-14.724027 2.696601,-2.518872 9.02188,-3.442758 12.8146462,-1.871748 3.042515,1.260254 7.8854738,6.425843 7.8854738,8.410798 0,1.094835 0.4264662,1.0101 2.288755,-0.454782 2.815995,-2.215053 7.888895,-3.690925 10.464571,-3.044466 1.798055,0.451281 1.897508,0.237353 1.536833,-3.3061 -0.786249,-7.724544 5.048741,-13.853796 13.182986,-13.847837 5.49633,0.0044 9.315075,2.153541 11.31564,6.369413 2.129925,4.488488 1.868965,9.407248 -0.699913,13.192708 l -2.161136,3.184606 h 4.581658 4.581649 L 58.94644,78.86012 c 5.518677,-5.534375 10.650692,-10.0625 11.404479,-10.0625 0.753786,0 1.843021,0.4725 2.420521,1.05 2.255715,2.255715 0.973787,4.754207 -5.9815,11.658028 l -7.0315,6.979472 3.75025,0.4375 c 3.618816,0.42217 3.75984,0.553709 4.02388,3.753242 0.401546,4.865954 -1.334541,12.088778 -4.361849,18.146958 -3.114772,6.23319 -10.82284,14.89543 -15.687709,17.62964 -3.121343,1.75429 -3.411572,2.23071 -3.411572,5.60017 0,2.55102 -0.425338,3.84598 -1.384066,4.21387 -1.648807,0.63271 -37.944384,0.58828 -39.522184,-0.0484 z m 37.40625,-4.6705 c 0,-1.63149 -0.583336,-1.75 -8.613885,-1.75 -4.737635,0 -12.80951,-0.25671 -17.9375,-0.57047 L 4.69644,130.65668 v 2.32047 2.32047 h 17.9375 c 17.354164,0 17.9375,-0.0569 17.9375,-1.75 z m 6.055018,-8.42796 c 5.260018,-3.42371 10.977697,-9.90304 13.965411,-15.82575 1.685372,-3.341 4.434404,-13.051416 4.466639,-15.77754 0.01017,-0.859985 -8.9635,-1.09375 -41.987068,-1.09375 h -42 v 2.466187 c 0,3.659102 2.444943,11.315773 5.390306,16.880493 2.822601,5.33279 6.8322715,9.59023 12.984694,13.78706 l 3.9375,2.68593 19.180018,0.0276 19.180017,0.0277 4.882483,-3.17796 z M -11.70603,86.07887 c 0.449417,-3.034544 0.01794,-5.03125 -1.087319,-5.03125 -1.123132,0 -6.135211,5.496846 -6.135211,6.72861 0,0.748545 1.180182,1.14639 3.400687,1.14639 3.166949,0 3.429633,-0.195458 3.821843,-2.84375 z m 24.27747,2.029606 c 0,-0.447781 0.885938,-0.984777 1.96875,-1.193342 1.516454,-0.292075 1.353853,-0.406569 -0.707761,-0.498357 -1.472083,-0.06554 -3.440833,0.458947 -4.3750003,1.165518 -1.6268787,1.230513 -1.5970412,1.285839 0.7077613,1.3125 1.323438,0.01531 2.40625,-0.338538 2.40625,-0.786319 z m 16.1875,-9.133337 c 0,-8.462764 -0.196044,-9.880658 -1.3125,-9.492656 -2.310149,0.802847 -4.583049,3.173537 -5.800769,6.050336 -1.663681,3.930369 0.0044,8.726287 3.961414,11.389061 1.635235,1.100409 3.01336,2.001037 3.0625,2.001396 0.04917,3.68e-4 0.08935,-4.476299 0.08935,-9.948137 z m 34.534736,1.662858 c 4.537601,-4.556545 7.959928,-8.574877 7.605185,-8.929628 -0.354751,-0.354751 -4.66333,3.373335 -9.574626,8.284631 -4.911296,4.911288 -8.333622,8.92962 -7.605176,8.92962 0.728446,0 5.037025,-3.728078 9.574617,-8.284623 z"
         id="path32" />
      <path
         style="fill:#4d4c4f;stroke-width:0.875"
         d="m -199.17856,200.48512 v -45.146 l 5.46875,0.26049 5.46875,0.26051 0.23024,29.96875 0.23024,29.96875 h 12.23851 12.23851 v -30.22926 -30.22924 l 5.46875,0.26049 5.46875,0.26051 v 44.625 44.625 l -5.46875,0.26051 -5.46875,0.26049 v -9.22924 -9.22926 h -12.21939 -12.21939 l -0.24936,8.96875 -0.24936,8.96875 -5.46875,0.26051 -5.46875,0.26049 z m 76.44412,44.10957 c -5.16895,-1.49808 -10.97852,-6.2512 -13.808,-11.29707 l -2.69862,-4.8125 -0.26708,-26.09748 c -0.30357,-29.66438 0.0135,-31.69541 6.01166,-38.50969 6.12078,-6.95357 14.69035,-9.63407 23.04004,-7.20675 6.48478,1.88518 11.741565,6.09282 14.709232,11.77358 l 2.443648,4.67767 -0.0087,27.24384 c -0.0088,26.76512 -0.04471,27.32156 -2.068439,31.66749 -4.710351,10.11556 -16.736641,15.63804 -27.353891,12.56091 z m 14.20824,-13.11962 c 4.61452,-4.3109 4.72264,-5.02033 4.72264,-30.98995 0,-26.10465 -0.18117,-27.26317 -4.83611,-30.92474 -5.03868,-3.96343 -11.92103,-3.44729 -16.6143,1.24597 l -3.04959,3.04961 v 26.46364 c 0,29.13199 -0.0791,28.67438 5.57087,32.22669 3.84333,2.41642 11.05534,1.87261 14.20649,-1.07122 z m 28.366855,-21.5837 c 0.01829,-33.95054 0.104309,-35.84461 1.79788,-39.59375 1.96483,-4.34965 6.977241,-9.9783 10.562317,-11.8609 7.564778,-3.97239 16.905963,-3.25431 24.359125,1.87256 l 4.386463,3.01736 4.386462,-3.01736 c 10.529567,-7.24306 22.721064,-5.63121 31.0556842,4.10592 5.4477063,6.36442 5.6828538,8.298 5.6828538,46.72873 v 34.40369 h -5.25 -5.25 v -33.9396 c 0,-33.47568 -0.02695,-33.99208 -1.96875,-37.77901 -4.366749,-8.51593 -15.431413,-9.30029 -21.156555,-1.49975 -1.751549,2.3865 -1.820761,3.65291 -2.068238,37.84375 l -0.256033,35.37461 h -5.212716 -5.212708 L -44.318,211.20387 c -0.01418,-33.92701 -0.03806,-34.38512 -1.96875,-37.75266 -4.679072,-8.16154 -15.551682,-8.71905 -21.002835,-1.07696 -1.929962,2.70565 -1.954348,3.12488 -2.207564,37.95462 l -0.256034,35.21875 h -5.212716 -5.212708 l 0.01925,-35.65625 z m 94.480785,-9.40625 v -45.0625 h 16.625 16.625 v 5.6875 5.6875 h -10.9375 -10.9375 v 24.5 24.5 h 10.9375 10.9375 v 5.6875 5.6875 h -10.9375 -10.9375 v 3.0625 3.0625 h 10.9375 10.9375 v 6.125 6.125 h -16.625 -16.625 z m 48.43776,37.96787 3.62474,-7.09463 -0.0686,-9.74912 c -0.06318,-8.96862 -0.360649,-10.64498 -3.716046,-20.93922 -6.567776,-20.14965 -6.756365,-29.11707 -0.8456,-40.20681 l 2.686565,-5.04059 h 5.922752 5.922744 l -3.028996,5.90625 c -5.634851,10.98742 -5.470115,19.56189 0.737844,38.40333 3.515802,10.67062 3.709125,11.79626 3.735996,21.75292 0.02791,10.32938 -0.02424,10.6102 -3.20978,17.28125 l -3.238121,6.78125 H 65.208579 59.13446 Z m 34.68724,-32.28037 v -39.375 h -6.125 -6.125 v -5.69754 -5.69754 l 34.78125,0.22879 34.78125,0.22879 0.26051,5.46875 0.26049,5.46875 H 132.0507 108.82144 v 39.375 39.375 h -5.6875 -5.6875 z m 23.625,5.6875 v -33.6875 h 17.0625 17.0625 v 4.30343 c 0,7.27189 0.33728,7.07157 -11.90612,7.07157 h -10.84388 v 5.25 5.25 h 10.84388 c 12.2434,0 11.90612,-0.20032 11.90612,7.07157 v 4.30343 h -11.375 -11.375 v 10.9375 10.9375 h 10.84388 c 12.04305,0 11.90612,-0.0704 11.90612,6.125 0,6.39335 0.77082,6.125 -17.59362,6.125 h -16.53138 z m 62.75289,32.42995 c -7.21636,-2.5745 -12.54473,-7.89891 -15.11444,-15.10319 -0.92153,-2.58352 -1.19522,-11.20446 -1.22505,-38.58727 l -0.0384,-35.26049 5.46875,0.26049 5.46875,0.26051 0.4375,35.4375 c 0.4752,38.49145 0.41649,38.05392 5.52459,41.16855 5.46752,3.33378 13.10896,1.76518 16.70922,-3.42999 l 2.26619,-3.27012 v -35.21348 -35.21346 l 5.46875,0.26049 5.46875,0.26051 0.0962,34.58769 c 0.10661,38.33477 0.12449,38.46333 5.85254,42.06221 3.90392,2.4528 11.09084,1.93143 14.26613,-1.03495 4.75682,-4.44383 4.72264,-4.14387 4.72264,-41.4465 v -34.60595 h 5.28577 5.28577 l -0.25452,36.96875 -0.25452,36.96875 -2.39467,4.07355 c -7.44752,12.66892 -23.74816,15.8449 -34.98333,6.81608 l -3.44854,-2.77133 -2.41772,2.31632 c -5.17947,4.96226 -15.19462,6.99113 -22.19035,4.49533 z M 2.0698737,134.21971 c -0.00175,-3.46863 -0.2794312,-3.91013 -3.9034362,-6.19964 -8.2883065,-5.23622 -16.4972155,-16.9775 -18.7703685,-26.84745 -1.516795,-6.585863 -1.172807,-14.060734 0.795646,-17.289247 3.451236,-5.660481 9.8744538,-7.719373 16.0424337,-5.142227 3.08490005,1.288954 7.5872913,6.056864 7.5872913,8.03474 0,0.869418 0.913255,0.599244 3.1846062,-0.942139 3.0000598,-2.035897 5.2443128,-2.551185 9.6197148,-2.208718 1.692373,0.132466 1.830999,-0.205993 1.483519,-3.621897 -0.777079,-7.638968 5.065183,-13.830512 13.050301,-13.830512 5.321033,0 8.657889,1.856855 11.079381,6.16532 2.495387,4.439934 2.373272,9.418561 -0.32865,13.400074 l -2.161136,3.184606 h 4.581658 4.581649 L 58.94644,78.86012 c 5.518677,-5.534375 10.650692,-10.0625 11.404479,-10.0625 0.753786,0 1.843021,0.4725 2.420521,1.05 2.255715,2.255715 0.973787,4.754207 -5.9815,11.658028 l -7.0315,6.979472 3.75025,0.4375 c 3.724612,0.434507 3.752122,0.463601 4.024151,4.255274 0.356379,4.967436 -2.69157,14.970806 -6.458996,21.198416 -3.130199,5.17427 -9.449746,11.59735 -14.11634,14.34761 -2.317131,1.36559 -2.846568,2.26562 -3.0625,5.20611 l -0.261065,3.55509 -20.78125,0.23459 -20.78125,0.23458 -0.00175,-3.73458 z M 41.00894,133.32887 v -2.40625 H 22.85269 4.69644 v 2.40625 2.40625 h 18.15625 18.15625 z m 6.278073,-8.4803 c 5.415733,-3.61649 11.660582,-11.11358 14.276123,-17.13886 1.495288,-3.4446 3.508304,-11.487752 3.508304,-14.017658 0,-1.091615 -5.883308,-1.269432 -42,-1.269432 h -42 l 0.01041,2.40625 c 0.01461,3.383826 2.113317,10.88069 4.324976,15.44937 2.504687,5.174 8.0655835,11.36028 13.504076,15.02278 l 4.4496725,2.9966 H 22.741303 42.122019 Z M -4.92856,88.260595 c 0,-0.364114 -0.3662662,-1.939114 -0.8139162,-3.5 -0.5882188,-2.051 -0.5275638,-2.858826 0.21875,-2.913181 0.5679624,-0.04139 -0.1485838,-0.430229 -1.5923338,-0.864142 -3.561232,-1.070308 -7.553998,0.358549 -9.911204,3.546839 -1.045712,1.414411 -1.901296,2.981344 -1.901296,3.48208 0,0.554706 2.735058,0.910429 7,0.910429 3.85,0 7,-0.297911 7,-0.662025 z M 17.529776,87.61012 c 0,-1.751426 -5.767256,-1.771315 -8.0723473,-0.02782 -1.5596612,1.179666 -1.2991649,1.286941 3.1869253,1.3125 3.771626,0.02144 4.885422,-0.271399 4.885422,-1.284675 z m 3.791664,0.968616 c 0,-0.18914 -0.611074,-0.578375 -1.357948,-0.864981 -0.77868,-0.298804 -1.129904,-0.152119 -0.823357,0.343884 0.513852,0.831434 2.181305,1.229768 2.181305,0.521097 z m 12.347746,-1.588764 c 1.274289,-2.381014 1.252143,-13.92006 -0.03133,-16.318216 -1.222068,-2.283452 -4.502426,-2.45392 -7.956611,-0.413481 -3.27096,1.932201 -4.783222,4.947171 -4.668878,9.308206 0.07569,2.885321 0.669673,4.09703 3.100607,6.324815 3.677423,3.370115 8.070265,3.875156 9.55619,1.098676 z M 62.827004,81.26637 c 7.41111,-7.153528 9.53211,-9.84375 7.760926,-9.84375 -0.405248,0 -4.65955,3.9375 -9.45399,8.75 -4.79444,4.8125 -8.15955,8.75 -7.478021,8.75 0.681537,0 4.808527,-3.445313 9.171085,-7.65625 z"
         id="path30" />
      <path
         style="fill:#2b2b2f;stroke-width:0.875"
         d="m -199.1804,200.70387 -0.002,-44.84375 5.68934,0.29341 5.68934,0.29341 v 29.67534 29.67534 h 12.25 12.25 l -0.002,-29.96875 -0.002,-29.96875 5.25159,0.29647 5.25159,0.29646 v 44.54729 44.54728 h -5.2204 -5.22039 l -0.24836,-9.40625 -0.24835,-9.40625 h -11.8125 -11.8125 l -0.21943,7.4375 c -0.34213,11.59621 -0.21845,11.375 -6.35974,11.375 h -5.2331 l -0.002,-44.84375 z m 74.69164,43.02284 c -6.07817,-2.33755 -11.97876,-8.68398 -13.81133,-14.85488 -1.94587,-6.55249 -2.01179,-49.99898 -0.0857,-56.48487 1.69239,-5.6989 6.70141,-11.4421 12.22106,-14.01235 5.26002,-2.44935 13.45938,-2.78231 18.33629,-0.7446 4.75238,1.98567 10.162177,7.29304 12.466122,12.23011 1.998553,4.28264 2.04183,4.94086 2.050195,31.18133 l 0.0088,26.80634 -2.450157,4.69014 c -4.071585,7.79389 -12.80507,13.09862 -21.34356,12.96409 -1.59158,-0.025 -4.91775,-0.82397 -7.39148,-1.77531 z m 15.06773,-11.20406 c 5.42843,-3.31025 5.72211,-5.11075 5.43662,-33.33009 l -0.25665,-25.36835 -3.21865,-3.21736 c -2.74356,-2.74246 -3.90598,-3.26824 -7.875,-3.56201 -3.57536,-0.26463 -5.3055,0.0633 -7.45256,1.4123 -5.84549,3.67289 -5.92486,4.05826 -6.22622,30.23267 -0.30979,26.90675 0.0543,29.3856 4.85927,33.07656 3.88709,2.98593 10.51859,3.32634 14.73319,0.75628 z m 29.24247,-22.79839 c 0,-19.70285 0.342895,-36.03528 0.761985,-36.29429 0.41909,-0.25902 0.982406,-1.56194 1.251819,-2.89539 0.606917,-3.0039 5.757167,-9.11416 9.775473,-11.59761 1.963597,-1.21356 5.144633,-2.03878 9.155187,-2.37501 7.16765,-0.60091 12.421307,0.97925 17.197075,5.17243 l 2.957552,2.59677 3.640263,-3.11593 c 4.759378,-4.07385 8.374266,-5.17931 15.601223,-4.77094 4.690569,0.26504 6.823828,0.88475 10.2013542,2.96347 5.1708738,3.18246 9.4712888,9.29626 10.7575126,15.29369 1.0056462,4.6892 1.3816337,66.95466 0.41944,69.4621 -0.3934613,1.02535 -1.7541738,1.38407 -5.25,1.38407 H -8.42856 l -0.0035,-34.78125 c -0.0035,-33.1629 -0.084175,-34.91394 -1.742003,-37.633 -2.767782,-4.53952 -6.629192,-6.49326 -12.042703,-6.09316 -3.342745,0.24705 -5.21941,0.91821 -6.864384,2.45496 -4.756588,4.44383 -4.72241,4.14387 -4.72241,41.4465 v 34.60595 h -5.25 -5.25 l -0.0035,-34.78125 c -0.0035,-33.1629 -0.08418,-34.91394 -1.742003,-37.633 -5.268462,-8.64097 -17.604448,-8.26041 -22.097118,0.68169 -1.378738,2.74421 -1.530025,6.43818 -1.53125,37.38881 l -0.0011,34.34375 h -5.25 -5.25 z m 95.375,-8.80164 v -44.625 h 16.1875 16.1875 v 5.25 5.25 h -10.9375 -10.9375 v 24.5 24.5 h 10.9375 10.9375 l 8.75e-4,5.46875 8.75e-4,5.46875 H 36.853495 26.1338 l -0.271574,3.28125 -0.271565,3.28125 H 36.580976 47.5713 v 6.125 6.125 H 31.3838 15.1963 v -44.625 z m 46.34728,40.43017 c 4.796094,-7.79464 6.441531,-18.9046 4.329229,-29.23085 -0.521675,-2.55025 -2.451584,-9.36182 -4.28869,-15.13682 -5.341271,-16.79044 -5.390893,-25.18298 -0.209519,-35.4375 l 2.431651,-4.8125 5.883308,-0.4375 c 3.23582,-0.24062 5.882957,-0.32784 5.88252,-0.19379 -4.29e-4,0.13403 -1.22136,2.66166 -2.713183,5.61694 -5.355534,10.60925 -5.069706,20.44412 1.120376,38.55001 3.479263,10.1768 3.665962,11.24325 3.721288,21.25675 0.05801,10.49514 0.04331,10.57263 -3.270811,17.28125 l -3.329043,6.73884 h -6.069113 -6.069114 z m 36.524232,3.64967 C 97.726116,244.66063 97.44644,226.92471 97.44644,205.58928 v -38.79166 h -6.125 -6.125 v -5.46875 -5.46875 h 34.5625 34.5625 v 5.46875 5.46875 h -22.74099 -22.74099 l -0.22776,39.15625 -0.22776,39.15625 -4.84724,0.25693 c -2.66598,0.14131 -5.12692,-0.0228 -5.468748,-0.36459 z m 23.003488,-33.14234 v -33.6875 h 16.625 16.625 v 5.66135 5.66137 l -11.15625,0.24488 -11.15625,0.2449 -0.26946,4.22423 c -0.40839,6.40183 0.15709,6.71327 12.18909,6.71327 h 10.39287 v 5.22385 5.22387 l -11.15625,0.24488 -11.15625,0.2449 v 10.5 10.5 l 11.15625,0.24489 11.15625,0.24489 v 6.09886 6.09886 h -16.625 -16.625 z m 62.92048,32.32818 c -5.17233,-1.59333 -11.46885,-7.15832 -14.06595,-12.43178 -2.02409,-4.10997 -2.04434,-4.46156 -2.30479,-40.02273 l -0.26277,-35.87632 5.51277,0.43882 5.51276,0.43883 0.15306,19.6875 c 0.0842,10.82813 0.18262,26.68235 0.21875,35.2316 l 0.0657,15.5441 2.99445,3.2684 c 2.87067,3.1333 3.24819,3.27526 9.13332,3.43442 6.11543,0.16539 6.15078,0.15285 9.25555,-3.28377 l 3.11665,-3.44979 v -35.65373 -35.65373 h 5.25 5.25 l 0.005,33.25 c 0.003,19.19985 0.37021,34.56511 0.86946,36.36224 1.39886,5.03549 5.24129,8.04544 10.86603,8.51189 3.81875,0.31668 5.38639,0.021 7.8012,-1.47144 5.79197,-3.57964 5.83361,-3.88113 5.83183,-42.22243 l -0.002,-34.43026 5.28787,0.2983 5.28786,0.29829 -0.25502,36.01421 c -0.2377,33.56904 -0.37007,36.24609 -1.94967,39.42967 -4.85977,9.79466 -16.6104,15.50677 -26.44332,12.8544 -2.00089,-0.53972 -5.65114,-2.36613 -8.11167,-4.05868 l -4.47369,-3.07736 -3.36111,2.70106 c -3.65218,2.93498 -10.16909,5.26337 -14.46087,5.16667 -1.48758,-0.0335 -4.51234,-0.6178 -6.72171,-1.29838 z M 2.6547762,137.33928 C 2.33394,137.01846 2.07144,135.33147 2.07144,133.59044 c 0,-2.57667 -0.479675,-3.44885 -2.57866875,-4.68876 -6.56254375,-3.87659 -12.13012525,-10.22726 -16.25792825,-18.54462 -3.657054,-7.36883 -4.148393,-9.06 -4.505822,-15.508826 -0.32459,-5.856393 -0.09755,-7.810863 1.18937,-10.238419 2.46855,-4.656505 5.774991,-6.624695 11.1290727,-6.624695 5.5621125,0 10.2907175,3.097972 12.0175213,7.873346 l 1.1054837,3.057172 2.4311263,-2.329163 c 1.8655438,-1.787301 3.559649,-2.422752 7.282012,-2.731444 l 4.850887,-0.402272 -0.537101,-2.862983 c -0.768294,-4.095385 2.111663,-10.14874 5.959922,-12.527095 8.417211,-5.20212 19.90135,0.93261 19.910853,10.636211 0.0035,3.652994 -1.007896,6.109959 -3.758598,9.129978 l -1.793181,1.96875 h 4.759956 4.759948 l 10.472647,-10.5 c 5.759959,-5.775 11.089111,-10.5 11.842574,-10.5 1.868685,0 3.469926,1.747874 3.469926,3.787674 0,0.941167 -3.359842,5.121147 -7.595849,9.45 l -7.59584,7.762326 h 4.53334 4.533349 v 3.316162 c 0,8.156378 -5.089682,20.398168 -11.516312,27.699208 -1.845883,2.09703 -5.522335,5.25061 -8.16991,7.00797 -4.482127,2.97507 -4.813778,3.43312 -4.813778,6.64843 v 3.45323 H 23.217276 c -10.988547,0 -20.2416722,-0.2625 -20.5624998,-0.58334 z M 41.44644,133.54762 v -2.625 h -18.375 -18.375 v 2.625 2.625 h 18.375 18.375 z m 6.260476,-8.68389 c 5.331646,-3.8179 10.074173,-9.20537 12.76737,-14.50361 2.274003,-4.47359 4.597154,-12.291939 4.597154,-15.471313 V 92.42262 L 44.29019,92.42087 C 32.860502,92.419995 13.821185,92.161432 1.9805887,91.846651 l -21.5283427,-0.57232 0.666304,4.910028 c 0.760786,5.606261 2.125909,10.179471 4.375805,14.659121 2.217635,4.41541 9.3332662,12.08412 13.9046425,14.98541 l 3.8900575,2.46888 h 19.811251 19.811252 l 4.795358,-3.43389 z M 0.6990375,86.9839 c -0.8313025,-2.619216 -4.4607675,-5.73314 -7.44674,-6.388961 -4.0391485,-0.887154 -7.6371055,0.340156 -9.8741655,3.368198 -4.028981,5.453534 -4.069528,5.425718 7.470208,5.126118 C 0.98821625,88.826002 1.264935,88.766861 0.6990375,86.9839 Z m 19.9668965,0.933214 c -1.728099,-1.728099 -7.43211,-2.298485 -10.063244,-1.006294 -1.3234375,0.649959 -2.40625,1.3685 -2.40625,1.59677 0,0.22827 3.031875,0.41503 6.7375,0.41503 5.074659,0 6.489332,-0.248168 5.731994,-1.005506 z m 17.605691,-2.417039 c 2.337694,-2.338718 2.728399,-3.355231 2.676214,-6.962856 -0.06361,-4.395957 -1.500135,-6.744308 -5.350127,-8.74594 C 30.661452,67.224886 23.7209,69.654534 21.619168,74.684681 17.18178,85.304845 30.0881,93.687205 38.271625,85.500075 Z m 25.286809,-4.251013 c 6.858836,-6.890765 8.939752,-9.826442 6.965341,-9.826442 -0.369967,0 -4.595395,3.9375 -9.389835,8.75 -6.409541,6.433682 -8.25342,8.75 -6.965341,8.75 1.038633,0 4.861368,-3.124012 9.389835,-7.673558 z"
         id="path28" />
      <path
         style="fill:#000000;stroke-width:0.875"
         d="M 2.6547762,137.33928 C 2.33394,137.01846 2.07144,135.31202 2.07144,133.54723 c 0,-2.90876 -0.4551488,-3.5222 -4.8685963,-6.56186 -5.55205,-3.82384 -10.9566367,-9.72357 -10.3516787,-11.30005 0.224586,-0.58526 -0.664396,-2.21974 -1.975505,-3.63216 -3.287104,-3.5411 -5.630161,-10.16073 -6.185935,-17.476553 -0.388491,-5.113745 -0.160484,-6.761011 1.344026,-9.710085 3.455445,-6.773243 10.014944,-8.885056 16.787689,-5.404761 2.79794375,1.437774 4.4791337,3.096153 5.8090025,5.730191 1.6267125,3.22196 2.0189575,3.529155 2.9987737,2.348553 1.8866401,-2.273268 5.7923688,-3.867885 9.4736688,-3.867885 h 3.49335 l -0.03299,-4.257785 c -0.06107,-7.884686 3.988277,-12.335041 11.726016,-12.887219 6.918764,-0.493736 12.21339,3.36952 13.417976,9.790515 0.710334,3.786405 0.07499,6.247098 -2.649763,10.262201 l -2.183309,3.217288 h 4.524556 4.524555 l 10.620855,-10.5 c 5.841473,-5.775 11.196053,-10.5 11.899072,-10.5 1.665143,0 3.378226,1.744313 3.378226,3.439809 0,0.736898 -3.634408,4.989398 -8.076468,9.45 L 57.6685,89.79762 h 5.013969 5.013969 l -0.01041,3.28125 c -0.03789,11.96443 -9.007442,27.73988 -19.527103,34.34375 -4.655875,2.9228 -4.880339,3.23214 -4.920467,6.78125 l -0.04202,3.71875 H 23.217276 c -10.988547,0 -20.2416722,-0.2625 -20.5624998,-0.58334 z M 41.44644,133.54762 v -2.625 h -18.375 -18.375 v 2.625 2.625 h 18.375 18.375 z m 5.547657,-7.9642 c 4.695845,-3.11039 11.323647,-10.28556 13.682174,-14.81214 1.788649,-3.43283 3.994856,-10.916498 4.69987,-15.94241 l 0.460276,-3.28125 H 23.07144 -19.693537 l 0.460276,3.28125 c 0.714761,5.09537 2.915526,12.51068 4.822238,16.24815 2.165608,4.24494 7.8291767,10.47138 12.982463,14.27271 l 3.9375,2.90451 20.19374,0.0217 20.193731,0.0217 4.097686,-2.7142 z M 0.9193975,86.95387 C -2.7023238,78.052635 -15.692933,78.267001 -18.834821,87.279842 l -0.877704,2.517778 H -8.8180312 2.0764625 Z M 22.201655,88.491402 C 20.789353,86.789685 14.939601,85.233016 12.385476,85.87923 11.28463,86.157751 9.399565,87.144567 8.19644,88.072172 l -2.1875,1.686537 8.638385,0.01942 c 7.562196,0.01706 8.503338,-0.143273 7.55433,-1.286758 z M 39.10711,85.224756 c 2.16573,-2.508537 2.424441,-3.402026 2.08117,-7.18767 -0.542159,-5.978945 -4.092568,-9.239466 -10.060951,-9.239466 -4.712689,0 -7.446889,1.534234 -9.373385,5.25966 -5.759767,11.138164 9.114411,20.710305 17.353166,11.167476 z m 24.542884,-4.067778 c 5.808757,-5.830642 8.260726,-8.855403 7.5397,-9.301032 -0.687838,-0.425101 -4.382228,2.653315 -10.369555,8.640643 -6.823898,6.823906 -8.831935,9.301031 -7.539692,9.301031 1.065051,0 5.164268,-3.415755 10.369547,-8.640642 z"
         id="path26" />
    </g>
  </g>
</svg>
